<?xml version="1.0" encoding="utf-8" standalone="no"?>
<!DOCTYPE svg PUBLIC "-//W3C//DTD SVG 1.1//EN"
  "http://www.w3.org/Graphics/SVG/1.1/DTD/svg11.dtd">
<svg height="207.36pt" version="1.1" viewBox="0 0 921.6 207.36" width="921.6pt" xmlns="http://www.w3.org/2000/svg" xmlns:xlink="http://www.w3.org/1999/xlink">
 <metadata>
  <rdf:RDF xmlns:cc="http://creativecommons.org/ns#" xmlns:dc="http://purl.org/dc/elements/1.1/" xmlns:rdf="http://www.w3.org/1999/02/22-rdf-syntax-ns#">
   <cc:Work>
    <dc:type rdf:resource="http://purl.org/dc/dcmitype/StillImage"/>
    <dc:date>2022-03-29T11:42:16.576004</dc:date>
    <dc:format>image/svg+xml</dc:format>
    <dc:creator>
     <cc:Agent>
      <dc:title>Matplotlib v3.4.3, https://matplotlib.org/</dc:title>
     </cc:Agent>
    </dc:creator>
   </cc:Work>
  </rdf:RDF>
 </metadata>
 <defs>
  <style type="text/css">*{stroke-linecap:butt;stroke-linejoin:round;}</style>
 </defs>
 <g id="figure_1">
  <g id="patch_1">
   <path d="M 0 207.36 
L 921.6 207.36 
L 921.6 0 
L 0 0 
z
" style="fill:#ffffff;"/>
  </g>
  <g id="axes_1">
   <g id="patch_2">
    <path d="M 48.9548 163.6552 
L 465.617331 163.6552 
L 465.617331 15.4048 
L 48.9548 15.4048 
z
" style="fill:#ffffff;"/>
   </g>
   <g id="matplotlib.axis_1">
    <g id="xtick_1">
     <g id="line2d_1">
      <path clip-path="url(#p4544ed2c14)" d="M 63.948338 163.6552 
L 63.948338 15.4048 
" style="fill:none;stroke:#cccccc;stroke-linecap:round;stroke-width:0.8;"/>
     </g>
     <g id="text_1">
      <!-- 0 -->
      <g style="fill:#262626;" transform="translate(60.868888 179.310487)scale(0.0968 -0.0968)">
       <defs>
        <path d="M 2034 4250 
Q 1547 4250 1301 3770 
Q 1056 3291 1056 2328 
Q 1056 1369 1301 889 
Q 1547 409 2034 409 
Q 2525 409 2770 889 
Q 3016 1369 3016 2328 
Q 3016 3291 2770 3770 
Q 2525 4250 2034 4250 
z
M 2034 4750 
Q 2819 4750 3233 4129 
Q 3647 3509 3647 2328 
Q 3647 1150 3233 529 
Q 2819 -91 2034 -91 
Q 1250 -91 836 529 
Q 422 1150 422 2328 
Q 422 3509 836 4129 
Q 1250 4750 2034 4750 
z
" id="DejaVuSans-30" transform="scale(0.015625)"/>
       </defs>
       <use xlink:href="#DejaVuSans-30"/>
      </g>
     </g>
    </g>
    <g id="xtick_2">
     <g id="line2d_2">
      <path clip-path="url(#p4544ed2c14)" d="M 141.012164 163.6552 
L 141.012164 15.4048 
" style="fill:none;stroke:#cccccc;stroke-linecap:round;stroke-width:0.8;"/>
     </g>
     <g id="text_2">
      <!-- 5000 -->
      <g style="fill:#262626;" transform="translate(128.694364 179.310487)scale(0.0968 -0.0968)">
       <defs>
        <path d="M 691 4666 
L 3169 4666 
L 3169 4134 
L 1269 4134 
L 1269 2991 
Q 1406 3038 1543 3061 
Q 1681 3084 1819 3084 
Q 2600 3084 3056 2656 
Q 3513 2228 3513 1497 
Q 3513 744 3044 326 
Q 2575 -91 1722 -91 
Q 1428 -91 1123 -41 
Q 819 9 494 109 
L 494 744 
Q 775 591 1075 516 
Q 1375 441 1709 441 
Q 2250 441 2565 725 
Q 2881 1009 2881 1497 
Q 2881 1984 2565 2268 
Q 2250 2553 1709 2553 
Q 1456 2553 1204 2497 
Q 953 2441 691 2322 
L 691 4666 
z
" id="DejaVuSans-35" transform="scale(0.015625)"/>
       </defs>
       <use xlink:href="#DejaVuSans-35"/>
       <use x="63.623047" xlink:href="#DejaVuSans-30"/>
       <use x="127.246094" xlink:href="#DejaVuSans-30"/>
       <use x="190.869141" xlink:href="#DejaVuSans-30"/>
      </g>
     </g>
    </g>
    <g id="xtick_3">
     <g id="line2d_3">
      <path clip-path="url(#p4544ed2c14)" d="M 218.075991 163.6552 
L 218.075991 15.4048 
" style="fill:none;stroke:#cccccc;stroke-linecap:round;stroke-width:0.8;"/>
     </g>
     <g id="text_3">
      <!-- 10000 -->
      <g style="fill:#262626;" transform="translate(202.678741 179.310487)scale(0.0968 -0.0968)">
       <defs>
        <path d="M 794 531 
L 1825 531 
L 1825 4091 
L 703 3866 
L 703 4441 
L 1819 4666 
L 2450 4666 
L 2450 531 
L 3481 531 
L 3481 0 
L 794 0 
L 794 531 
z
" id="DejaVuSans-31" transform="scale(0.015625)"/>
       </defs>
       <use xlink:href="#DejaVuSans-31"/>
       <use x="63.623047" xlink:href="#DejaVuSans-30"/>
       <use x="127.246094" xlink:href="#DejaVuSans-30"/>
       <use x="190.869141" xlink:href="#DejaVuSans-30"/>
       <use x="254.492188" xlink:href="#DejaVuSans-30"/>
      </g>
     </g>
    </g>
    <g id="xtick_4">
     <g id="line2d_4">
      <path clip-path="url(#p4544ed2c14)" d="M 295.139817 163.6552 
L 295.139817 15.4048 
" style="fill:none;stroke:#cccccc;stroke-linecap:round;stroke-width:0.8;"/>
     </g>
     <g id="text_4">
      <!-- 15000 -->
      <g style="fill:#262626;" transform="translate(279.742567 179.310487)scale(0.0968 -0.0968)">
       <use xlink:href="#DejaVuSans-31"/>
       <use x="63.623047" xlink:href="#DejaVuSans-35"/>
       <use x="127.246094" xlink:href="#DejaVuSans-30"/>
       <use x="190.869141" xlink:href="#DejaVuSans-30"/>
       <use x="254.492188" xlink:href="#DejaVuSans-30"/>
      </g>
     </g>
    </g>
    <g id="xtick_5">
     <g id="line2d_5">
      <path clip-path="url(#p4544ed2c14)" d="M 372.203644 163.6552 
L 372.203644 15.4048 
" style="fill:none;stroke:#cccccc;stroke-linecap:round;stroke-width:0.8;"/>
     </g>
     <g id="text_5">
      <!-- 20000 -->
      <g style="fill:#262626;" transform="translate(356.806394 179.310487)scale(0.0968 -0.0968)">
       <defs>
        <path d="M 1228 531 
L 3431 531 
L 3431 0 
L 469 0 
L 469 531 
Q 828 903 1448 1529 
Q 2069 2156 2228 2338 
Q 2531 2678 2651 2914 
Q 2772 3150 2772 3378 
Q 2772 3750 2511 3984 
Q 2250 4219 1831 4219 
Q 1534 4219 1204 4116 
Q 875 4013 500 3803 
L 500 4441 
Q 881 4594 1212 4672 
Q 1544 4750 1819 4750 
Q 2544 4750 2975 4387 
Q 3406 4025 3406 3419 
Q 3406 3131 3298 2873 
Q 3191 2616 2906 2266 
Q 2828 2175 2409 1742 
Q 1991 1309 1228 531 
z
" id="DejaVuSans-32" transform="scale(0.015625)"/>
       </defs>
       <use xlink:href="#DejaVuSans-32"/>
       <use x="63.623047" xlink:href="#DejaVuSans-30"/>
       <use x="127.246094" xlink:href="#DejaVuSans-30"/>
       <use x="190.869141" xlink:href="#DejaVuSans-30"/>
       <use x="254.492188" xlink:href="#DejaVuSans-30"/>
      </g>
     </g>
    </g>
    <g id="xtick_6">
     <g id="line2d_6">
      <path clip-path="url(#p4544ed2c14)" d="M 449.26747 163.6552 
L 449.26747 15.4048 
" style="fill:none;stroke:#cccccc;stroke-linecap:round;stroke-width:0.8;"/>
     </g>
     <g id="text_6">
      <!-- 25000 -->
      <g style="fill:#262626;" transform="translate(433.87022 179.310487)scale(0.0968 -0.0968)">
       <use xlink:href="#DejaVuSans-32"/>
       <use x="63.623047" xlink:href="#DejaVuSans-35"/>
       <use x="127.246094" xlink:href="#DejaVuSans-30"/>
       <use x="190.869141" xlink:href="#DejaVuSans-30"/>
       <use x="254.492188" xlink:href="#DejaVuSans-30"/>
      </g>
     </g>
    </g>
    <g id="text_7">
     <!-- Episode -->
     <g style="fill:#262626;" transform="translate(236.548866 193.347575)scale(0.1056 -0.1056)">
      <defs>
       <path d="M 628 4666 
L 3578 4666 
L 3578 4134 
L 1259 4134 
L 1259 2753 
L 3481 2753 
L 3481 2222 
L 1259 2222 
L 1259 531 
L 3634 531 
L 3634 0 
L 628 0 
L 628 4666 
z
" id="DejaVuSans-45" transform="scale(0.015625)"/>
       <path d="M 1159 525 
L 1159 -1331 
L 581 -1331 
L 581 3500 
L 1159 3500 
L 1159 2969 
Q 1341 3281 1617 3432 
Q 1894 3584 2278 3584 
Q 2916 3584 3314 3078 
Q 3713 2572 3713 1747 
Q 3713 922 3314 415 
Q 2916 -91 2278 -91 
Q 1894 -91 1617 61 
Q 1341 213 1159 525 
z
M 3116 1747 
Q 3116 2381 2855 2742 
Q 2594 3103 2138 3103 
Q 1681 3103 1420 2742 
Q 1159 2381 1159 1747 
Q 1159 1113 1420 752 
Q 1681 391 2138 391 
Q 2594 391 2855 752 
Q 3116 1113 3116 1747 
z
" id="DejaVuSans-70" transform="scale(0.015625)"/>
       <path d="M 603 3500 
L 1178 3500 
L 1178 0 
L 603 0 
L 603 3500 
z
M 603 4863 
L 1178 4863 
L 1178 4134 
L 603 4134 
L 603 4863 
z
" id="DejaVuSans-69" transform="scale(0.015625)"/>
       <path d="M 2834 3397 
L 2834 2853 
Q 2591 2978 2328 3040 
Q 2066 3103 1784 3103 
Q 1356 3103 1142 2972 
Q 928 2841 928 2578 
Q 928 2378 1081 2264 
Q 1234 2150 1697 2047 
L 1894 2003 
Q 2506 1872 2764 1633 
Q 3022 1394 3022 966 
Q 3022 478 2636 193 
Q 2250 -91 1575 -91 
Q 1294 -91 989 -36 
Q 684 19 347 128 
L 347 722 
Q 666 556 975 473 
Q 1284 391 1588 391 
Q 1994 391 2212 530 
Q 2431 669 2431 922 
Q 2431 1156 2273 1281 
Q 2116 1406 1581 1522 
L 1381 1569 
Q 847 1681 609 1914 
Q 372 2147 372 2553 
Q 372 3047 722 3315 
Q 1072 3584 1716 3584 
Q 2034 3584 2315 3537 
Q 2597 3491 2834 3397 
z
" id="DejaVuSans-73" transform="scale(0.015625)"/>
       <path d="M 1959 3097 
Q 1497 3097 1228 2736 
Q 959 2375 959 1747 
Q 959 1119 1226 758 
Q 1494 397 1959 397 
Q 2419 397 2687 759 
Q 2956 1122 2956 1747 
Q 2956 2369 2687 2733 
Q 2419 3097 1959 3097 
z
M 1959 3584 
Q 2709 3584 3137 3096 
Q 3566 2609 3566 1747 
Q 3566 888 3137 398 
Q 2709 -91 1959 -91 
Q 1206 -91 779 398 
Q 353 888 353 1747 
Q 353 2609 779 3096 
Q 1206 3584 1959 3584 
z
" id="DejaVuSans-6f" transform="scale(0.015625)"/>
       <path d="M 2906 2969 
L 2906 4863 
L 3481 4863 
L 3481 0 
L 2906 0 
L 2906 525 
Q 2725 213 2448 61 
Q 2172 -91 1784 -91 
Q 1150 -91 751 415 
Q 353 922 353 1747 
Q 353 2572 751 3078 
Q 1150 3584 1784 3584 
Q 2172 3584 2448 3432 
Q 2725 3281 2906 2969 
z
M 947 1747 
Q 947 1113 1208 752 
Q 1469 391 1925 391 
Q 2381 391 2643 752 
Q 2906 1113 2906 1747 
Q 2906 2381 2643 2742 
Q 2381 3103 1925 3103 
Q 1469 3103 1208 2742 
Q 947 2381 947 1747 
z
" id="DejaVuSans-64" transform="scale(0.015625)"/>
       <path d="M 3597 1894 
L 3597 1613 
L 953 1613 
Q 991 1019 1311 708 
Q 1631 397 2203 397 
Q 2534 397 2845 478 
Q 3156 559 3463 722 
L 3463 178 
Q 3153 47 2828 -22 
Q 2503 -91 2169 -91 
Q 1331 -91 842 396 
Q 353 884 353 1716 
Q 353 2575 817 3079 
Q 1281 3584 2069 3584 
Q 2775 3584 3186 3129 
Q 3597 2675 3597 1894 
z
M 3022 2063 
Q 3016 2534 2758 2815 
Q 2500 3097 2075 3097 
Q 1594 3097 1305 2825 
Q 1016 2553 972 2059 
L 3022 2063 
z
" id="DejaVuSans-65" transform="scale(0.015625)"/>
      </defs>
      <use xlink:href="#DejaVuSans-45"/>
      <use x="63.183594" xlink:href="#DejaVuSans-70"/>
      <use x="126.660156" xlink:href="#DejaVuSans-69"/>
      <use x="154.443359" xlink:href="#DejaVuSans-73"/>
      <use x="206.542969" xlink:href="#DejaVuSans-6f"/>
      <use x="267.724609" xlink:href="#DejaVuSans-64"/>
      <use x="331.201172" xlink:href="#DejaVuSans-65"/>
     </g>
    </g>
   </g>
   <g id="matplotlib.axis_2">
    <g id="ytick_1">
     <g id="line2d_7">
      <path clip-path="url(#p4544ed2c14)" d="M 48.9548 154.38955 
L 465.617331 154.38955 
" style="fill:none;stroke:#cccccc;stroke-linecap:round;stroke-width:0.8;"/>
     </g>
     <g id="text_8">
      <!-- 1.50 -->
      <g style="fill:#262626;" transform="translate(19.101675 158.067194)scale(0.0968 -0.0968)">
       <defs>
        <path d="M 684 794 
L 1344 794 
L 1344 0 
L 684 0 
L 684 794 
z
" id="DejaVuSans-2e" transform="scale(0.015625)"/>
       </defs>
       <use xlink:href="#DejaVuSans-31"/>
       <use x="63.623047" xlink:href="#DejaVuSans-2e"/>
       <use x="95.410156" xlink:href="#DejaVuSans-35"/>
       <use x="159.033203" xlink:href="#DejaVuSans-30"/>
      </g>
     </g>
    </g>
    <g id="ytick_2">
     <g id="line2d_8">
      <path clip-path="url(#p4544ed2c14)" d="M 48.9548 131.225425 
L 465.617331 131.225425 
" style="fill:none;stroke:#cccccc;stroke-linecap:round;stroke-width:0.8;"/>
     </g>
     <g id="text_9">
      <!-- 1.75 -->
      <g style="fill:#262626;" transform="translate(19.101675 134.903069)scale(0.0968 -0.0968)">
       <defs>
        <path d="M 525 4666 
L 3525 4666 
L 3525 4397 
L 1831 0 
L 1172 0 
L 2766 4134 
L 525 4134 
L 525 4666 
z
" id="DejaVuSans-37" transform="scale(0.015625)"/>
       </defs>
       <use xlink:href="#DejaVuSans-31"/>
       <use x="63.623047" xlink:href="#DejaVuSans-2e"/>
       <use x="95.410156" xlink:href="#DejaVuSans-37"/>
       <use x="159.033203" xlink:href="#DejaVuSans-35"/>
      </g>
     </g>
    </g>
    <g id="ytick_3">
     <g id="line2d_9">
      <path clip-path="url(#p4544ed2c14)" d="M 48.9548 108.0613 
L 465.617331 108.0613 
" style="fill:none;stroke:#cccccc;stroke-linecap:round;stroke-width:0.8;"/>
     </g>
     <g id="text_10">
      <!-- 2.00 -->
      <g style="fill:#262626;" transform="translate(19.101675 111.738944)scale(0.0968 -0.0968)">
       <use xlink:href="#DejaVuSans-32"/>
       <use x="63.623047" xlink:href="#DejaVuSans-2e"/>
       <use x="95.410156" xlink:href="#DejaVuSans-30"/>
       <use x="159.033203" xlink:href="#DejaVuSans-30"/>
      </g>
     </g>
    </g>
    <g id="ytick_4">
     <g id="line2d_10">
      <path clip-path="url(#p4544ed2c14)" d="M 48.9548 84.897175 
L 465.617331 84.897175 
" style="fill:none;stroke:#cccccc;stroke-linecap:round;stroke-width:0.8;"/>
     </g>
     <g id="text_11">
      <!-- 2.25 -->
      <g style="fill:#262626;" transform="translate(19.101675 88.574819)scale(0.0968 -0.0968)">
       <use xlink:href="#DejaVuSans-32"/>
       <use x="63.623047" xlink:href="#DejaVuSans-2e"/>
       <use x="95.410156" xlink:href="#DejaVuSans-32"/>
       <use x="159.033203" xlink:href="#DejaVuSans-35"/>
      </g>
     </g>
    </g>
    <g id="ytick_5">
     <g id="line2d_11">
      <path clip-path="url(#p4544ed2c14)" d="M 48.9548 61.73305 
L 465.617331 61.73305 
" style="fill:none;stroke:#cccccc;stroke-linecap:round;stroke-width:0.8;"/>
     </g>
     <g id="text_12">
      <!-- 2.50 -->
      <g style="fill:#262626;" transform="translate(19.101675 65.410694)scale(0.0968 -0.0968)">
       <use xlink:href="#DejaVuSans-32"/>
       <use x="63.623047" xlink:href="#DejaVuSans-2e"/>
       <use x="95.410156" xlink:href="#DejaVuSans-35"/>
       <use x="159.033203" xlink:href="#DejaVuSans-30"/>
      </g>
     </g>
    </g>
    <g id="ytick_6">
     <g id="line2d_12">
      <path clip-path="url(#p4544ed2c14)" d="M 48.9548 38.568925 
L 465.617331 38.568925 
" style="fill:none;stroke:#cccccc;stroke-linecap:round;stroke-width:0.8;"/>
     </g>
     <g id="text_13">
      <!-- 2.75 -->
      <g style="fill:#262626;" transform="translate(19.101675 42.246569)scale(0.0968 -0.0968)">
       <use xlink:href="#DejaVuSans-32"/>
       <use x="63.623047" xlink:href="#DejaVuSans-2e"/>
       <use x="95.410156" xlink:href="#DejaVuSans-37"/>
       <use x="159.033203" xlink:href="#DejaVuSans-35"/>
      </g>
     </g>
    </g>
    <g id="ytick_7">
     <g id="line2d_13">
      <path clip-path="url(#p4544ed2c14)" d="M 48.9548 15.4048 
L 465.617331 15.4048 
" style="fill:none;stroke:#cccccc;stroke-linecap:round;stroke-width:0.8;"/>
     </g>
     <g id="text_14">
      <!-- 3.00 -->
      <g style="fill:#262626;" transform="translate(19.101675 19.082444)scale(0.0968 -0.0968)">
       <defs>
        <path d="M 2597 2516 
Q 3050 2419 3304 2112 
Q 3559 1806 3559 1356 
Q 3559 666 3084 287 
Q 2609 -91 1734 -91 
Q 1441 -91 1130 -33 
Q 819 25 488 141 
L 488 750 
Q 750 597 1062 519 
Q 1375 441 1716 441 
Q 2309 441 2620 675 
Q 2931 909 2931 1356 
Q 2931 1769 2642 2001 
Q 2353 2234 1838 2234 
L 1294 2234 
L 1294 2753 
L 1863 2753 
Q 2328 2753 2575 2939 
Q 2822 3125 2822 3475 
Q 2822 3834 2567 4026 
Q 2313 4219 1838 4219 
Q 1578 4219 1281 4162 
Q 984 4106 628 3988 
L 628 4550 
Q 988 4650 1302 4700 
Q 1616 4750 1894 4750 
Q 2613 4750 3031 4423 
Q 3450 4097 3450 3541 
Q 3450 3153 3228 2886 
Q 3006 2619 2597 2516 
z
" id="DejaVuSans-33" transform="scale(0.015625)"/>
       </defs>
       <use xlink:href="#DejaVuSans-33"/>
       <use x="63.623047" xlink:href="#DejaVuSans-2e"/>
       <use x="95.410156" xlink:href="#DejaVuSans-30"/>
       <use x="159.033203" xlink:href="#DejaVuSans-30"/>
      </g>
     </g>
    </g>
    <g id="text_15">
     <!-- Proficiency -->
     <g style="fill:#262626;" transform="translate(12.905525 118.222675)rotate(-90)scale(0.1056 -0.1056)">
      <defs>
       <path d="M 1259 4147 
L 1259 2394 
L 2053 2394 
Q 2494 2394 2734 2622 
Q 2975 2850 2975 3272 
Q 2975 3691 2734 3919 
Q 2494 4147 2053 4147 
L 1259 4147 
z
M 628 4666 
L 2053 4666 
Q 2838 4666 3239 4311 
Q 3641 3956 3641 3272 
Q 3641 2581 3239 2228 
Q 2838 1875 2053 1875 
L 1259 1875 
L 1259 0 
L 628 0 
L 628 4666 
z
" id="DejaVuSans-50" transform="scale(0.015625)"/>
       <path d="M 2631 2963 
Q 2534 3019 2420 3045 
Q 2306 3072 2169 3072 
Q 1681 3072 1420 2755 
Q 1159 2438 1159 1844 
L 1159 0 
L 581 0 
L 581 3500 
L 1159 3500 
L 1159 2956 
Q 1341 3275 1631 3429 
Q 1922 3584 2338 3584 
Q 2397 3584 2469 3576 
Q 2541 3569 2628 3553 
L 2631 2963 
z
" id="DejaVuSans-72" transform="scale(0.015625)"/>
       <path d="M 2375 4863 
L 2375 4384 
L 1825 4384 
Q 1516 4384 1395 4259 
Q 1275 4134 1275 3809 
L 1275 3500 
L 2222 3500 
L 2222 3053 
L 1275 3053 
L 1275 0 
L 697 0 
L 697 3053 
L 147 3053 
L 147 3500 
L 697 3500 
L 697 3744 
Q 697 4328 969 4595 
Q 1241 4863 1831 4863 
L 2375 4863 
z
" id="DejaVuSans-66" transform="scale(0.015625)"/>
       <path d="M 3122 3366 
L 3122 2828 
Q 2878 2963 2633 3030 
Q 2388 3097 2138 3097 
Q 1578 3097 1268 2742 
Q 959 2388 959 1747 
Q 959 1106 1268 751 
Q 1578 397 2138 397 
Q 2388 397 2633 464 
Q 2878 531 3122 666 
L 3122 134 
Q 2881 22 2623 -34 
Q 2366 -91 2075 -91 
Q 1284 -91 818 406 
Q 353 903 353 1747 
Q 353 2603 823 3093 
Q 1294 3584 2113 3584 
Q 2378 3584 2631 3529 
Q 2884 3475 3122 3366 
z
" id="DejaVuSans-63" transform="scale(0.015625)"/>
       <path d="M 3513 2113 
L 3513 0 
L 2938 0 
L 2938 2094 
Q 2938 2591 2744 2837 
Q 2550 3084 2163 3084 
Q 1697 3084 1428 2787 
Q 1159 2491 1159 1978 
L 1159 0 
L 581 0 
L 581 3500 
L 1159 3500 
L 1159 2956 
Q 1366 3272 1645 3428 
Q 1925 3584 2291 3584 
Q 2894 3584 3203 3211 
Q 3513 2838 3513 2113 
z
" id="DejaVuSans-6e" transform="scale(0.015625)"/>
       <path d="M 2059 -325 
Q 1816 -950 1584 -1140 
Q 1353 -1331 966 -1331 
L 506 -1331 
L 506 -850 
L 844 -850 
Q 1081 -850 1212 -737 
Q 1344 -625 1503 -206 
L 1606 56 
L 191 3500 
L 800 3500 
L 1894 763 
L 2988 3500 
L 3597 3500 
L 2059 -325 
z
" id="DejaVuSans-79" transform="scale(0.015625)"/>
      </defs>
      <use xlink:href="#DejaVuSans-50"/>
      <use x="58.552734" xlink:href="#DejaVuSans-72"/>
      <use x="97.416016" xlink:href="#DejaVuSans-6f"/>
      <use x="158.597656" xlink:href="#DejaVuSans-66"/>
      <use x="193.802734" xlink:href="#DejaVuSans-69"/>
      <use x="221.585938" xlink:href="#DejaVuSans-63"/>
      <use x="276.566406" xlink:href="#DejaVuSans-69"/>
      <use x="304.349609" xlink:href="#DejaVuSans-65"/>
      <use x="365.873047" xlink:href="#DejaVuSans-6e"/>
      <use x="429.251953" xlink:href="#DejaVuSans-63"/>
      <use x="484.232422" xlink:href="#DejaVuSans-79"/>
     </g>
    </g>
   </g>
   <g id="PolyCollection_1">
    <defs>
     <path d="M 67.894006 -81.720375 
L 67.894006 -74.121337 
L 71.839674 -77.944304 
L 75.785342 -81.658853 
L 79.73101 -78.724359 
L 83.676678 -88.970019 
L 87.622346 -84.884019 
L 91.568013 -96.495381 
L 95.513681 -101.767705 
L 99.459349 -93.01921 
L 103.405017 -108.373861 
L 107.350685 -107.60314 
L 111.296353 -104.092186 
L 115.242021 -101.981121 
L 119.187689 -114.517266 
L 123.133357 -110.03232 
L 127.079025 -117.065814 
L 131.024693 -104.902689 
L 134.97036 -108.300272 
L 138.916028 -110.179686 
L 142.861696 -106.387938 
L 146.807364 -108.716757 
L 150.753032 -111.886576 
L 154.6987 -113.376591 
L 158.644368 -118.63878 
L 162.590036 -119.034839 
L 166.535704 -116.889132 
L 170.481372 -112.57016 
L 174.42704 -122.722308 
L 178.372707 -122.898884 
L 182.318375 -114.587995 
L 186.264043 -124.207723 
L 190.209711 -127.263639 
L 194.155379 -124.387112 
L 198.101047 -121.144997 
L 202.046715 -121.926833 
L 205.992383 -127.428634 
L 209.938051 -122.353429 
L 213.883719 -119.330422 
L 217.829387 -124.053889 
L 221.775055 -123.417969 
L 225.720722 -115.740433 
L 229.66639 -116.02877 
L 233.612058 -116.863454 
L 237.557726 -96.128288 
L 241.503394 -110.926523 
L 245.449062 -108.129381 
L 249.39473 -117.518448 
L 253.340398 -105.685046 
L 257.286066 -120.050817 
L 261.231734 -108.795999 
L 265.177402 -117.050773 
L 269.123069 -106.801156 
L 273.068737 -123.38787 
L 277.014405 -124.586568 
L 280.960073 -114.137451 
L 284.905741 -114.796829 
L 288.851409 -114.017772 
L 292.797077 -108.565907 
L 296.742745 -101.721232 
L 300.688413 -108.661439 
L 304.634081 -112.146278 
L 308.579749 -117.631891 
L 312.525416 -106.19648 
L 316.471084 -110.397521 
L 320.416752 -111.726203 
L 324.36242 -99.247069 
L 328.308088 -107.82843 
L 332.253756 -111.674755 
L 336.199424 -109.178904 
L 340.145092 -120.415905 
L 344.09076 -116.245458 
L 348.036428 -117.075051 
L 351.982096 -110.486854 
L 355.927763 -124.036306 
L 359.873431 -121.367502 
L 363.819099 -127.006613 
L 367.764767 -117.963624 
L 371.710435 -118.621632 
L 375.656103 -116.982942 
L 379.601771 -118.565944 
L 383.547439 -112.922041 
L 387.493107 -119.213099 
L 391.438775 -118.219177 
L 395.384443 -121.897061 
L 399.33011 -120.510989 
L 403.275778 -121.13967 
L 407.221446 -113.820488 
L 411.167114 -115.358506 
L 415.112782 -120.079624 
L 419.05845 -116.595107 
L 423.004118 -120.716004 
L 426.949786 -121.591531 
L 430.895454 -126.759491 
L 434.841122 -116.726923 
L 438.78679 -124.459929 
L 442.732458 -128.203352 
L 446.678125 -127.75171 
L 446.678125 -144.811587 
L 446.678125 -144.811587 
L 442.732458 -141.475303 
L 438.78679 -142.918127 
L 434.841122 -146.420386 
L 430.895454 -146.21018 
L 426.949786 -139.342949 
L 423.004118 -141.215932 
L 419.05845 -128.082342 
L 415.112782 -131.76905 
L 411.167114 -144.229684 
L 407.221446 -146.194368 
L 403.275778 -132.994287 
L 399.33011 -137.868629 
L 395.384443 -132.444389 
L 391.438775 -136.289921 
L 387.493107 -129.553542 
L 383.547439 -134.066457 
L 379.601771 -141.140227 
L 375.656103 -143.098203 
L 371.710435 -135.721339 
L 367.764767 -146.057854 
L 363.819099 -137.182484 
L 359.873431 -134.167461 
L 355.927763 -137.873865 
L 351.982096 -133.313876 
L 348.036428 -145.456894 
L 344.09076 -133.819689 
L 340.145092 -136.856792 
L 336.199424 -133.614732 
L 332.253756 -128.312788 
L 328.308088 -131.689179 
L 324.36242 -140.489586 
L 320.416752 -127.768062 
L 316.471084 -126.750561 
L 312.525416 -124.285658 
L 308.579749 -124.907432 
L 304.634081 -142.393441 
L 300.688413 -136.295121 
L 296.742745 -135.834281 
L 292.797077 -149.073376 
L 288.851409 -144.341001 
L 284.905741 -134.885888 
L 280.960073 -141.123161 
L 277.014405 -136.0287 
L 273.068737 -136.489353 
L 269.123069 -136.965684 
L 265.177402 -126.361265 
L 261.231734 -129.896667 
L 257.286066 -138.579248 
L 253.340398 -128.502257 
L 249.39473 -127.090136 
L 245.449062 -130.716711 
L 241.503394 -141.103126 
L 237.557726 -136.825321 
L 233.612058 -147.124749 
L 229.66639 -146.453522 
L 225.720722 -134.128512 
L 221.775055 -143.866115 
L 217.829387 -134.433247 
L 213.883719 -139.709139 
L 209.938051 -142.498044 
L 205.992383 -151.401468 
L 202.046715 -149.561282 
L 198.101047 -146.186677 
L 194.155379 -143.064346 
L 190.209711 -141.532772 
L 186.264043 -138.994079 
L 182.318375 -136.766947 
L 178.372707 -133.438982 
L 174.42704 -133.615977 
L 170.481372 -130.113689 
L 166.535704 -128.299301 
L 162.590036 -132.976346 
L 158.644368 -132.087018 
L 154.6987 -127.772508 
L 150.753032 -131.400263 
L 146.807364 -124.034052 
L 142.861696 -130.442885 
L 138.916028 -128.968756 
L 134.97036 -131.895911 
L 131.024693 -137.064608 
L 127.079025 -129.146448 
L 123.133357 -125.23335 
L 119.187689 -128.706661 
L 115.242021 -122.473307 
L 111.296353 -120.620084 
L 107.350685 -115.525316 
L 103.405017 -118.088711 
L 99.459349 -124.919068 
L 95.513681 -114.671107 
L 91.568013 -99.040362 
L 87.622346 -104.409835 
L 83.676678 -110.156195 
L 79.73101 -94.18213 
L 75.785342 -98.56036 
L 71.839674 -95.695757 
L 67.894006 -81.720375 
z
" id="mfa9522056f" style="stroke:#4c72b0;stroke-opacity:0.2;stroke-width:0.8;"/>
    </defs>
    <g clip-path="url(#p4544ed2c14)">
     <use style="fill:#4c72b0;fill-opacity:0.2;stroke:#4c72b0;stroke-opacity:0.2;stroke-width:0.8;" x="0" xlink:href="#mfa9522056f" y="207.36"/>
    </g>
   </g>
   <g id="PolyCollection_2">
    <defs>
     <path d="M 71.654721 -74.96216 
L 71.654721 -63.778696 
L 79.361103 -72.071869 
L 87.067486 -67.488294 
L 94.773869 -72.535648 
L 102.480251 -77.606004 
L 110.186634 -74.110383 
L 117.893017 -82.116894 
L 125.599399 -76.389225 
L 133.305782 -80.259539 
L 141.012164 -86.672086 
L 148.718547 -82.142191 
L 156.42493 -90.689042 
L 164.131312 -93.964086 
L 171.837695 -98.503061 
L 179.544078 -106.002668 
L 187.25046 -102.64831 
L 194.956843 -108.836426 
L 202.663226 -112.81228 
L 210.369608 -118.78418 
L 218.075991 -115.041507 
L 225.782373 -122.267857 
L 233.488756 -121.30567 
L 241.195139 -123.962812 
L 248.901521 -130.074138 
L 256.607904 -126.642789 
L 264.314287 -125.088448 
L 272.020669 -129.683331 
L 279.727052 -124.620142 
L 287.433435 -126.813372 
L 295.139817 -138.295133 
L 302.8462 -125.590979 
L 310.552583 -126.769018 
L 318.258965 -135.636475 
L 325.965348 -134.953129 
L 333.67173 -133.078443 
L 341.378113 -141.146756 
L 349.084496 -134.789739 
L 356.790878 -144.814139 
L 364.497261 -144.846974 
L 372.203644 -139.138061 
L 379.910026 -133.24555 
L 387.616409 -138.546567 
L 395.322792 -138.651154 
L 403.029174 -140.661145 
L 410.735557 -139.29145 
L 418.441939 -135.675407 
L 426.148322 -139.876572 
L 433.854705 -141.722015 
L 433.854705 -151.537917 
L 433.854705 -151.537917 
L 426.148322 -151.867321 
L 418.441939 -147.454478 
L 410.735557 -152.354687 
L 403.029174 -152.737061 
L 395.322792 -148.22101 
L 387.616409 -150.508802 
L 379.910026 -152.827246 
L 372.203644 -149.940667 
L 364.497261 -156.484291 
L 356.790878 -149.690843 
L 349.084496 -147.112462 
L 341.378113 -151.129333 
L 333.67173 -145.881487 
L 325.965348 -151.276722 
L 318.258965 -151.697718 
L 310.552583 -140.388237 
L 302.8462 -149.542983 
L 295.139817 -145.511187 
L 287.433435 -138.548189 
L 279.727052 -143.179136 
L 272.020669 -148.486401 
L 264.314287 -130.931107 
L 256.607904 -137.918538 
L 248.901521 -134.92961 
L 241.195139 -135.392256 
L 233.488756 -131.744689 
L 225.782373 -127.305548 
L 218.075991 -130.316983 
L 210.369608 -132.473832 
L 202.663226 -130.090977 
L 194.956843 -125.404085 
L 187.25046 -123.447615 
L 179.544078 -119.749728 
L 171.837695 -113.872806 
L 164.131312 -114.915784 
L 156.42493 -106.837564 
L 148.718547 -107.686884 
L 141.012164 -104.956701 
L 133.305782 -94.362614 
L 125.599399 -96.271255 
L 117.893017 -90.34906 
L 110.186634 -85.364865 
L 102.480251 -81.792765 
L 94.773869 -92.019209 
L 87.067486 -81.097631 
L 79.361103 -83.820371 
L 71.654721 -74.96216 
z
" id="md92ea75226" style="stroke:#dd8452;stroke-opacity:0.2;stroke-width:0.8;"/>
    </defs>
    <g clip-path="url(#p4544ed2c14)">
     <use style="fill:#dd8452;fill-opacity:0.2;stroke:#dd8452;stroke-opacity:0.2;stroke-width:0.8;" x="0" xlink:href="#md92ea75226" y="207.36"/>
    </g>
   </g>
   <g id="PolyCollection_3">
    <defs>
     <path d="M 67.894006 -72.910656 
L 67.894006 -58.341676 
L 71.839674 -72.340685 
L 75.785342 -65.554868 
L 79.73101 -64.258541 
L 83.676678 -60.514326 
L 87.622346 -60.851905 
L 91.568013 -69.719652 
L 95.513681 -63.252534 
L 99.459349 -65.847369 
L 103.405017 -59.409634 
L 107.350685 -63.568396 
L 111.296353 -68.157189 
L 115.242021 -67.361933 
L 119.187689 -60.524461 
L 123.133357 -68.007594 
L 127.079025 -63.122091 
L 131.024693 -64.632559 
L 134.97036 -66.306789 
L 138.916028 -63.915639 
L 142.861696 -65.745139 
L 146.807364 -61.576964 
L 150.753032 -59.982048 
L 154.6987 -59.905001 
L 158.644368 -59.256045 
L 162.590036 -64.923126 
L 166.535704 -60.895574 
L 170.481372 -63.57616 
L 174.42704 -62.369141 
L 178.372707 -61.763756 
L 182.318375 -62.502408 
L 186.264043 -65.482534 
L 190.209711 -53.57593 
L 194.155379 -54.281518 
L 198.101047 -62.187138 
L 202.046715 -64.323895 
L 205.992383 -69.427975 
L 209.938051 -69.131588 
L 213.883719 -68.235193 
L 217.829387 -57.955735 
L 221.775055 -56.076155 
L 225.720722 -68.80329 
L 229.66639 -63.569808 
L 233.612058 -63.021645 
L 237.557726 -57.643296 
L 241.503394 -64.359032 
L 245.449062 -66.160024 
L 249.39473 -60.091494 
L 253.340398 -58.423639 
L 257.286066 -68.189528 
L 261.231734 -64.010082 
L 265.177402 -61.239829 
L 269.123069 -62.112399 
L 273.068737 -64.635157 
L 277.014405 -57.43178 
L 280.960073 -65.740824 
L 284.905741 -68.711573 
L 288.851409 -66.967463 
L 292.797077 -65.242649 
L 296.742745 -64.208704 
L 300.688413 -66.911107 
L 304.634081 -66.952623 
L 308.579749 -60.528742 
L 312.525416 -66.472093 
L 316.471084 -63.977119 
L 320.416752 -58.560872 
L 324.36242 -62.742671 
L 328.308088 -67.279038 
L 332.253756 -65.420364 
L 336.199424 -70.372387 
L 340.145092 -58.281477 
L 344.09076 -65.91801 
L 348.036428 -63.9069 
L 351.982096 -63.776103 
L 355.927763 -54.962648 
L 359.873431 -63.140896 
L 363.819099 -56.329973 
L 367.764767 -66.447934 
L 371.710435 -67.125781 
L 375.656103 -55.560359 
L 379.601771 -67.184183 
L 383.547439 -58.344994 
L 387.493107 -66.582063 
L 391.438775 -65.195479 
L 395.384443 -56.842844 
L 399.33011 -51.770523 
L 403.275778 -65.054395 
L 407.221446 -63.115083 
L 411.167114 -62.972775 
L 415.112782 -65.199043 
L 419.05845 -60.709051 
L 423.004118 -61.506493 
L 426.949786 -64.086775 
L 430.895454 -62.796963 
L 434.841122 -55.938213 
L 438.78679 -68.944709 
L 442.732458 -70.865259 
L 446.678125 -68.849435 
L 446.678125 -79.233505 
L 446.678125 -79.233505 
L 442.732458 -78.255846 
L 438.78679 -79.020599 
L 434.841122 -76.840484 
L 430.895454 -82.324686 
L 426.949786 -82.61798 
L 423.004118 -73.660481 
L 419.05845 -67.308384 
L 415.112782 -76.944713 
L 411.167114 -82.67564 
L 407.221446 -74.480907 
L 403.275778 -80.276525 
L 399.33011 -79.343213 
L 395.384443 -85.203179 
L 391.438775 -77.135521 
L 387.493107 -76.224183 
L 383.547439 -75.743887 
L 379.601771 -75.288456 
L 375.656103 -76.708232 
L 371.710435 -78.36366 
L 367.764767 -82.793914 
L 363.819099 -80.928378 
L 359.873431 -73.998319 
L 355.927763 -75.949328 
L 351.982096 -80.229999 
L 348.036428 -76.529294 
L 344.09076 -86.857922 
L 340.145092 -77.863505 
L 336.199424 -78.238709 
L 332.253756 -77.282534 
L 328.308088 -71.890682 
L 324.36242 -84.602933 
L 320.416752 -79.942746 
L 316.471084 -87.150355 
L 312.525416 -81.612546 
L 308.579749 -78.506673 
L 304.634081 -78.140747 
L 300.688413 -75.101387 
L 296.742745 -71.918705 
L 292.797077 -84.813672 
L 288.851409 -83.638048 
L 284.905741 -77.212889 
L 280.960073 -79.665779 
L 277.014405 -79.257391 
L 273.068737 -74.088329 
L 269.123069 -80.1022 
L 265.177402 -78.666393 
L 261.231734 -70.718192 
L 257.286066 -81.3677 
L 253.340398 -75.257563 
L 249.39473 -83.555481 
L 245.449062 -78.352365 
L 241.503394 -76.319567 
L 237.557726 -71.724629 
L 233.612058 -77.614276 
L 229.66639 -72.309168 
L 225.720722 -85.852251 
L 221.775055 -74.196016 
L 217.829387 -82.387177 
L 213.883719 -72.685575 
L 209.938051 -76.083415 
L 205.992383 -78.650644 
L 202.046715 -71.525617 
L 198.101047 -76.799018 
L 194.155379 -76.575819 
L 190.209711 -70.398751 
L 186.264043 -74.356738 
L 182.318375 -88.250994 
L 178.372707 -79.249702 
L 174.42704 -77.638787 
L 170.481372 -74.071818 
L 166.535704 -84.256617 
L 162.590036 -81.588912 
L 158.644368 -74.428686 
L 154.6987 -71.826602 
L 150.753032 -72.871841 
L 146.807364 -76.423308 
L 142.861696 -83.371662 
L 138.916028 -78.983443 
L 134.97036 -79.767675 
L 131.024693 -80.555676 
L 127.079025 -77.725086 
L 123.133357 -73.6256 
L 119.187689 -75.139796 
L 115.242021 -76.705487 
L 111.296353 -77.840771 
L 107.350685 -70.905933 
L 103.405017 -73.272502 
L 99.459349 -75.700215 
L 95.513681 -78.087682 
L 91.568013 -74.56411 
L 87.622346 -69.46554 
L 83.676678 -75.3408 
L 79.73101 -83.744425 
L 75.785342 -80.369216 
L 71.839674 -78.627199 
L 67.894006 -72.910656 
z
" id="mdcb6788eb4" style="stroke:#55a868;stroke-opacity:0.2;stroke-width:0.8;"/>
    </defs>
    <g clip-path="url(#p4544ed2c14)">
     <use style="fill:#55a868;fill-opacity:0.2;stroke:#55a868;stroke-opacity:0.2;stroke-width:0.8;" x="0" xlink:href="#mdcb6788eb4" y="207.36"/>
    </g>
   </g>
   <g id="line2d_14">
    <path clip-path="url(#p4544ed2c14)" d="M 67.894006 129.439144 
L 71.839674 120.53997 
L 75.785342 117.250394 
L 79.73101 120.906755 
L 83.676678 107.796893 
L 87.622346 112.713073 
L 91.568013 109.592128 
L 95.513681 99.140594 
L 99.459349 98.390861 
L 103.405017 94.128714 
L 107.350685 95.795772 
L 111.296353 95.003865 
L 115.242021 95.132786 
L 119.187689 85.748036 
L 123.133357 89.727165 
L 127.079025 84.253869 
L 131.024693 86.376351 
L 134.97036 87.261908 
L 138.916028 87.785779 
L 142.861696 88.944588 
L 146.807364 90.984595 
L 150.753032 85.71658 
L 154.6987 86.785451 
L 158.644368 81.997101 
L 162.590036 81.354407 
L 166.535704 84.765783 
L 170.481372 86.018075 
L 174.42704 79.190858 
L 178.372707 79.191067 
L 182.318375 81.682529 
L 186.264043 75.759099 
L 190.209711 72.961794 
L 194.155379 73.634271 
L 198.101047 73.694163 
L 202.046715 71.615943 
L 205.992383 67.944949 
L 209.938051 74.934263 
L 213.883719 77.840219 
L 217.829387 78.116432 
L 221.775055 73.717958 
L 225.720722 82.425528 
L 229.66639 76.118854 
L 233.612058 75.365898 
L 237.557726 90.883195 
L 241.503394 81.345175 
L 245.449062 87.936954 
L 249.39473 85.055708 
L 253.340398 90.266348 
L 257.286066 78.044967 
L 261.231734 88.013667 
L 265.177402 85.653981 
L 269.123069 85.47658 
L 273.068737 77.421389 
L 277.014405 77.052366 
L 280.960073 79.729694 
L 284.905741 82.518641 
L 288.851409 78.180613 
L 292.797077 78.540358 
L 296.742745 88.582244 
L 300.688413 84.88172 
L 304.634081 80.09014 
L 308.579749 86.090339 
L 312.525416 92.118931 
L 316.471084 88.785959 
L 320.416752 87.612868 
L 324.36242 87.491673 
L 328.308088 87.601196 
L 332.253756 87.366228 
L 336.199424 85.963182 
L 340.145092 78.723652 
L 344.09076 82.327426 
L 348.036428 76.094028 
L 351.982096 85.459635 
L 355.927763 76.404915 
L 359.873431 79.592519 
L 363.819099 75.265452 
L 367.764767 75.349261 
L 371.710435 80.188514 
L 375.656103 77.319428 
L 379.601771 77.506914 
L 383.547439 83.865751 
L 387.493107 82.976679 
L 391.438775 80.105451 
L 395.384443 80.189275 
L 399.33011 78.170191 
L 403.275778 80.293022 
L 407.221446 77.352572 
L 411.167114 77.565905 
L 415.112782 81.435663 
L 419.05845 85.021276 
L 423.004118 76.394032 
L 426.949786 76.89276 
L 430.895454 70.875165 
L 434.841122 75.786345 
L 438.78679 73.670972 
L 442.732458 72.520672 
L 446.678125 71.078351 
" style="fill:none;stroke:#4c72b0;stroke-linecap:round;"/>
   </g>
   <g id="line2d_15">
    <path clip-path="url(#p4544ed2c14)" d="M 71.654721 137.989572 
L 79.361103 129.41388 
L 87.067486 133.067037 
L 94.773869 125.082571 
L 102.480251 127.660615 
L 110.186634 127.622376 
L 117.893017 121.127023 
L 125.599399 121.02976 
L 133.305782 120.048924 
L 141.012164 111.545606 
L 148.718547 112.445463 
L 156.42493 108.596697 
L 164.131312 102.920065 
L 171.837695 101.172067 
L 179.544078 94.483802 
L 187.25046 94.312038 
L 194.956843 90.239744 
L 202.663226 85.908372 
L 210.369608 81.730994 
L 218.075991 84.680755 
L 225.782373 82.573298 
L 233.488756 80.83482 
L 241.195139 77.682466 
L 248.901521 74.858126 
L 256.607904 75.079337 
L 264.314287 79.350222 
L 272.020669 68.275134 
L 279.727052 73.460361 
L 287.433435 74.679219 
L 295.139817 65.45684 
L 302.8462 69.793019 
L 310.552583 73.781372 
L 318.258965 63.692904 
L 325.965348 64.245074 
L 333.67173 67.880035 
L 341.378113 61.221955 
L 349.084496 66.408899 
L 356.790878 60.107509 
L 364.497261 56.694368 
L 372.203644 62.820636 
L 379.910026 64.323602 
L 387.616409 62.832315 
L 395.322792 63.923918 
L 403.029174 60.660897 
L 410.735557 61.536932 
L 418.441939 65.795057 
L 426.148322 61.488054 
L 433.854705 60.730034 
" style="fill:none;stroke:#dd8452;stroke-dasharray:4,1.5;stroke-dashoffset:0;"/>
   </g>
   <g id="line2d_16">
    <path clip-path="url(#p4544ed2c14)" d="M 67.894006 141.733834 
L 71.839674 131.876058 
L 75.785342 134.397958 
L 79.73101 133.358517 
L 83.676678 139.432437 
L 87.622346 142.201277 
L 91.568013 135.218119 
L 95.513681 136.689892 
L 99.459349 136.586208 
L 103.405017 141.018932 
L 107.350685 140.122836 
L 111.296353 134.36102 
L 115.242021 135.32629 
L 119.187689 139.527872 
L 123.133357 136.543403 
L 127.079025 136.936411 
L 131.024693 134.765882 
L 134.97036 134.322768 
L 138.916028 135.910459 
L 142.861696 132.801599 
L 146.807364 138.359864 
L 150.753032 140.933055 
L 154.6987 141.494199 
L 158.644368 140.517634 
L 162.590036 134.103981 
L 166.535704 134.783905 
L 170.481372 138.536011 
L 174.42704 137.356036 
L 178.372707 136.853271 
L 182.318375 131.983299 
L 186.264043 137.440364 
L 190.209711 145.372659 
L 194.155379 141.931331 
L 198.101047 137.866922 
L 202.046715 139.435244 
L 205.992383 133.320691 
L 209.938051 134.752498 
L 213.883719 136.899616 
L 217.829387 137.188544 
L 221.775055 142.223914 
L 225.720722 130.032229 
L 229.66639 139.420512 
L 233.612058 137.04204 
L 237.557726 142.676037 
L 241.503394 137.020701 
L 245.449062 135.103805 
L 249.39473 135.536513 
L 253.340398 140.519399 
L 257.286066 132.581386 
L 261.231734 139.995863 
L 265.177402 137.406889 
L 269.123069 136.2527 
L 273.068737 137.998257 
L 277.014405 139.015415 
L 280.960073 134.656698 
L 284.905741 134.397769 
L 288.851409 132.057245 
L 292.797077 132.33184 
L 296.742745 139.296295 
L 300.688413 136.353753 
L 304.634081 134.813315 
L 308.579749 137.842293 
L 312.525416 133.31768 
L 316.471084 131.796263 
L 320.416752 138.108191 
L 324.36242 133.687198 
L 328.308088 137.77514 
L 332.253756 136.008551 
L 336.199424 133.054452 
L 340.145092 139.287509 
L 344.09076 130.972034 
L 348.036428 137.141903 
L 351.982096 135.356949 
L 355.927763 141.904012 
L 359.873431 138.790393 
L 363.819099 138.730825 
L 367.764767 132.739076 
L 371.710435 134.61528 
L 375.656103 141.225704 
L 379.601771 136.12368 
L 383.547439 140.315559 
L 387.493107 135.956877 
L 391.438775 136.1945 
L 395.384443 136.336988 
L 399.33011 141.803132 
L 403.275778 134.69454 
L 407.221446 138.562005 
L 411.167114 134.535793 
L 415.112782 136.288122 
L 419.05845 143.351283 
L 423.004118 139.776513 
L 426.949786 134.007623 
L 430.895454 134.799175 
L 434.841122 140.970652 
L 438.78679 133.377346 
L 442.732458 132.799447 
L 446.678125 133.31853 
" style="fill:none;stroke:#55a868;stroke-dasharray:1,1;stroke-dashoffset:0;"/>
   </g>
   <g id="line2d_17"/>
   <g id="line2d_18"/>
   <g id="line2d_19"/>
   <g id="patch_3">
    <path d="M 48.9548 163.6552 
L 48.9548 15.4048 
" style="fill:none;stroke:#cccccc;stroke-linecap:square;stroke-linejoin:miter;"/>
   </g>
   <g id="patch_4">
    <path d="M 465.617331 163.6552 
L 465.617331 15.4048 
" style="fill:none;stroke:#cccccc;stroke-linecap:square;stroke-linejoin:miter;"/>
   </g>
   <g id="patch_5">
    <path d="M 48.9548 163.6552 
L 465.617331 163.6552 
" style="fill:none;stroke:#cccccc;stroke-linecap:square;stroke-linejoin:miter;"/>
   </g>
   <g id="patch_6">
    <path d="M 48.9548 15.4048 
L 465.617331 15.4048 
" style="fill:none;stroke:#cccccc;stroke-linecap:square;stroke-linejoin:miter;"/>
   </g>
   <g id="legend_1">
    <g id="patch_7">
     <path d="M 55.7308 80.834175 
L 126.778975 80.834175 
Q 128.714975 80.834175 128.714975 78.898175 
L 128.714975 22.1808 
Q 128.714975 20.2448 126.778975 20.2448 
L 55.7308 20.2448 
Q 53.7948 20.2448 53.7948 22.1808 
L 53.7948 78.898175 
Q 53.7948 80.834175 55.7308 80.834175 
z
" style="fill:#ffffff;opacity:0.8;stroke:#cccccc;stroke-linejoin:miter;stroke-width:0.8;"/>
    </g>
    <g id="text_16">
     <!-- Model -->
     <g style="fill:#262626;" transform="translate(75.400863 32.14075)scale(0.1056 -0.1056)">
      <defs>
       <path d="M 628 4666 
L 1569 4666 
L 2759 1491 
L 3956 4666 
L 4897 4666 
L 4897 0 
L 4281 0 
L 4281 4097 
L 3078 897 
L 2444 897 
L 1241 4097 
L 1241 0 
L 628 0 
L 628 4666 
z
" id="DejaVuSans-4d" transform="scale(0.015625)"/>
       <path d="M 603 4863 
L 1178 4863 
L 1178 0 
L 603 0 
L 603 4863 
z
" id="DejaVuSans-6c" transform="scale(0.015625)"/>
      </defs>
      <use xlink:href="#DejaVuSans-4d"/>
      <use x="86.279297" xlink:href="#DejaVuSans-6f"/>
      <use x="147.460938" xlink:href="#DejaVuSans-64"/>
      <use x="210.9375" xlink:href="#DejaVuSans-65"/>
      <use x="272.460938" xlink:href="#DejaVuSans-6c"/>
     </g>
    </g>
    <g id="line2d_20">
     <path d="M 57.6668 43.144188 
L 77.0268 43.144188 
" style="fill:none;stroke:#4c72b0;stroke-linecap:round;"/>
    </g>
    <g id="line2d_21"/>
    <g id="text_17">
     <!-- A2C -->
     <g style="fill:#262626;" transform="translate(84.7708 46.532188)scale(0.0968 -0.0968)">
      <defs>
       <path d="M 2188 4044 
L 1331 1722 
L 3047 1722 
L 2188 4044 
z
M 1831 4666 
L 2547 4666 
L 4325 0 
L 3669 0 
L 3244 1197 
L 1141 1197 
L 716 0 
L 50 0 
L 1831 4666 
z
" id="DejaVuSans-41" transform="scale(0.015625)"/>
       <path d="M 4122 4306 
L 4122 3641 
Q 3803 3938 3442 4084 
Q 3081 4231 2675 4231 
Q 1875 4231 1450 3742 
Q 1025 3253 1025 2328 
Q 1025 1406 1450 917 
Q 1875 428 2675 428 
Q 3081 428 3442 575 
Q 3803 722 4122 1019 
L 4122 359 
Q 3791 134 3420 21 
Q 3050 -91 2638 -91 
Q 1578 -91 968 557 
Q 359 1206 359 2328 
Q 359 3453 968 4101 
Q 1578 4750 2638 4750 
Q 3056 4750 3426 4639 
Q 3797 4528 4122 4306 
z
" id="DejaVuSans-43" transform="scale(0.015625)"/>
      </defs>
      <use xlink:href="#DejaVuSans-41"/>
      <use x="68.408203" xlink:href="#DejaVuSans-32"/>
      <use x="132.03125" xlink:href="#DejaVuSans-43"/>
     </g>
    </g>
    <g id="line2d_22">
     <path d="M 57.6668 57.352613 
L 77.0268 57.352613 
" style="fill:none;stroke:#dd8452;stroke-dasharray:4,1.5;stroke-dashoffset:0;"/>
    </g>
    <g id="line2d_23"/>
    <g id="text_18">
     <!-- PPO -->
     <g style="fill:#262626;" transform="translate(84.7708 60.740613)scale(0.0968 -0.0968)">
      <defs>
       <path d="M 2522 4238 
Q 1834 4238 1429 3725 
Q 1025 3213 1025 2328 
Q 1025 1447 1429 934 
Q 1834 422 2522 422 
Q 3209 422 3611 934 
Q 4013 1447 4013 2328 
Q 4013 3213 3611 3725 
Q 3209 4238 2522 4238 
z
M 2522 4750 
Q 3503 4750 4090 4092 
Q 4678 3434 4678 2328 
Q 4678 1225 4090 567 
Q 3503 -91 2522 -91 
Q 1538 -91 948 565 
Q 359 1222 359 2328 
Q 359 3434 948 4092 
Q 1538 4750 2522 4750 
z
" id="DejaVuSans-4f" transform="scale(0.015625)"/>
      </defs>
      <use xlink:href="#DejaVuSans-50"/>
      <use x="60.302734" xlink:href="#DejaVuSans-50"/>
      <use x="120.605469" xlink:href="#DejaVuSans-4f"/>
     </g>
    </g>
    <g id="line2d_24">
     <path d="M 57.6668 71.561038 
L 77.0268 71.561038 
" style="fill:none;stroke:#55a868;stroke-dasharray:1,1;stroke-dashoffset:0;"/>
    </g>
    <g id="line2d_25"/>
    <g id="text_19">
     <!-- Random -->
     <g style="fill:#262626;" transform="translate(84.7708 74.949038)scale(0.0968 -0.0968)">
      <defs>
       <path d="M 2841 2188 
Q 3044 2119 3236 1894 
Q 3428 1669 3622 1275 
L 4263 0 
L 3584 0 
L 2988 1197 
Q 2756 1666 2539 1819 
Q 2322 1972 1947 1972 
L 1259 1972 
L 1259 0 
L 628 0 
L 628 4666 
L 2053 4666 
Q 2853 4666 3247 4331 
Q 3641 3997 3641 3322 
Q 3641 2881 3436 2590 
Q 3231 2300 2841 2188 
z
M 1259 4147 
L 1259 2491 
L 2053 2491 
Q 2509 2491 2742 2702 
Q 2975 2913 2975 3322 
Q 2975 3731 2742 3939 
Q 2509 4147 2053 4147 
L 1259 4147 
z
" id="DejaVuSans-52" transform="scale(0.015625)"/>
       <path d="M 2194 1759 
Q 1497 1759 1228 1600 
Q 959 1441 959 1056 
Q 959 750 1161 570 
Q 1363 391 1709 391 
Q 2188 391 2477 730 
Q 2766 1069 2766 1631 
L 2766 1759 
L 2194 1759 
z
M 3341 1997 
L 3341 0 
L 2766 0 
L 2766 531 
Q 2569 213 2275 61 
Q 1981 -91 1556 -91 
Q 1019 -91 701 211 
Q 384 513 384 1019 
Q 384 1609 779 1909 
Q 1175 2209 1959 2209 
L 2766 2209 
L 2766 2266 
Q 2766 2663 2505 2880 
Q 2244 3097 1772 3097 
Q 1472 3097 1187 3025 
Q 903 2953 641 2809 
L 641 3341 
Q 956 3463 1253 3523 
Q 1550 3584 1831 3584 
Q 2591 3584 2966 3190 
Q 3341 2797 3341 1997 
z
" id="DejaVuSans-61" transform="scale(0.015625)"/>
       <path d="M 3328 2828 
Q 3544 3216 3844 3400 
Q 4144 3584 4550 3584 
Q 5097 3584 5394 3201 
Q 5691 2819 5691 2113 
L 5691 0 
L 5113 0 
L 5113 2094 
Q 5113 2597 4934 2840 
Q 4756 3084 4391 3084 
Q 3944 3084 3684 2787 
Q 3425 2491 3425 1978 
L 3425 0 
L 2847 0 
L 2847 2094 
Q 2847 2600 2669 2842 
Q 2491 3084 2119 3084 
Q 1678 3084 1418 2786 
Q 1159 2488 1159 1978 
L 1159 0 
L 581 0 
L 581 3500 
L 1159 3500 
L 1159 2956 
Q 1356 3278 1631 3431 
Q 1906 3584 2284 3584 
Q 2666 3584 2933 3390 
Q 3200 3197 3328 2828 
z
" id="DejaVuSans-6d" transform="scale(0.015625)"/>
      </defs>
      <use xlink:href="#DejaVuSans-52"/>
      <use x="67.232422" xlink:href="#DejaVuSans-61"/>
      <use x="128.511719" xlink:href="#DejaVuSans-6e"/>
      <use x="191.890625" xlink:href="#DejaVuSans-64"/>
      <use x="255.367188" xlink:href="#DejaVuSans-6f"/>
      <use x="316.548828" xlink:href="#DejaVuSans-6d"/>
     </g>
    </g>
   </g>
  </g>
  <g id="axes_2">
   <g id="patch_8">
    <path d="M 493.532669 163.6552 
L 910.1952 163.6552 
L 910.1952 15.4048 
L 493.532669 15.4048 
z
" style="fill:#ffffff;"/>
   </g>
   <g id="matplotlib.axis_3">
    <g id="xtick_7">
     <g id="text_20">
      <!-- 1 -->
      <g style="fill:#262626;" transform="translate(542.536035 179.310487)scale(0.0968 -0.0968)">
       <use xlink:href="#DejaVuSans-31"/>
      </g>
     </g>
    </g>
    <g id="xtick_8">
     <g id="text_21">
      <!-- 3 -->
      <g style="fill:#262626;" transform="translate(646.701668 179.310487)scale(0.0968 -0.0968)">
       <use xlink:href="#DejaVuSans-33"/>
      </g>
     </g>
    </g>
    <g id="xtick_9">
     <g id="text_22">
      <!-- 5 -->
      <g style="fill:#262626;" transform="translate(750.867301 179.310487)scale(0.0968 -0.0968)">
       <use xlink:href="#DejaVuSans-35"/>
      </g>
     </g>
    </g>
    <g id="xtick_10">
     <g id="text_23">
      <!-- 7 -->
      <g style="fill:#262626;" transform="translate(855.032934 179.310487)scale(0.0968 -0.0968)">
       <use xlink:href="#DejaVuSans-37"/>
      </g>
     </g>
    </g>
    <g id="text_24">
     <!-- Number of skills -->
     <g style="fill:#262626;" transform="translate(659.248559 193.347575)scale(0.1056 -0.1056)">
      <defs>
       <path d="M 628 4666 
L 1478 4666 
L 3547 763 
L 3547 4666 
L 4159 4666 
L 4159 0 
L 3309 0 
L 1241 3903 
L 1241 0 
L 628 0 
L 628 4666 
z
" id="DejaVuSans-4e" transform="scale(0.015625)"/>
       <path d="M 544 1381 
L 544 3500 
L 1119 3500 
L 1119 1403 
Q 1119 906 1312 657 
Q 1506 409 1894 409 
Q 2359 409 2629 706 
Q 2900 1003 2900 1516 
L 2900 3500 
L 3475 3500 
L 3475 0 
L 2900 0 
L 2900 538 
Q 2691 219 2414 64 
Q 2138 -91 1772 -91 
Q 1169 -91 856 284 
Q 544 659 544 1381 
z
M 1991 3584 
L 1991 3584 
z
" id="DejaVuSans-75" transform="scale(0.015625)"/>
       <path d="M 3116 1747 
Q 3116 2381 2855 2742 
Q 2594 3103 2138 3103 
Q 1681 3103 1420 2742 
Q 1159 2381 1159 1747 
Q 1159 1113 1420 752 
Q 1681 391 2138 391 
Q 2594 391 2855 752 
Q 3116 1113 3116 1747 
z
M 1159 2969 
Q 1341 3281 1617 3432 
Q 1894 3584 2278 3584 
Q 2916 3584 3314 3078 
Q 3713 2572 3713 1747 
Q 3713 922 3314 415 
Q 2916 -91 2278 -91 
Q 1894 -91 1617 61 
Q 1341 213 1159 525 
L 1159 0 
L 581 0 
L 581 4863 
L 1159 4863 
L 1159 2969 
z
" id="DejaVuSans-62" transform="scale(0.015625)"/>
       <path id="DejaVuSans-20" transform="scale(0.015625)"/>
       <path d="M 581 4863 
L 1159 4863 
L 1159 1991 
L 2875 3500 
L 3609 3500 
L 1753 1863 
L 3688 0 
L 2938 0 
L 1159 1709 
L 1159 0 
L 581 0 
L 581 4863 
z
" id="DejaVuSans-6b" transform="scale(0.015625)"/>
      </defs>
      <use xlink:href="#DejaVuSans-4e"/>
      <use x="74.804688" xlink:href="#DejaVuSans-75"/>
      <use x="138.183594" xlink:href="#DejaVuSans-6d"/>
      <use x="235.595703" xlink:href="#DejaVuSans-62"/>
      <use x="299.072266" xlink:href="#DejaVuSans-65"/>
      <use x="360.595703" xlink:href="#DejaVuSans-72"/>
      <use x="401.708984" xlink:href="#DejaVuSans-20"/>
      <use x="433.496094" xlink:href="#DejaVuSans-6f"/>
      <use x="494.677734" xlink:href="#DejaVuSans-66"/>
      <use x="529.882812" xlink:href="#DejaVuSans-20"/>
      <use x="561.669922" xlink:href="#DejaVuSans-73"/>
      <use x="613.769531" xlink:href="#DejaVuSans-6b"/>
      <use x="671.679688" xlink:href="#DejaVuSans-69"/>
      <use x="699.462891" xlink:href="#DejaVuSans-6c"/>
      <use x="727.246094" xlink:href="#DejaVuSans-6c"/>
      <use x="755.029297" xlink:href="#DejaVuSans-73"/>
     </g>
    </g>
   </g>
   <g id="matplotlib.axis_4">
    <g id="ytick_8">
     <g id="line2d_26">
      <path clip-path="url(#pa0441c3e46)" d="M 493.532669 154.38955 
L 910.1952 154.38955 
" style="fill:none;stroke:#cccccc;stroke-linecap:round;stroke-width:0.8;"/>
     </g>
    </g>
    <g id="ytick_9">
     <g id="line2d_27">
      <path clip-path="url(#pa0441c3e46)" d="M 493.532669 131.225425 
L 910.1952 131.225425 
" style="fill:none;stroke:#cccccc;stroke-linecap:round;stroke-width:0.8;"/>
     </g>
    </g>
    <g id="ytick_10">
     <g id="line2d_28">
      <path clip-path="url(#pa0441c3e46)" d="M 493.532669 108.0613 
L 910.1952 108.0613 
" style="fill:none;stroke:#cccccc;stroke-linecap:round;stroke-width:0.8;"/>
     </g>
    </g>
    <g id="ytick_11">
     <g id="line2d_29">
      <path clip-path="url(#pa0441c3e46)" d="M 493.532669 84.897175 
L 910.1952 84.897175 
" style="fill:none;stroke:#cccccc;stroke-linecap:round;stroke-width:0.8;"/>
     </g>
    </g>
    <g id="ytick_12">
     <g id="line2d_30">
      <path clip-path="url(#pa0441c3e46)" d="M 493.532669 61.73305 
L 910.1952 61.73305 
" style="fill:none;stroke:#cccccc;stroke-linecap:round;stroke-width:0.8;"/>
     </g>
    </g>
    <g id="ytick_13">
     <g id="line2d_31">
      <path clip-path="url(#pa0441c3e46)" d="M 493.532669 38.568925 
L 910.1952 38.568925 
" style="fill:none;stroke:#cccccc;stroke-linecap:round;stroke-width:0.8;"/>
     </g>
    </g>
    <g id="ytick_14">
     <g id="line2d_32">
      <path clip-path="url(#pa0441c3e46)" d="M 493.532669 15.4048 
L 910.1952 15.4048 
" style="fill:none;stroke:#cccccc;stroke-linecap:round;stroke-width:0.8;"/>
     </g>
    </g>
    <g id="text_25">
     <!-- Proficiency -->
     <g style="fill:#262626;" transform="translate(487.336519 118.222675)rotate(-90)scale(0.1056 -0.1056)">
      <use xlink:href="#DejaVuSans-50"/>
      <use x="58.552734" xlink:href="#DejaVuSans-72"/>
      <use x="97.416016" xlink:href="#DejaVuSans-6f"/>
      <use x="158.597656" xlink:href="#DejaVuSans-66"/>
      <use x="193.802734" xlink:href="#DejaVuSans-69"/>
      <use x="221.585938" xlink:href="#DejaVuSans-63"/>
      <use x="276.566406" xlink:href="#DejaVuSans-69"/>
      <use x="304.349609" xlink:href="#DejaVuSans-65"/>
      <use x="365.873047" xlink:href="#DejaVuSans-6e"/>
      <use x="429.251953" xlink:href="#DejaVuSans-63"/>
      <use x="484.232422" xlink:href="#DejaVuSans-79"/>
     </g>
    </g>
   </g>
   <g id="PathCollection_1">
    <defs>
     <path d="M 0 3.383948 
C 0.897434 3.383948 1.758231 3.027394 2.392813 2.392813 
C 3.027394 1.758231 3.383948 0.897434 3.383948 0 
C 3.383948 -0.897434 3.027394 -1.758231 2.392813 -2.392813 
C 1.758231 -3.027394 0.897434 -3.383948 0 -3.383948 
C -0.897434 -3.383948 -1.758231 -3.027394 -2.392813 -2.392813 
C -3.027394 -1.758231 -3.383948 -0.897434 -3.383948 0 
C -3.383948 0.897434 -3.027394 1.758231 -2.392813 2.392813 
C -1.758231 3.027394 -0.897434 3.383948 0 3.383948 
z
" id="maed40849b4" style="stroke:#4c72b0;stroke-width:2.025;"/>
    </defs>
    <g clip-path="url(#pa0441c3e46)">
     <use style="fill:#4c72b0;stroke:#4c72b0;stroke-width:2.025;" x="545.615485" xlink:href="#maed40849b4" y="32.853078"/>
     <use style="fill:#4c72b0;stroke:#4c72b0;stroke-width:2.025;" x="649.781118" xlink:href="#maed40849b4" y="53.193193"/>
     <use style="fill:#4c72b0;stroke:#4c72b0;stroke-width:2.025;" x="753.946751" xlink:href="#maed40849b4" y="71.078351"/>
     <use style="fill:#4c72b0;stroke:#4c72b0;stroke-width:2.025;" x="858.112384" xlink:href="#maed40849b4" y="102.266596"/>
    </g>
   </g>
   <g id="line2d_33">
    <path clip-path="url(#pa0441c3e46)" d="M 545.615485 38.084008 
L 545.615485 27.622149 
" style="fill:none;stroke:#4c72b0;stroke-linecap:round;stroke-width:1.8;"/>
   </g>
   <g id="line2d_34">
    <path clip-path="url(#pa0441c3e46)" d="M 545.615485 38.084008 
L 545.615485 38.084008 
" style="fill:none;stroke:#4c72b0;stroke-linecap:round;stroke-width:1.8;"/>
   </g>
   <g id="line2d_35">
    <path clip-path="url(#pa0441c3e46)" d="M 545.615485 27.622149 
L 545.615485 27.622149 
" style="fill:none;stroke:#4c72b0;stroke-linecap:round;stroke-width:1.8;"/>
   </g>
   <g id="line2d_36">
    <path clip-path="url(#pa0441c3e46)" d="M 649.781118 60.408913 
L 649.781118 45.977473 
" style="fill:none;stroke:#4c72b0;stroke-linecap:round;stroke-width:1.8;"/>
   </g>
   <g id="line2d_37">
    <path clip-path="url(#pa0441c3e46)" d="M 649.781118 60.408913 
L 649.781118 60.408913 
" style="fill:none;stroke:#4c72b0;stroke-linecap:round;stroke-width:1.8;"/>
   </g>
   <g id="line2d_38">
    <path clip-path="url(#pa0441c3e46)" d="M 649.781118 45.977473 
L 649.781118 45.977473 
" style="fill:none;stroke:#4c72b0;stroke-linecap:round;stroke-width:1.8;"/>
   </g>
   <g id="line2d_39">
    <path clip-path="url(#pa0441c3e46)" d="M 753.946751 78.70776 
L 753.946751 63.448942 
" style="fill:none;stroke:#4c72b0;stroke-linecap:round;stroke-width:1.8;"/>
   </g>
   <g id="line2d_40">
    <path clip-path="url(#pa0441c3e46)" d="M 753.946751 78.70776 
L 753.946751 78.70776 
" style="fill:none;stroke:#4c72b0;stroke-linecap:round;stroke-width:1.8;"/>
   </g>
   <g id="line2d_41">
    <path clip-path="url(#pa0441c3e46)" d="M 753.946751 63.448942 
L 753.946751 63.448942 
" style="fill:none;stroke:#4c72b0;stroke-linecap:round;stroke-width:1.8;"/>
   </g>
   <g id="line2d_42">
    <path clip-path="url(#pa0441c3e46)" d="M 858.112384 109.275137 
L 858.112384 95.258054 
" style="fill:none;stroke:#4c72b0;stroke-linecap:round;stroke-width:1.8;"/>
   </g>
   <g id="line2d_43">
    <path clip-path="url(#pa0441c3e46)" d="M 858.112384 109.275137 
L 858.112384 109.275137 
" style="fill:none;stroke:#4c72b0;stroke-linecap:round;stroke-width:1.8;"/>
   </g>
   <g id="line2d_44">
    <path clip-path="url(#pa0441c3e46)" d="M 858.112384 95.258054 
L 858.112384 95.258054 
" style="fill:none;stroke:#4c72b0;stroke-linecap:round;stroke-width:1.8;"/>
   </g>
   <g id="PathCollection_2">
    <defs>
     <path d="M -3.383948 3.383948 
L 3.383948 -3.383948 
M -3.383948 -3.383948 
L 3.383948 3.383948 
" id="m4f49f1df91" style="stroke:#dd8452;stroke-width:2.025;"/>
    </defs>
    <g clip-path="url(#pa0441c3e46)">
     <use style="fill:#dd8452;stroke:#dd8452;stroke-width:2.025;" x="545.615485" xlink:href="#m4f49f1df91" y="40.809906"/>
     <use style="fill:#dd8452;stroke:#dd8452;stroke-width:2.025;" x="649.781118" xlink:href="#m4f49f1df91" y="43.569645"/>
     <use style="fill:#dd8452;stroke:#dd8452;stroke-width:2.025;" x="753.946751" xlink:href="#m4f49f1df91" y="60.730034"/>
     <use style="fill:#dd8452;stroke:#dd8452;stroke-width:2.025;" x="858.112384" xlink:href="#m4f49f1df91" y="85.338172"/>
    </g>
   </g>
   <g id="line2d_45">
    <path clip-path="url(#pa0441c3e46)" d="M 545.615485 44.712874 
L 545.615485 36.906938 
" style="fill:none;stroke:#dd8452;stroke-linecap:round;stroke-width:1.8;"/>
   </g>
   <g id="line2d_46">
    <path clip-path="url(#pa0441c3e46)" d="M 545.615485 44.712874 
L 545.615485 44.712874 
" style="fill:none;stroke:#dd8452;stroke-linecap:round;stroke-width:1.8;"/>
   </g>
   <g id="line2d_47">
    <path clip-path="url(#pa0441c3e46)" d="M 545.615485 36.906938 
L 545.615485 36.906938 
" style="fill:none;stroke:#dd8452;stroke-linecap:round;stroke-width:1.8;"/>
   </g>
   <g id="line2d_48">
    <path clip-path="url(#pa0441c3e46)" d="M 649.781118 47.558941 
L 649.781118 39.580349 
" style="fill:none;stroke:#dd8452;stroke-linecap:round;stroke-width:1.8;"/>
   </g>
   <g id="line2d_49">
    <path clip-path="url(#pa0441c3e46)" d="M 649.781118 47.558941 
L 649.781118 47.558941 
" style="fill:none;stroke:#dd8452;stroke-linecap:round;stroke-width:1.8;"/>
   </g>
   <g id="line2d_50">
    <path clip-path="url(#pa0441c3e46)" d="M 649.781118 39.580349 
L 649.781118 39.580349 
" style="fill:none;stroke:#dd8452;stroke-linecap:round;stroke-width:1.8;"/>
   </g>
   <g id="line2d_51">
    <path clip-path="url(#pa0441c3e46)" d="M 753.946751 65.119839 
L 753.946751 56.340229 
" style="fill:none;stroke:#dd8452;stroke-linecap:round;stroke-width:1.8;"/>
   </g>
   <g id="line2d_52">
    <path clip-path="url(#pa0441c3e46)" d="M 753.946751 65.119839 
L 753.946751 65.119839 
" style="fill:none;stroke:#dd8452;stroke-linecap:round;stroke-width:1.8;"/>
   </g>
   <g id="line2d_53">
    <path clip-path="url(#pa0441c3e46)" d="M 753.946751 56.340229 
L 753.946751 56.340229 
" style="fill:none;stroke:#dd8452;stroke-linecap:round;stroke-width:1.8;"/>
   </g>
   <g id="line2d_54">
    <path clip-path="url(#pa0441c3e46)" d="M 858.112384 91.80144 
L 858.112384 78.874904 
" style="fill:none;stroke:#dd8452;stroke-linecap:round;stroke-width:1.8;"/>
   </g>
   <g id="line2d_55">
    <path clip-path="url(#pa0441c3e46)" d="M 858.112384 91.80144 
L 858.112384 91.80144 
" style="fill:none;stroke:#dd8452;stroke-linecap:round;stroke-width:1.8;"/>
   </g>
   <g id="line2d_56">
    <path clip-path="url(#pa0441c3e46)" d="M 858.112384 78.874904 
L 858.112384 78.874904 
" style="fill:none;stroke:#dd8452;stroke-linecap:round;stroke-width:1.8;"/>
   </g>
   <g id="patch_9">
    <path d="M 493.532669 163.6552 
L 493.532669 15.4048 
" style="fill:none;stroke:#cccccc;stroke-linecap:square;stroke-linejoin:miter;"/>
   </g>
   <g id="patch_10">
    <path d="M 910.1952 163.6552 
L 910.1952 15.4048 
" style="fill:none;stroke:#cccccc;stroke-linecap:square;stroke-linejoin:miter;"/>
   </g>
   <g id="patch_11">
    <path d="M 493.532669 163.6552 
L 910.1952 163.6552 
" style="fill:none;stroke:#cccccc;stroke-linecap:square;stroke-linejoin:miter;"/>
   </g>
   <g id="patch_12">
    <path d="M 493.532669 15.4048 
L 910.1952 15.4048 
" style="fill:none;stroke:#cccccc;stroke-linecap:square;stroke-linejoin:miter;"/>
   </g>
   <g id="PathCollection_3">
    <defs>
     <path d="M -0 4.785625 
L 4.785625 0 
L 0 -4.785625 
L -4.785625 -0 
z
" id="m33a2b68680" style="stroke:#55a868;stroke-width:2.025;"/>
    </defs>
    <g clip-path="url(#pa0441c3e46)">
     <use style="fill:#55a868;stroke:#55a868;stroke-width:2.025;" x="545.615485" xlink:href="#m33a2b68680" y="141.922131"/>
     <use style="fill:#55a868;stroke:#55a868;stroke-width:2.025;" x="649.781118" xlink:href="#m33a2b68680" y="141.475697"/>
     <use style="fill:#55a868;stroke:#55a868;stroke-width:2.025;" x="753.946751" xlink:href="#m33a2b68680" y="133.31853"/>
     <use style="fill:#55a868;stroke:#55a868;stroke-width:2.025;" x="858.112384" xlink:href="#m33a2b68680" y="134.787404"/>
    </g>
   </g>
   <g id="line2d_57">
    <path clip-path="url(#pa0441c3e46)" d="M 545.615485 152.475654 
L 545.615485 131.368608 
" style="fill:none;stroke:#55a868;stroke-linecap:round;stroke-width:1.8;"/>
   </g>
   <g id="line2d_58">
    <path clip-path="url(#pa0441c3e46)" d="M 545.615485 152.475654 
L 545.615485 152.475654 
" style="fill:none;stroke:#55a868;stroke-linecap:round;stroke-width:1.8;"/>
   </g>
   <g id="line2d_59">
    <path clip-path="url(#pa0441c3e46)" d="M 545.615485 131.368608 
L 545.615485 131.368608 
" style="fill:none;stroke:#55a868;stroke-linecap:round;stroke-width:1.8;"/>
   </g>
   <g id="line2d_60">
    <path clip-path="url(#pa0441c3e46)" d="M 649.781118 153.414749 
L 649.781118 129.536645 
" style="fill:none;stroke:#55a868;stroke-linecap:round;stroke-width:1.8;"/>
   </g>
   <g id="line2d_61">
    <path clip-path="url(#pa0441c3e46)" d="M 649.781118 153.414749 
L 649.781118 153.414749 
" style="fill:none;stroke:#55a868;stroke-linecap:round;stroke-width:1.8;"/>
   </g>
   <g id="line2d_62">
    <path clip-path="url(#pa0441c3e46)" d="M 649.781118 129.536645 
L 649.781118 129.536645 
" style="fill:none;stroke:#55a868;stroke-linecap:round;stroke-width:1.8;"/>
   </g>
   <g id="line2d_63">
    <path clip-path="url(#pa0441c3e46)" d="M 753.946751 137.962427 
L 753.946751 128.674633 
" style="fill:none;stroke:#55a868;stroke-linecap:round;stroke-width:1.8;"/>
   </g>
   <g id="line2d_64">
    <path clip-path="url(#pa0441c3e46)" d="M 753.946751 137.962427 
L 753.946751 137.962427 
" style="fill:none;stroke:#55a868;stroke-linecap:round;stroke-width:1.8;"/>
   </g>
   <g id="line2d_65">
    <path clip-path="url(#pa0441c3e46)" d="M 753.946751 128.674633 
L 753.946751 128.674633 
" style="fill:none;stroke:#55a868;stroke-linecap:round;stroke-width:1.8;"/>
   </g>
   <g id="line2d_66">
    <path clip-path="url(#pa0441c3e46)" d="M 858.112384 142.603064 
L 858.112384 126.971744 
" style="fill:none;stroke:#55a868;stroke-linecap:round;stroke-width:1.8;"/>
   </g>
   <g id="line2d_67">
    <path clip-path="url(#pa0441c3e46)" d="M 858.112384 142.603064 
L 858.112384 142.603064 
" style="fill:none;stroke:#55a868;stroke-linecap:round;stroke-width:1.8;"/>
   </g>
   <g id="line2d_68">
    <path clip-path="url(#pa0441c3e46)" d="M 858.112384 126.971744 
L 858.112384 126.971744 
" style="fill:none;stroke:#55a868;stroke-linecap:round;stroke-width:1.8;"/>
   </g>
   <g id="legend_2">
    <g id="patch_13">
     <path d="M 500.308669 119.824688 
L 571.356844 119.824688 
Q 573.292844 119.824688 573.292844 117.888688 
L 573.292844 61.171313 
Q 573.292844 59.235313 571.356844 59.235313 
L 500.308669 59.235313 
Q 498.372669 59.235313 498.372669 61.171313 
L 498.372669 117.888688 
Q 498.372669 119.824688 500.308669 119.824688 
z
" style="fill:#ffffff;opacity:0.8;stroke:#cccccc;stroke-linejoin:miter;stroke-width:0.8;"/>
    </g>
    <g id="text_26">
     <!-- Model -->
     <g style="fill:#262626;" transform="translate(519.978731 71.131263)scale(0.1056 -0.1056)">
      <use xlink:href="#DejaVuSans-4d"/>
      <use x="86.279297" xlink:href="#DejaVuSans-6f"/>
      <use x="147.460938" xlink:href="#DejaVuSans-64"/>
      <use x="210.9375" xlink:href="#DejaVuSans-65"/>
      <use x="272.460938" xlink:href="#DejaVuSans-6c"/>
     </g>
    </g>
    <g id="PathCollection_4">
     <g>
      <use style="fill:#4c72b0;stroke:#4c72b0;stroke-width:2.025;" x="511.924669" xlink:href="#maed40849b4" y="82.9817"/>
     </g>
    </g>
    <g id="text_27">
     <!-- A2C -->
     <g style="fill:#262626;" transform="translate(529.348669 85.5227)scale(0.0968 -0.0968)">
      <use xlink:href="#DejaVuSans-41"/>
      <use x="68.408203" xlink:href="#DejaVuSans-32"/>
      <use x="132.03125" xlink:href="#DejaVuSans-43"/>
     </g>
    </g>
    <g id="PathCollection_5">
     <g>
      <use style="fill:#dd8452;stroke:#dd8452;stroke-width:2.025;" x="511.924669" xlink:href="#m4f49f1df91" y="97.190125"/>
     </g>
    </g>
    <g id="text_28">
     <!-- PPO -->
     <g style="fill:#262626;" transform="translate(529.348669 99.731125)scale(0.0968 -0.0968)">
      <use xlink:href="#DejaVuSans-50"/>
      <use x="60.302734" xlink:href="#DejaVuSans-50"/>
      <use x="120.605469" xlink:href="#DejaVuSans-4f"/>
     </g>
    </g>
    <g id="PathCollection_6">
     <g>
      <use style="fill:#55a868;stroke:#55a868;stroke-width:2.025;" x="511.924669" xlink:href="#m33a2b68680" y="111.39855"/>
     </g>
    </g>
    <g id="text_29">
     <!-- Random -->
     <g style="fill:#262626;" transform="translate(529.348669 113.93955)scale(0.0968 -0.0968)">
      <use xlink:href="#DejaVuSans-52"/>
      <use x="67.232422" xlink:href="#DejaVuSans-61"/>
      <use x="128.511719" xlink:href="#DejaVuSans-6e"/>
      <use x="191.890625" xlink:href="#DejaVuSans-64"/>
      <use x="255.367188" xlink:href="#DejaVuSans-6f"/>
      <use x="316.548828" xlink:href="#DejaVuSans-6d"/>
     </g>
    </g>
   </g>
  </g>
 </g>
 <defs>
  <clipPath id="p4544ed2c14">
   <rect height="148.2504" width="416.662531" x="48.9548" y="15.4048"/>
  </clipPath>
  <clipPath id="pa0441c3e46">
   <rect height="148.2504" width="416.662531" x="493.532669" y="15.4048"/>
  </clipPath>
 </defs>
</svg>
