<?xml version="1.0" encoding="utf-8" standalone="no"?>
<!DOCTYPE svg PUBLIC "-//W3C//DTD SVG 1.1//EN"
  "http://www.w3.org/Graphics/SVG/1.1/DTD/svg11.dtd">
<svg height="207.36pt" version="1.1" viewBox="0 0 921.6 207.36" width="921.6pt" xmlns="http://www.w3.org/2000/svg" xmlns:xlink="http://www.w3.org/1999/xlink">
 <metadata>
  <rdf:RDF xmlns:cc="http://creativecommons.org/ns#" xmlns:dc="http://purl.org/dc/elements/1.1/" xmlns:rdf="http://www.w3.org/1999/02/22-rdf-syntax-ns#">
   <cc:Work>
    <dc:type rdf:resource="http://purl.org/dc/dcmitype/StillImage"/>
    <dc:date>2022-03-29T11:35:25.992342</dc:date>
    <dc:format>image/svg+xml</dc:format>
    <dc:creator>
     <cc:Agent>
      <dc:title>Matplotlib v3.4.3, https://matplotlib.org/</dc:title>
     </cc:Agent>
    </dc:creator>
   </cc:Work>
  </rdf:RDF>
 </metadata>
 <defs>
  <style type="text/css">*{stroke-linecap:butt;stroke-linejoin:round;}</style>
 </defs>
 <g id="figure_1">
  <g id="patch_1">
   <path d="M 0 207.36 
L 921.6 207.36 
L 921.6 0 
L 0 0 
z
" style="fill:#ffffff;"/>
  </g>
  <g id="axes_1">
   <g id="patch_2">
    <path d="M 58.1718 155.0632 
L 464.352581 155.0632 
L 464.352581 18.9968 
L 58.1718 18.9968 
z
" style="fill:#ffffff;"/>
   </g>
   <g id="matplotlib.axis_1">
    <g id="xtick_1">
     <g id="line2d_1">
      <path clip-path="url(#pc0ebf0fc35)" d="M 72.788154 155.0632 
L 72.788154 18.9968 
" style="fill:none;stroke:#cccccc;stroke-linecap:round;stroke-width:0.8;"/>
     </g>
     <g id="text_1">
      <!-- 0 -->
      <g style="fill:#262626;" transform="translate(69.008829 172.390144)scale(0.1188 -0.1188)">
       <defs>
        <path d="M 2034 4250 
Q 1547 4250 1301 3770 
Q 1056 3291 1056 2328 
Q 1056 1369 1301 889 
Q 1547 409 2034 409 
Q 2525 409 2770 889 
Q 3016 1369 3016 2328 
Q 3016 3291 2770 3770 
Q 2525 4250 2034 4250 
z
M 2034 4750 
Q 2819 4750 3233 4129 
Q 3647 3509 3647 2328 
Q 3647 1150 3233 529 
Q 2819 -91 2034 -91 
Q 1250 -91 836 529 
Q 422 1150 422 2328 
Q 422 3509 836 4129 
Q 1250 4750 2034 4750 
z
" id="DejaVuSans-30" transform="scale(0.015625)"/>
       </defs>
       <use xlink:href="#DejaVuSans-30"/>
      </g>
     </g>
    </g>
    <g id="xtick_2">
     <g id="line2d_2">
      <path clip-path="url(#pc0ebf0fc35)" d="M 147.913328 155.0632 
L 147.913328 18.9968 
" style="fill:none;stroke:#cccccc;stroke-linecap:round;stroke-width:0.8;"/>
     </g>
     <g id="text_2">
      <!-- 5000 -->
      <g style="fill:#262626;" transform="translate(132.796028 172.390144)scale(0.1188 -0.1188)">
       <defs>
        <path d="M 691 4666 
L 3169 4666 
L 3169 4134 
L 1269 4134 
L 1269 2991 
Q 1406 3038 1543 3061 
Q 1681 3084 1819 3084 
Q 2600 3084 3056 2656 
Q 3513 2228 3513 1497 
Q 3513 744 3044 326 
Q 2575 -91 1722 -91 
Q 1428 -91 1123 -41 
Q 819 9 494 109 
L 494 744 
Q 775 591 1075 516 
Q 1375 441 1709 441 
Q 2250 441 2565 725 
Q 2881 1009 2881 1497 
Q 2881 1984 2565 2268 
Q 2250 2553 1709 2553 
Q 1456 2553 1204 2497 
Q 953 2441 691 2322 
L 691 4666 
z
" id="DejaVuSans-35" transform="scale(0.015625)"/>
       </defs>
       <use xlink:href="#DejaVuSans-35"/>
       <use x="63.623047" xlink:href="#DejaVuSans-30"/>
       <use x="127.246094" xlink:href="#DejaVuSans-30"/>
       <use x="190.869141" xlink:href="#DejaVuSans-30"/>
      </g>
     </g>
    </g>
    <g id="xtick_3">
     <g id="line2d_3">
      <path clip-path="url(#pc0ebf0fc35)" d="M 223.038502 155.0632 
L 223.038502 18.9968 
" style="fill:none;stroke:#cccccc;stroke-linecap:round;stroke-width:0.8;"/>
     </g>
     <g id="text_3">
      <!-- 10000 -->
      <g style="fill:#262626;" transform="translate(204.141877 172.390144)scale(0.1188 -0.1188)">
       <defs>
        <path d="M 794 531 
L 1825 531 
L 1825 4091 
L 703 3866 
L 703 4441 
L 1819 4666 
L 2450 4666 
L 2450 531 
L 3481 531 
L 3481 0 
L 794 0 
L 794 531 
z
" id="DejaVuSans-31" transform="scale(0.015625)"/>
       </defs>
       <use xlink:href="#DejaVuSans-31"/>
       <use x="63.623047" xlink:href="#DejaVuSans-30"/>
       <use x="127.246094" xlink:href="#DejaVuSans-30"/>
       <use x="190.869141" xlink:href="#DejaVuSans-30"/>
       <use x="254.492188" xlink:href="#DejaVuSans-30"/>
      </g>
     </g>
    </g>
    <g id="xtick_4">
     <g id="line2d_4">
      <path clip-path="url(#pc0ebf0fc35)" d="M 298.163676 155.0632 
L 298.163676 18.9968 
" style="fill:none;stroke:#cccccc;stroke-linecap:round;stroke-width:0.8;"/>
     </g>
     <g id="text_4">
      <!-- 15000 -->
      <g style="fill:#262626;" transform="translate(279.267051 172.390144)scale(0.1188 -0.1188)">
       <use xlink:href="#DejaVuSans-31"/>
       <use x="63.623047" xlink:href="#DejaVuSans-35"/>
       <use x="127.246094" xlink:href="#DejaVuSans-30"/>
       <use x="190.869141" xlink:href="#DejaVuSans-30"/>
       <use x="254.492188" xlink:href="#DejaVuSans-30"/>
      </g>
     </g>
    </g>
    <g id="xtick_5">
     <g id="line2d_5">
      <path clip-path="url(#pc0ebf0fc35)" d="M 373.28885 155.0632 
L 373.28885 18.9968 
" style="fill:none;stroke:#cccccc;stroke-linecap:round;stroke-width:0.8;"/>
     </g>
     <g id="text_5">
      <!-- 20000 -->
      <g style="fill:#262626;" transform="translate(354.392225 172.390144)scale(0.1188 -0.1188)">
       <defs>
        <path d="M 1228 531 
L 3431 531 
L 3431 0 
L 469 0 
L 469 531 
Q 828 903 1448 1529 
Q 2069 2156 2228 2338 
Q 2531 2678 2651 2914 
Q 2772 3150 2772 3378 
Q 2772 3750 2511 3984 
Q 2250 4219 1831 4219 
Q 1534 4219 1204 4116 
Q 875 4013 500 3803 
L 500 4441 
Q 881 4594 1212 4672 
Q 1544 4750 1819 4750 
Q 2544 4750 2975 4387 
Q 3406 4025 3406 3419 
Q 3406 3131 3298 2873 
Q 3191 2616 2906 2266 
Q 2828 2175 2409 1742 
Q 1991 1309 1228 531 
z
" id="DejaVuSans-32" transform="scale(0.015625)"/>
       </defs>
       <use xlink:href="#DejaVuSans-32"/>
       <use x="63.623047" xlink:href="#DejaVuSans-30"/>
       <use x="127.246094" xlink:href="#DejaVuSans-30"/>
       <use x="190.869141" xlink:href="#DejaVuSans-30"/>
       <use x="254.492188" xlink:href="#DejaVuSans-30"/>
      </g>
     </g>
    </g>
    <g id="xtick_6">
     <g id="line2d_6">
      <path clip-path="url(#pc0ebf0fc35)" d="M 448.414024 155.0632 
L 448.414024 18.9968 
" style="fill:none;stroke:#cccccc;stroke-linecap:round;stroke-width:0.8;"/>
     </g>
     <g id="text_6">
      <!-- 25000 -->
      <g style="fill:#262626;" transform="translate(429.517399 172.390144)scale(0.1188 -0.1188)">
       <use xlink:href="#DejaVuSans-32"/>
       <use x="63.623047" xlink:href="#DejaVuSans-35"/>
       <use x="127.246094" xlink:href="#DejaVuSans-30"/>
       <use x="190.869141" xlink:href="#DejaVuSans-30"/>
       <use x="254.492188" xlink:href="#DejaVuSans-30"/>
      </g>
     </g>
    </g>
    <g id="text_7">
     <!-- Episode -->
     <g style="fill:#262626;" transform="translate(235.811991 188.708387)scale(0.1296 -0.1296)">
      <defs>
       <path d="M 628 4666 
L 3578 4666 
L 3578 4134 
L 1259 4134 
L 1259 2753 
L 3481 2753 
L 3481 2222 
L 1259 2222 
L 1259 531 
L 3634 531 
L 3634 0 
L 628 0 
L 628 4666 
z
" id="DejaVuSans-45" transform="scale(0.015625)"/>
       <path d="M 1159 525 
L 1159 -1331 
L 581 -1331 
L 581 3500 
L 1159 3500 
L 1159 2969 
Q 1341 3281 1617 3432 
Q 1894 3584 2278 3584 
Q 2916 3584 3314 3078 
Q 3713 2572 3713 1747 
Q 3713 922 3314 415 
Q 2916 -91 2278 -91 
Q 1894 -91 1617 61 
Q 1341 213 1159 525 
z
M 3116 1747 
Q 3116 2381 2855 2742 
Q 2594 3103 2138 3103 
Q 1681 3103 1420 2742 
Q 1159 2381 1159 1747 
Q 1159 1113 1420 752 
Q 1681 391 2138 391 
Q 2594 391 2855 752 
Q 3116 1113 3116 1747 
z
" id="DejaVuSans-70" transform="scale(0.015625)"/>
       <path d="M 603 3500 
L 1178 3500 
L 1178 0 
L 603 0 
L 603 3500 
z
M 603 4863 
L 1178 4863 
L 1178 4134 
L 603 4134 
L 603 4863 
z
" id="DejaVuSans-69" transform="scale(0.015625)"/>
       <path d="M 2834 3397 
L 2834 2853 
Q 2591 2978 2328 3040 
Q 2066 3103 1784 3103 
Q 1356 3103 1142 2972 
Q 928 2841 928 2578 
Q 928 2378 1081 2264 
Q 1234 2150 1697 2047 
L 1894 2003 
Q 2506 1872 2764 1633 
Q 3022 1394 3022 966 
Q 3022 478 2636 193 
Q 2250 -91 1575 -91 
Q 1294 -91 989 -36 
Q 684 19 347 128 
L 347 722 
Q 666 556 975 473 
Q 1284 391 1588 391 
Q 1994 391 2212 530 
Q 2431 669 2431 922 
Q 2431 1156 2273 1281 
Q 2116 1406 1581 1522 
L 1381 1569 
Q 847 1681 609 1914 
Q 372 2147 372 2553 
Q 372 3047 722 3315 
Q 1072 3584 1716 3584 
Q 2034 3584 2315 3537 
Q 2597 3491 2834 3397 
z
" id="DejaVuSans-73" transform="scale(0.015625)"/>
       <path d="M 1959 3097 
Q 1497 3097 1228 2736 
Q 959 2375 959 1747 
Q 959 1119 1226 758 
Q 1494 397 1959 397 
Q 2419 397 2687 759 
Q 2956 1122 2956 1747 
Q 2956 2369 2687 2733 
Q 2419 3097 1959 3097 
z
M 1959 3584 
Q 2709 3584 3137 3096 
Q 3566 2609 3566 1747 
Q 3566 888 3137 398 
Q 2709 -91 1959 -91 
Q 1206 -91 779 398 
Q 353 888 353 1747 
Q 353 2609 779 3096 
Q 1206 3584 1959 3584 
z
" id="DejaVuSans-6f" transform="scale(0.015625)"/>
       <path d="M 2906 2969 
L 2906 4863 
L 3481 4863 
L 3481 0 
L 2906 0 
L 2906 525 
Q 2725 213 2448 61 
Q 2172 -91 1784 -91 
Q 1150 -91 751 415 
Q 353 922 353 1747 
Q 353 2572 751 3078 
Q 1150 3584 1784 3584 
Q 2172 3584 2448 3432 
Q 2725 3281 2906 2969 
z
M 947 1747 
Q 947 1113 1208 752 
Q 1469 391 1925 391 
Q 2381 391 2643 752 
Q 2906 1113 2906 1747 
Q 2906 2381 2643 2742 
Q 2381 3103 1925 3103 
Q 1469 3103 1208 2742 
Q 947 2381 947 1747 
z
" id="DejaVuSans-64" transform="scale(0.015625)"/>
       <path d="M 3597 1894 
L 3597 1613 
L 953 1613 
Q 991 1019 1311 708 
Q 1631 397 2203 397 
Q 2534 397 2845 478 
Q 3156 559 3463 722 
L 3463 178 
Q 3153 47 2828 -22 
Q 2503 -91 2169 -91 
Q 1331 -91 842 396 
Q 353 884 353 1716 
Q 353 2575 817 3079 
Q 1281 3584 2069 3584 
Q 2775 3584 3186 3129 
Q 3597 2675 3597 1894 
z
M 3022 2063 
Q 3016 2534 2758 2815 
Q 2500 3097 2075 3097 
Q 1594 3097 1305 2825 
Q 1016 2553 972 2059 
L 3022 2063 
z
" id="DejaVuSans-65" transform="scale(0.015625)"/>
      </defs>
      <use xlink:href="#DejaVuSans-45"/>
      <use x="63.183594" xlink:href="#DejaVuSans-70"/>
      <use x="126.660156" xlink:href="#DejaVuSans-69"/>
      <use x="154.443359" xlink:href="#DejaVuSans-73"/>
      <use x="206.542969" xlink:href="#DejaVuSans-6f"/>
      <use x="267.724609" xlink:href="#DejaVuSans-64"/>
      <use x="331.201172" xlink:href="#DejaVuSans-65"/>
     </g>
    </g>
   </g>
   <g id="matplotlib.axis_2">
    <g id="ytick_1">
     <g id="line2d_7">
      <path clip-path="url(#pc0ebf0fc35)" d="M 58.1718 146.55905 
L 464.352581 146.55905 
" style="fill:none;stroke:#cccccc;stroke-linecap:round;stroke-width:0.8;"/>
     </g>
     <g id="text_8">
      <!-- 1.5 -->
      <g style="fill:#262626;" transform="translate(30.978888 151.072522)scale(0.1188 -0.1188)">
       <defs>
        <path d="M 684 794 
L 1344 794 
L 1344 0 
L 684 0 
L 684 794 
z
" id="DejaVuSans-2e" transform="scale(0.015625)"/>
       </defs>
       <use xlink:href="#DejaVuSans-31"/>
       <use x="63.623047" xlink:href="#DejaVuSans-2e"/>
       <use x="95.410156" xlink:href="#DejaVuSans-35"/>
      </g>
     </g>
    </g>
    <g id="ytick_2">
     <g id="line2d_8">
      <path clip-path="url(#pc0ebf0fc35)" d="M 58.1718 104.0383 
L 464.352581 104.0383 
" style="fill:none;stroke:#cccccc;stroke-linecap:round;stroke-width:0.8;"/>
     </g>
     <g id="text_9">
      <!-- 2.0 -->
      <g style="fill:#262626;" transform="translate(30.978888 108.551772)scale(0.1188 -0.1188)">
       <use xlink:href="#DejaVuSans-32"/>
       <use x="63.623047" xlink:href="#DejaVuSans-2e"/>
       <use x="95.410156" xlink:href="#DejaVuSans-30"/>
      </g>
     </g>
    </g>
    <g id="ytick_3">
     <g id="line2d_9">
      <path clip-path="url(#pc0ebf0fc35)" d="M 58.1718 61.51755 
L 464.352581 61.51755 
" style="fill:none;stroke:#cccccc;stroke-linecap:round;stroke-width:0.8;"/>
     </g>
     <g id="text_10">
      <!-- 2.5 -->
      <g style="fill:#262626;" transform="translate(30.978888 66.031022)scale(0.1188 -0.1188)">
       <use xlink:href="#DejaVuSans-32"/>
       <use x="63.623047" xlink:href="#DejaVuSans-2e"/>
       <use x="95.410156" xlink:href="#DejaVuSans-35"/>
      </g>
     </g>
    </g>
    <g id="ytick_4">
     <g id="line2d_10">
      <path clip-path="url(#pc0ebf0fc35)" d="M 58.1718 18.9968 
L 464.352581 18.9968 
" style="fill:none;stroke:#cccccc;stroke-linecap:round;stroke-width:0.8;"/>
     </g>
     <g id="text_11">
      <!-- 3.0 -->
      <g style="fill:#262626;" transform="translate(30.978888 23.510272)scale(0.1188 -0.1188)">
       <defs>
        <path d="M 2597 2516 
Q 3050 2419 3304 2112 
Q 3559 1806 3559 1356 
Q 3559 666 3084 287 
Q 2609 -91 1734 -91 
Q 1441 -91 1130 -33 
Q 819 25 488 141 
L 488 750 
Q 750 597 1062 519 
Q 1375 441 1716 441 
Q 2309 441 2620 675 
Q 2931 909 2931 1356 
Q 2931 1769 2642 2001 
Q 2353 2234 1838 2234 
L 1294 2234 
L 1294 2753 
L 1863 2753 
Q 2328 2753 2575 2939 
Q 2822 3125 2822 3475 
Q 2822 3834 2567 4026 
Q 2313 4219 1838 4219 
Q 1578 4219 1281 4162 
Q 984 4106 628 3988 
L 628 4550 
Q 988 4650 1302 4700 
Q 1616 4750 1894 4750 
Q 2613 4750 3031 4423 
Q 3450 4097 3450 3541 
Q 3450 3153 3228 2886 
Q 3006 2619 2597 2516 
z
" id="DejaVuSans-33" transform="scale(0.015625)"/>
       </defs>
       <use xlink:href="#DejaVuSans-33"/>
       <use x="63.623047" xlink:href="#DejaVuSans-2e"/>
       <use x="95.410156" xlink:href="#DejaVuSans-30"/>
      </g>
     </g>
    </g>
    <g id="text_12">
     <!-- Proficiency -->
     <g style="fill:#262626;" transform="translate(24.283613 122.243738)rotate(-90)scale(0.1296 -0.1296)">
      <defs>
       <path d="M 1259 4147 
L 1259 2394 
L 2053 2394 
Q 2494 2394 2734 2622 
Q 2975 2850 2975 3272 
Q 2975 3691 2734 3919 
Q 2494 4147 2053 4147 
L 1259 4147 
z
M 628 4666 
L 2053 4666 
Q 2838 4666 3239 4311 
Q 3641 3956 3641 3272 
Q 3641 2581 3239 2228 
Q 2838 1875 2053 1875 
L 1259 1875 
L 1259 0 
L 628 0 
L 628 4666 
z
" id="DejaVuSans-50" transform="scale(0.015625)"/>
       <path d="M 2631 2963 
Q 2534 3019 2420 3045 
Q 2306 3072 2169 3072 
Q 1681 3072 1420 2755 
Q 1159 2438 1159 1844 
L 1159 0 
L 581 0 
L 581 3500 
L 1159 3500 
L 1159 2956 
Q 1341 3275 1631 3429 
Q 1922 3584 2338 3584 
Q 2397 3584 2469 3576 
Q 2541 3569 2628 3553 
L 2631 2963 
z
" id="DejaVuSans-72" transform="scale(0.015625)"/>
       <path d="M 2375 4863 
L 2375 4384 
L 1825 4384 
Q 1516 4384 1395 4259 
Q 1275 4134 1275 3809 
L 1275 3500 
L 2222 3500 
L 2222 3053 
L 1275 3053 
L 1275 0 
L 697 0 
L 697 3053 
L 147 3053 
L 147 3500 
L 697 3500 
L 697 3744 
Q 697 4328 969 4595 
Q 1241 4863 1831 4863 
L 2375 4863 
z
" id="DejaVuSans-66" transform="scale(0.015625)"/>
       <path d="M 3122 3366 
L 3122 2828 
Q 2878 2963 2633 3030 
Q 2388 3097 2138 3097 
Q 1578 3097 1268 2742 
Q 959 2388 959 1747 
Q 959 1106 1268 751 
Q 1578 397 2138 397 
Q 2388 397 2633 464 
Q 2878 531 3122 666 
L 3122 134 
Q 2881 22 2623 -34 
Q 2366 -91 2075 -91 
Q 1284 -91 818 406 
Q 353 903 353 1747 
Q 353 2603 823 3093 
Q 1294 3584 2113 3584 
Q 2378 3584 2631 3529 
Q 2884 3475 3122 3366 
z
" id="DejaVuSans-63" transform="scale(0.015625)"/>
       <path d="M 3513 2113 
L 3513 0 
L 2938 0 
L 2938 2094 
Q 2938 2591 2744 2837 
Q 2550 3084 2163 3084 
Q 1697 3084 1428 2787 
Q 1159 2491 1159 1978 
L 1159 0 
L 581 0 
L 581 3500 
L 1159 3500 
L 1159 2956 
Q 1366 3272 1645 3428 
Q 1925 3584 2291 3584 
Q 2894 3584 3203 3211 
Q 3513 2838 3513 2113 
z
" id="DejaVuSans-6e" transform="scale(0.015625)"/>
       <path d="M 2059 -325 
Q 1816 -950 1584 -1140 
Q 1353 -1331 966 -1331 
L 506 -1331 
L 506 -850 
L 844 -850 
Q 1081 -850 1212 -737 
Q 1344 -625 1503 -206 
L 1606 56 
L 191 3500 
L 800 3500 
L 1894 763 
L 2988 3500 
L 3597 3500 
L 2059 -325 
z
" id="DejaVuSans-79" transform="scale(0.015625)"/>
      </defs>
      <use xlink:href="#DejaVuSans-50"/>
      <use x="58.552734" xlink:href="#DejaVuSans-72"/>
      <use x="97.416016" xlink:href="#DejaVuSans-6f"/>
      <use x="158.597656" xlink:href="#DejaVuSans-66"/>
      <use x="193.802734" xlink:href="#DejaVuSans-69"/>
      <use x="221.585938" xlink:href="#DejaVuSans-63"/>
      <use x="276.566406" xlink:href="#DejaVuSans-69"/>
      <use x="304.349609" xlink:href="#DejaVuSans-65"/>
      <use x="365.873047" xlink:href="#DejaVuSans-6e"/>
      <use x="429.251953" xlink:href="#DejaVuSans-63"/>
      <use x="484.232422" xlink:href="#DejaVuSans-79"/>
     </g>
    </g>
   </g>
   <g id="PolyCollection_1">
    <defs>
     <path d="M 76.634563 -87.188054 
L 76.634563 -80.213545 
L 80.480972 -83.722321 
L 84.327381 -87.131588 
L 88.17379 -84.438267 
L 92.020198 -93.841885 
L 95.866607 -90.091694 
L 99.713016 -100.748773 
L 103.559425 -105.587789 
L 107.405834 -97.558292 
L 111.252243 -111.651017 
L 115.098652 -110.943637 
L 118.945061 -107.721232 
L 122.79147 -105.783666 
L 126.637879 -117.289524 
L 130.484288 -113.173174 
L 134.330697 -119.628619 
L 138.177105 -108.465124 
L 142.023514 -111.583476 
L 145.869923 -113.308429 
L 149.716332 -109.828307 
L 153.562741 -111.965732 
L 157.40915 -114.875038 
L 161.255559 -116.242596 
L 165.101968 -121.07231 
L 168.948377 -121.435819 
L 172.794786 -119.466457 
L 176.641195 -115.502442 
L 180.487603 -124.820232 
L 184.334012 -124.982297 
L 188.180421 -117.35444 
L 192.02683 -126.183568 
L 195.873239 -128.988333 
L 199.719648 -126.348214 
L 203.566057 -123.372553 
L 207.412466 -124.090133 
L 211.258875 -129.139768 
L 215.105284 -124.48167 
L 218.951693 -121.707109 
L 222.798102 -126.042377 
L 226.64451 -125.45872 
L 230.490919 -118.412164 
L 234.337328 -118.676804 
L 238.183737 -119.44289 
L 242.030146 -100.411849 
L 245.876555 -113.993887 
L 249.722964 -111.426629 
L 253.569373 -120.044053 
L 257.415782 -109.183183 
L 261.262191 -122.368299 
L 265.1086 -112.038461 
L 268.955009 -119.614814 
L 272.801417 -110.207565 
L 276.647826 -125.431094 
L 280.494235 -126.531277 
L 284.340644 -116.940924 
L 288.187053 -117.546111 
L 292.033462 -116.831081 
L 295.879871 -111.827279 
L 299.72628 -105.545136 
L 303.572689 -111.914959 
L 307.419098 -115.113396 
L 311.265507 -120.148172 
L 315.111916 -109.652584 
L 318.958324 -113.508361 
L 322.804733 -114.727845 
L 326.651142 -103.274312 
L 330.497551 -111.150412 
L 334.34396 -114.680626 
L 338.190369 -112.389896 
L 342.036778 -122.703381 
L 345.883187 -118.875684 
L 349.729596 -119.637096 
L 353.576005 -113.590353 
L 357.422414 -126.026239 
L 361.268822 -123.576771 
L 365.115231 -128.75243 
L 368.96164 -120.452642 
L 372.808049 -121.056571 
L 376.654458 -119.552558 
L 380.500867 -121.005461 
L 384.347276 -115.825403 
L 388.193685 -121.599429 
L 392.040094 -120.687192 
L 395.886503 -124.062808 
L 399.732912 -122.790651 
L 403.579321 -123.367664 
L 407.425729 -116.650011 
L 411.272138 -118.061626 
L 415.118547 -122.394738 
L 418.964956 -119.196597 
L 422.811365 -122.978817 
L 426.657774 -123.782389 
L 430.504183 -128.525618 
L 434.350592 -119.31758 
L 438.197001 -126.415046 
L 442.04341 -129.850815 
L 445.889819 -129.436292 
L 445.889819 -145.094098 
L 445.889819 -145.094098 
L 442.04341 -142.032008 
L 438.197001 -143.356253 
L 434.350592 -146.570677 
L 430.504183 -146.377747 
L 426.657774 -140.074901 
L 422.811365 -141.793953 
L 418.964956 -129.73975 
L 415.118547 -133.123466 
L 411.272138 -144.560019 
L 407.425729 -146.363235 
L 403.579321 -134.248005 
L 399.732912 -138.721749 
L 395.886503 -133.743301 
L 392.040094 -137.272787 
L 388.193685 -131.09004 
L 384.347276 -135.232059 
L 380.500867 -141.72447 
L 376.654458 -143.521528 
L 372.808049 -136.750935 
L 368.96164 -146.23794 
L 365.115231 -138.091995 
L 361.268822 -135.324762 
L 357.422414 -138.726554 
L 353.576005 -134.54133 
L 349.729596 -145.68637 
L 345.883187 -135.005572 
L 342.036778 -137.79307 
L 338.190369 -134.817459 
L 334.34396 -129.951257 
L 330.497551 -133.050159 
L 326.651142 -141.127302 
L 322.804733 -129.4513 
L 318.958324 -128.517422 
L 315.111916 -126.255098 
L 311.265507 -126.825771 
L 307.419098 -142.874688 
L 303.572689 -137.27756 
L 299.72628 -136.854594 
L 295.879871 -149.005631 
L 292.033462 -144.662187 
L 288.187053 -135.984146 
L 284.340644 -141.708807 
L 280.494235 -137.033035 
L 276.647826 -137.455829 
L 272.801417 -137.893013 
L 268.955009 -128.16012 
L 265.1086 -131.404964 
L 261.262191 -139.373966 
L 257.415782 -130.125155 
L 253.569373 -128.829089 
L 249.722964 -132.157613 
L 245.876555 -141.690418 
L 242.030146 -137.764186 
L 238.183737 -147.217152 
L 234.337328 -146.60109 
L 230.490919 -135.289015 
L 226.64451 -144.226329 
L 222.798102 -135.568705 
L 218.951693 -140.410996 
L 215.105284 -142.970694 
L 211.258875 -151.142388 
L 207.412466 -149.453438 
L 203.566057 -146.356176 
L 199.719648 -143.490454 
L 195.873239 -142.084754 
L 192.02683 -139.754703 
L 188.180421 -137.710608 
L 184.334012 -134.656154 
L 180.487603 -134.818602 
L 176.641195 -131.60415 
L 172.794786 -129.938879 
L 168.948377 -134.23154 
L 165.101968 -133.415301 
L 161.255559 -129.45538 
L 157.40915 -132.784987 
L 153.562741 -126.024171 
L 149.716332 -131.906292 
L 145.869923 -130.553314 
L 142.023514 -133.2399 
L 138.177105 -137.983807 
L 134.330697 -130.716403 
L 130.484288 -127.124903 
L 126.637879 -130.31276 
L 122.79147 -124.591695 
L 118.945061 -122.890781 
L 115.098652 -118.214727 
L 111.252243 -120.567449 
L 107.405834 -126.836451 
L 103.559425 -117.430721 
L 99.713016 -103.084594 
L 95.866607 -108.012775 
L 92.020198 -113.286869 
L 88.17379 -98.625637 
L 84.327381 -102.644041 
L 80.480972 -100.014865 
L 76.634563 -87.188054 
z
" id="me9ccf29327" style="stroke:#4c72b0;stroke-opacity:0.2;stroke-width:0.8;"/>
    </defs>
    <g clip-path="url(#pc0ebf0fc35)">
     <use style="fill:#4c72b0;fill-opacity:0.2;stroke:#4c72b0;stroke-opacity:0.2;stroke-width:0.8;" x="0" xlink:href="#me9ccf29327" y="207.36"/>
    </g>
   </g>
   <g id="PolyCollection_2">
    <defs>
     <path d="M 80.300671 -80.985265 
L 80.300671 -70.720917 
L 87.813189 -78.332513 
L 95.325706 -74.125641 
L 102.838224 -78.758177 
L 110.350741 -83.411825 
L 117.863258 -80.203491 
L 125.375776 -87.551986 
L 132.888293 -82.295046 
L 140.400811 -85.847277 
L 147.913328 -91.732808 
L 155.425845 -87.575204 
L 162.938363 -95.41963 
L 170.45088 -98.425513 
L 177.963398 -102.591451 
L 185.475915 -109.474701 
L 192.988432 -106.396021 
L 200.50095 -112.075566 
L 208.013467 -115.724662 
L 215.525985 -121.20576 
L 223.038502 -117.77068 
L 230.55102 -124.403131 
L 238.063537 -123.520021 
L 245.576054 -125.958785 
L 253.088572 -131.56785 
L 260.601089 -128.418507 
L 268.113607 -126.99191 
L 275.626124 -131.209162 
L 283.138641 -126.562092 
L 290.651159 -128.575071 
L 298.163676 -139.1132 
L 305.676194 -127.453141 
L 313.188711 -128.534363 
L 320.701228 -136.673045 
L 328.213746 -136.04586 
L 335.726263 -134.325245 
L 343.238781 -141.730462 
L 350.751298 -135.895898 
L 358.263816 -145.09644 
L 365.776333 -145.126576 
L 373.28885 -139.886852 
L 380.801368 -134.478619 
L 388.313885 -139.34397 
L 395.826403 -139.439962 
L 403.33892 -141.284761 
L 410.851437 -140.027635 
L 418.363955 -136.708777 
L 425.876472 -140.564668 
L 433.38899 -142.258443 
L 433.38899 -151.267622 
L 433.38899 -151.267622 
L 425.876472 -151.569954 
L 418.363955 -147.519783 
L 410.851437 -152.017266 
L 403.33892 -152.368215 
L 395.826403 -148.223317 
L 388.313885 -150.323086 
L 380.801368 -152.450987 
L 373.28885 -149.801643 
L 365.776333 -155.807478 
L 358.263816 -149.57235 
L 350.751298 -147.205875 
L 343.238781 -150.892618 
L 335.726263 -146.076068 
L 328.213746 -151.027894 
L 320.701228 -151.41429 
L 313.188711 -141.034282 
L 305.676194 -149.436642 
L 298.163676 -145.736201 
L 290.651159 -139.345459 
L 283.138641 -143.59581 
L 275.626124 -148.466896 
L 268.113607 -132.354389 
L 260.601089 -138.767556 
L 253.088572 -136.024274 
L 245.576054 -136.448897 
L 238.063537 -133.101107 
L 230.55102 -129.026797 
L 223.038502 -131.790737 
L 215.525985 -133.770325 
L 208.013467 -131.583306 
L 200.50095 -127.281606 
L 192.988432 -125.48593 
L 185.475915 -122.091954 
L 177.963398 -116.698029 
L 170.45088 -117.655289 
L 162.938363 -110.24098 
L 155.425845 -111.020498 
L 147.913328 -108.514697 
L 140.400811 -98.791288 
L 132.888293 -100.543066 
L 125.375776 -95.107588 
L 117.863258 -90.533021 
L 110.350741 -87.254495 
L 102.838224 -96.640476 
L 95.325706 -86.616491 
L 87.813189 -89.115461 
L 80.300671 -80.985265 
z
" id="m87879a81ec" style="stroke:#dd8452;stroke-opacity:0.2;stroke-width:0.8;"/>
    </defs>
    <g clip-path="url(#pc0ebf0fc35)">
     <use style="fill:#dd8452;fill-opacity:0.2;stroke:#dd8452;stroke-opacity:0.2;stroke-width:0.8;" x="0" xlink:href="#m87879a81ec" y="207.36"/>
    </g>
   </g>
   <g id="PolyCollection_3">
    <defs>
     <path d="M 76.634563 -79.102364 
L 76.634563 -65.73074 
L 80.480972 -78.579237 
L 84.327381 -72.351115 
L 88.17379 -71.161326 
L 92.020198 -67.724831 
L 95.866607 -68.034665 
L 99.713016 -76.173614 
L 103.559425 -70.237998 
L 107.405834 -72.619576 
L 111.252243 -66.710928 
L 115.098652 -70.527901 
L 118.945061 -74.739562 
L 122.79147 -74.009665 
L 126.637879 -67.734132 
L 130.484288 -74.602262 
L 134.330697 -70.118276 
L 138.177105 -71.504606 
L 142.023514 -73.041238 
L 145.869923 -70.846605 
L 149.716332 -72.525748 
L 153.562741 -68.700136 
L 157.40915 -67.236298 
L 161.255559 -67.165583 
L 165.101968 -66.569962 
L 168.948377 -71.771292 
L 172.794786 -68.074746 
L 176.641195 -70.535027 
L 180.487603 -69.427207 
L 184.334012 -68.871576 
L 188.180421 -69.549522 
L 192.02683 -72.284725 
L 195.873239 -61.356669 
L 199.719648 -62.004268 
L 203.566057 -69.260162 
L 207.412466 -71.221309 
L 211.258875 -75.905909 
L 215.105284 -75.63388 
L 218.951693 -74.811156 
L 222.798102 -65.376518 
L 226.64451 -63.651412 
L 230.490919 -75.332564 
L 234.337328 -70.529196 
L 238.183737 -70.026084 
L 242.030146 -65.089757 
L 245.876555 -71.253558 
L 249.722964 -72.906535 
L 253.569373 -67.336749 
L 257.415782 -65.805967 
L 261.262191 -74.769244 
L 265.1086 -70.933287 
L 268.955009 -68.390708 
L 272.801417 -69.191566 
L 276.647826 -71.50699 
L 280.494235 -64.895624 
L 284.340644 -72.521788 
L 288.187053 -75.248384 
L 292.033462 -73.647614 
L 295.879871 -72.064555 
L 299.72628 -71.115585 
L 303.572689 -73.595891 
L 307.419098 -73.633994 
L 311.265507 -67.738062 
L 315.111916 -73.192957 
L 318.958324 -70.903033 
L 322.804733 -65.931922 
L 326.651142 -69.770038 
L 330.497551 -73.933583 
L 334.34396 -72.227665 
L 338.190369 -76.772704 
L 342.036778 -65.675489 
L 345.883187 -72.684411 
L 349.729596 -70.838585 
L 353.576005 -70.718537 
L 357.422414 -62.629418 
L 361.268822 -70.135535 
L 365.115231 -63.884369 
L 368.96164 -73.170783 
L 372.808049 -73.792921 
L 376.654458 -63.178007 
L 380.500867 -73.846524 
L 384.347276 -65.733785 
L 388.193685 -73.293889 
L 392.040094 -72.021262 
L 395.886503 -64.35509 
L 399.732912 -59.69964 
L 403.579321 -71.891773 
L 407.425729 -70.111843 
L 411.272138 -69.981231 
L 415.118547 -72.024532 
L 418.964956 -67.903552 
L 422.811365 -68.635456 
L 426.657774 -71.003677 
L 430.504183 -69.819868 
L 434.350592 -63.524807 
L 438.197001 -75.46236 
L 442.04341 -77.225069 
L 445.889819 -75.374916 
L 445.889819 -84.905568 
L 445.889819 -84.905568 
L 442.04341 -84.008259 
L 438.197001 -84.71016 
L 434.350592 -82.709218 
L 430.504183 -87.7427 
L 426.657774 -88.011889 
L 422.811365 -79.790565 
L 418.964956 -73.960517 
L 415.118547 -82.804882 
L 411.272138 -88.06481 
L 407.425729 -80.543564 
L 403.579321 -85.862867 
L 399.732912 -85.006261 
L 395.886503 -90.384623 
L 392.040094 -82.980008 
L 388.193685 -82.143569 
L 384.347276 -81.702746 
L 380.500867 -81.284745 
L 376.654458 -82.587836 
L 372.808049 -84.107212 
L 368.96164 -88.173365 
L 365.115231 -86.461148 
L 361.268822 -80.100638 
L 357.422414 -81.891302 
L 353.576005 -85.820165 
L 349.729596 -82.423604 
L 345.883187 -91.903371 
L 342.036778 -83.648162 
L 338.190369 -83.99253 
L 334.34396 -83.114939 
L 330.497551 -78.166217 
L 326.651142 -89.833708 
L 322.804733 -85.556521 
L 318.958324 -92.17177 
L 315.111916 -87.089088 
L 311.265507 -84.238471 
L 307.419098 -83.902619 
L 303.572689 -81.11305 
L 299.72628 -78.191937 
L 295.879871 -90.027128 
L 292.033462 -88.948123 
L 288.187053 -83.051017 
L 284.340644 -85.302316 
L 280.494235 -84.927492 
L 276.647826 -80.183251 
L 272.801417 -85.70287 
L 268.955009 -84.385065 
L 265.1086 -77.090089 
L 261.262191 -86.864364 
L 257.415782 -81.25639 
L 253.569373 -88.872341 
L 249.722964 -84.096845 
L 245.876555 -82.231113 
L 242.030146 -78.013812 
L 238.183737 -83.419416 
L 234.337328 -78.55031 
L 230.490919 -90.980351 
L 226.64451 -80.282087 
L 222.798102 -87.800055 
L 218.951693 -78.895782 
L 215.105284 -82.01437 
L 211.258875 -84.37061 
L 207.412466 -77.831156 
L 203.566057 -82.67116 
L 199.719648 -82.466306 
L 195.873239 -76.796902 
L 192.02683 -80.4296 
L 188.180421 -93.181952 
L 184.334012 -84.920435 
L 180.487603 -83.441912 
L 176.641195 -80.168096 
L 172.794786 -89.515854 
L 168.948377 -87.067395 
L 165.101968 -80.495635 
L 161.255559 -78.107404 
L 157.40915 -79.06674 
L 153.562741 -82.326328 
L 149.716332 -88.70363 
L 145.869923 -84.676058 
L 142.023514 -85.395838 
L 138.177105 -86.119076 
L 134.330697 -83.521119 
L 130.484288 -79.758551 
L 126.637879 -81.148302 
L 122.79147 -82.585316 
L 118.945061 -83.627297 
L 115.098652 -77.2624 
L 111.252243 -79.434472 
L 107.405834 -81.662663 
L 103.559425 -83.853915 
L 99.713016 -80.61993 
L 95.866607 -75.940387 
L 92.020198 -81.332787 
L 88.17379 -89.045758 
L 84.327381 -85.947941 
L 80.480972 -84.349092 
L 76.634563 -79.102364 
z
" id="md756926b71" style="stroke:#55a868;stroke-opacity:0.2;stroke-width:0.8;"/>
    </defs>
    <g clip-path="url(#pc0ebf0fc35)">
     <use style="fill:#55a868;fill-opacity:0.2;stroke:#55a868;stroke-opacity:0.2;stroke-width:0.8;" x="0" xlink:href="#md756926b71" y="207.36"/>
    </g>
   </g>
   <g id="line2d_11">
    <path clip-path="url(#pc0ebf0fc35)" d="M 76.634563 123.6592 
L 80.480972 115.491407 
L 84.327381 112.472185 
L 88.17379 115.828048 
L 92.020198 103.795623 
L 95.866607 108.307766 
L 99.713016 105.443317 
L 103.559425 95.850745 
L 107.405834 95.162629 
L 111.252243 91.250767 
L 115.098652 92.780818 
L 118.945061 92.053994 
L 122.79147 92.172319 
L 126.637879 83.558858 
L 130.484288 87.210961 
L 134.330697 82.187489 
L 138.177105 84.135535 
L 142.023514 84.948312 
L 145.869923 85.429128 
L 149.716332 86.492701 
L 153.562741 88.365049 
L 157.40915 83.529987 
L 161.255559 84.511012 
L 165.101968 80.116195 
L 168.948377 79.526321 
L 172.794786 82.657332 
L 176.641195 83.806704 
L 180.487603 77.540583 
L 184.334012 77.540775 
L 188.180421 79.827476 
L 192.02683 74.390864 
L 195.873239 71.823457 
L 199.719648 72.440666 
L 203.566057 72.495636 
L 207.412466 70.588214 
L 211.258875 67.218922 
L 215.105284 73.633818 
L 218.951693 76.300947 
L 222.798102 76.554459 
L 226.64451 72.517475 
L 230.490919 80.509411 
L 234.337328 74.721053 
L 238.183737 74.029979 
L 242.030146 88.271983 
L 245.876555 79.517847 
L 249.722964 85.567879 
L 253.569373 82.923429 
L 257.415782 87.705831 
L 261.262191 76.488868 
L 265.1086 85.638287 
L 268.955009 83.472533 
L 272.801417 83.309711 
L 276.647826 75.916538 
L 280.494235 75.577844 
L 284.340644 78.035135 
L 288.187053 80.594872 
L 292.033462 76.613366 
L 295.879871 76.943545 
L 299.72628 86.160135 
L 303.572689 82.763741 
L 307.419098 78.365958 
L 311.265507 83.873028 
L 315.111916 89.406159 
L 318.958324 86.347108 
L 322.804733 85.270428 
L 326.651142 85.159193 
L 330.497551 85.259715 
L 334.34396 85.044059 
L 338.190369 83.756322 
L 342.036778 77.111774 
L 345.883187 80.419372 
L 349.729596 74.698267 
L 353.576005 83.294159 
L 357.422414 74.983603 
L 361.268822 77.909233 
L 365.115231 73.937788 
L 368.96164 74.014709 
L 372.808049 78.456247 
L 376.654458 75.822957 
L 380.500867 75.995035 
L 384.347276 81.831269 
L 388.193685 81.015266 
L 392.040094 78.38001 
L 395.886503 78.456945 
L 399.732912 76.6038 
L 403.579321 78.552165 
L 407.425729 75.853377 
L 411.272138 76.049178 
L 415.118547 79.600898 
L 418.964956 82.891826 
L 422.811365 74.973615 
L 426.657774 75.431355 
L 430.504183 69.908317 
L 434.350592 74.415871 
L 438.197001 72.474351 
L 442.04341 71.418589 
L 445.889819 70.094805 
" style="fill:none;stroke:#4c72b0;stroke-linecap:round;"/>
   </g>
   <g id="line2d_12">
    <path clip-path="url(#pc0ebf0fc35)" d="M 80.300671 131.506909 
L 87.813189 123.636013 
L 95.325706 126.988934 
L 102.838224 119.660674 
L 110.350741 122.02684 
L 117.863258 121.991744 
L 125.375776 116.030213 
L 132.888293 115.940944 
L 140.400811 115.040718 
L 147.913328 107.236248 
L 155.425845 108.062149 
L 162.938363 104.529695 
L 170.45088 99.319599 
L 177.963398 97.71526 
L 185.475915 91.576673 
L 192.988432 91.419025 
L 200.50095 87.681414 
L 208.013467 83.706016 
L 215.525985 79.871958 
L 223.038502 82.579292 
L 230.55102 80.645036 
L 238.063537 79.049436 
L 245.576054 76.156159 
L 253.088572 73.563938 
L 260.601089 73.766968 
L 268.113607 77.68685 
L 275.626124 67.521971 
L 283.138641 72.281049 
L 290.651159 73.399735 
L 298.163676 64.935299 
L 305.676194 68.915108 
L 313.188711 72.575677 
L 320.701228 63.316333 
L 328.213746 63.823123 
L 335.726263 67.159344 
L 343.238781 61.04846 
L 350.751298 65.809113 
L 358.263816 60.025605 
L 365.776333 56.892973 
L 373.28885 62.515753 
L 380.801368 63.895197 
L 388.313885 62.526472 
L 395.826403 63.528361 
L 403.33892 60.533512 
L 410.851437 61.33755 
L 418.363955 65.24572 
L 425.876472 61.292689 
L 433.38899 60.596967 
" style="fill:none;stroke:#dd8452;stroke-dasharray:4,1.5;stroke-dashoffset:0;"/>
   </g>
   <g id="line2d_13">
    <path clip-path="url(#pc0ebf0fc35)" d="M 76.634563 134.943448 
L 80.480972 125.895835 
L 84.327381 128.210472 
L 88.17379 127.256458 
L 92.020198 132.831191 
L 95.866607 135.372474 
L 99.713016 128.963228 
L 103.559425 130.314043 
L 107.405834 130.218881 
L 111.252243 134.2873 
L 115.098652 133.46485 
L 118.945061 128.17657 
L 122.79147 129.062509 
L 126.637879 132.918783 
L 130.484288 130.179593 
L 134.330697 130.540302 
L 138.177105 128.548159 
L 142.023514 128.141462 
L 145.869923 129.598668 
L 149.716332 126.745311 
L 153.562741 131.846768 
L 157.40915 134.208481 
L 161.255559 134.723507 
L 165.101968 133.827202 
L 168.948377 127.940656 
L 172.794786 128.5647 
L 176.641195 132.008439 
L 180.487603 130.92544 
L 184.334012 130.463995 
L 188.180421 125.994263 
L 192.02683 131.002838 
L 195.873239 138.283215 
L 199.719648 135.124713 
L 203.566057 131.394339 
L 207.412466 132.833768 
L 211.258875 127.221741 
L 215.105284 128.535875 
L 218.951693 130.506531 
L 222.798102 130.771714 
L 226.64451 135.39325 
L 230.490919 124.203542 
L 234.337328 132.820247 
L 238.183737 130.63725 
L 242.030146 135.808215 
L 245.876555 130.617664 
L 249.722964 128.85831 
L 253.569373 129.255455 
L 257.415782 133.828821 
L 261.262191 126.543196 
L 265.1086 133.348312 
L 268.955009 130.972113 
L 272.801417 129.912782 
L 276.647826 131.51488 
L 280.494235 132.448442 
L 284.340644 128.447948 
L 288.187053 128.210299 
L 292.033462 126.062132 
L 295.879871 126.314159 
L 299.72628 132.706239 
L 303.572689 130.00553 
L 307.419098 128.591693 
L 311.265507 131.371733 
L 315.111916 127.218978 
L 318.958324 125.822598 
L 322.804733 131.615779 
L 326.651142 127.558127 
L 330.497551 131.3101 
L 334.34396 129.688698 
L 338.190369 126.977383 
L 342.036778 132.698174 
L 345.883187 125.066109 
L 349.729596 130.728905 
L 353.576005 129.090649 
L 357.422414 135.09964 
L 361.268822 132.241914 
L 365.115231 132.187241 
L 368.96164 126.687926 
L 372.808049 128.409934 
L 376.654458 134.477079 
L 380.500867 129.794366 
L 384.347276 133.641734 
L 388.193685 129.641271 
L 392.040094 129.859365 
L 395.886503 129.990143 
L 399.732912 135.00705 
L 403.579321 128.48268 
L 407.425729 132.032296 
L 411.272138 128.336979 
L 415.118547 129.945293 
L 418.964956 136.427966 
L 422.811365 133.146989 
L 426.657774 127.852217 
L 430.504183 128.578716 
L 434.350592 134.242987 
L 438.197001 127.27374 
L 442.04341 126.743336 
L 445.889819 127.219758 
" style="fill:none;stroke:#55a868;stroke-dasharray:1,1;stroke-dashoffset:0;"/>
   </g>
   <g id="line2d_14"/>
   <g id="line2d_15"/>
   <g id="line2d_16"/>
   <g id="patch_3">
    <path d="M 58.1718 155.0632 
L 58.1718 18.9968 
" style="fill:none;stroke:#cccccc;stroke-linecap:square;stroke-linejoin:miter;"/>
   </g>
   <g id="patch_4">
    <path d="M 464.352581 155.0632 
L 464.352581 18.9968 
" style="fill:none;stroke:#cccccc;stroke-linecap:square;stroke-linejoin:miter;"/>
   </g>
   <g id="patch_5">
    <path d="M 58.1718 155.0632 
L 464.352581 155.0632 
" style="fill:none;stroke:#cccccc;stroke-linecap:square;stroke-linejoin:miter;"/>
   </g>
   <g id="patch_6">
    <path d="M 58.1718 18.9968 
L 464.352581 18.9968 
" style="fill:none;stroke:#cccccc;stroke-linecap:square;stroke-linejoin:miter;"/>
   </g>
   <g id="legend_1">
    <g id="patch_7">
     <path d="M 66.4878 99.296488 
L 153.683288 99.296488 
Q 156.059288 99.296488 156.059288 96.920488 
L 156.059288 27.3128 
Q 156.059288 24.9368 153.683288 24.9368 
L 66.4878 24.9368 
Q 64.1118 24.9368 64.1118 27.3128 
L 64.1118 96.920488 
Q 64.1118 99.296488 66.4878 99.296488 
z
" style="fill:#ffffff;opacity:0.8;stroke:#cccccc;stroke-linejoin:miter;stroke-width:0.8;"/>
    </g>
    <g id="text_13">
     <!-- Model -->
     <g style="fill:#262626;" transform="translate(90.628331 39.536375)scale(0.1296 -0.1296)">
      <defs>
       <path d="M 628 4666 
L 1569 4666 
L 2759 1491 
L 3956 4666 
L 4897 4666 
L 4897 0 
L 4281 0 
L 4281 4097 
L 3078 897 
L 2444 897 
L 1241 4097 
L 1241 0 
L 628 0 
L 628 4666 
z
" id="DejaVuSans-4d" transform="scale(0.015625)"/>
       <path d="M 603 4863 
L 1178 4863 
L 1178 0 
L 603 0 
L 603 4863 
z
" id="DejaVuSans-6c" transform="scale(0.015625)"/>
      </defs>
      <use xlink:href="#DejaVuSans-4d"/>
      <use x="86.279297" xlink:href="#DejaVuSans-6f"/>
      <use x="147.460938" xlink:href="#DejaVuSans-64"/>
      <use x="210.9375" xlink:href="#DejaVuSans-65"/>
      <use x="272.460938" xlink:href="#DejaVuSans-6c"/>
     </g>
    </g>
    <g id="line2d_17">
     <path d="M 68.8638 53.040594 
L 92.6238 53.040594 
" style="fill:none;stroke:#4c72b0;stroke-linecap:round;"/>
    </g>
    <g id="line2d_18"/>
    <g id="text_14">
     <!-- A2C -->
     <g style="fill:#262626;" transform="translate(102.1278 57.198594)scale(0.1188 -0.1188)">
      <defs>
       <path d="M 2188 4044 
L 1331 1722 
L 3047 1722 
L 2188 4044 
z
M 1831 4666 
L 2547 4666 
L 4325 0 
L 3669 0 
L 3244 1197 
L 1141 1197 
L 716 0 
L 50 0 
L 1831 4666 
z
" id="DejaVuSans-41" transform="scale(0.015625)"/>
       <path d="M 4122 4306 
L 4122 3641 
Q 3803 3938 3442 4084 
Q 3081 4231 2675 4231 
Q 1875 4231 1450 3742 
Q 1025 3253 1025 2328 
Q 1025 1406 1450 917 
Q 1875 428 2675 428 
Q 3081 428 3442 575 
Q 3803 722 4122 1019 
L 4122 359 
Q 3791 134 3420 21 
Q 3050 -91 2638 -91 
Q 1578 -91 968 557 
Q 359 1206 359 2328 
Q 359 3453 968 4101 
Q 1578 4750 2638 4750 
Q 3056 4750 3426 4639 
Q 3797 4528 4122 4306 
z
" id="DejaVuSans-43" transform="scale(0.015625)"/>
      </defs>
      <use xlink:href="#DejaVuSans-41"/>
      <use x="68.408203" xlink:href="#DejaVuSans-32"/>
      <use x="132.03125" xlink:href="#DejaVuSans-43"/>
     </g>
    </g>
    <g id="line2d_19">
     <path d="M 68.8638 70.478206 
L 92.6238 70.478206 
" style="fill:none;stroke:#dd8452;stroke-dasharray:4,1.5;stroke-dashoffset:0;"/>
    </g>
    <g id="line2d_20"/>
    <g id="text_15">
     <!-- PPO -->
     <g style="fill:#262626;" transform="translate(102.1278 74.636206)scale(0.1188 -0.1188)">
      <defs>
       <path d="M 2522 4238 
Q 1834 4238 1429 3725 
Q 1025 3213 1025 2328 
Q 1025 1447 1429 934 
Q 1834 422 2522 422 
Q 3209 422 3611 934 
Q 4013 1447 4013 2328 
Q 4013 3213 3611 3725 
Q 3209 4238 2522 4238 
z
M 2522 4750 
Q 3503 4750 4090 4092 
Q 4678 3434 4678 2328 
Q 4678 1225 4090 567 
Q 3503 -91 2522 -91 
Q 1538 -91 948 565 
Q 359 1222 359 2328 
Q 359 3434 948 4092 
Q 1538 4750 2522 4750 
z
" id="DejaVuSans-4f" transform="scale(0.015625)"/>
      </defs>
      <use xlink:href="#DejaVuSans-50"/>
      <use x="60.302734" xlink:href="#DejaVuSans-50"/>
      <use x="120.605469" xlink:href="#DejaVuSans-4f"/>
     </g>
    </g>
    <g id="line2d_21">
     <path d="M 68.8638 87.915819 
L 92.6238 87.915819 
" style="fill:none;stroke:#55a868;stroke-dasharray:1,1;stroke-dashoffset:0;"/>
    </g>
    <g id="line2d_22"/>
    <g id="text_16">
     <!-- Random -->
     <g style="fill:#262626;" transform="translate(102.1278 92.073819)scale(0.1188 -0.1188)">
      <defs>
       <path d="M 2841 2188 
Q 3044 2119 3236 1894 
Q 3428 1669 3622 1275 
L 4263 0 
L 3584 0 
L 2988 1197 
Q 2756 1666 2539 1819 
Q 2322 1972 1947 1972 
L 1259 1972 
L 1259 0 
L 628 0 
L 628 4666 
L 2053 4666 
Q 2853 4666 3247 4331 
Q 3641 3997 3641 3322 
Q 3641 2881 3436 2590 
Q 3231 2300 2841 2188 
z
M 1259 4147 
L 1259 2491 
L 2053 2491 
Q 2509 2491 2742 2702 
Q 2975 2913 2975 3322 
Q 2975 3731 2742 3939 
Q 2509 4147 2053 4147 
L 1259 4147 
z
" id="DejaVuSans-52" transform="scale(0.015625)"/>
       <path d="M 2194 1759 
Q 1497 1759 1228 1600 
Q 959 1441 959 1056 
Q 959 750 1161 570 
Q 1363 391 1709 391 
Q 2188 391 2477 730 
Q 2766 1069 2766 1631 
L 2766 1759 
L 2194 1759 
z
M 3341 1997 
L 3341 0 
L 2766 0 
L 2766 531 
Q 2569 213 2275 61 
Q 1981 -91 1556 -91 
Q 1019 -91 701 211 
Q 384 513 384 1019 
Q 384 1609 779 1909 
Q 1175 2209 1959 2209 
L 2766 2209 
L 2766 2266 
Q 2766 2663 2505 2880 
Q 2244 3097 1772 3097 
Q 1472 3097 1187 3025 
Q 903 2953 641 2809 
L 641 3341 
Q 956 3463 1253 3523 
Q 1550 3584 1831 3584 
Q 2591 3584 2966 3190 
Q 3341 2797 3341 1997 
z
" id="DejaVuSans-61" transform="scale(0.015625)"/>
       <path d="M 3328 2828 
Q 3544 3216 3844 3400 
Q 4144 3584 4550 3584 
Q 5097 3584 5394 3201 
Q 5691 2819 5691 2113 
L 5691 0 
L 5113 0 
L 5113 2094 
Q 5113 2597 4934 2840 
Q 4756 3084 4391 3084 
Q 3944 3084 3684 2787 
Q 3425 2491 3425 1978 
L 3425 0 
L 2847 0 
L 2847 2094 
Q 2847 2600 2669 2842 
Q 2491 3084 2119 3084 
Q 1678 3084 1418 2786 
Q 1159 2488 1159 1978 
L 1159 0 
L 581 0 
L 581 3500 
L 1159 3500 
L 1159 2956 
Q 1356 3278 1631 3431 
Q 1906 3584 2284 3584 
Q 2666 3584 2933 3390 
Q 3200 3197 3328 2828 
z
" id="DejaVuSans-6d" transform="scale(0.015625)"/>
      </defs>
      <use xlink:href="#DejaVuSans-52"/>
      <use x="67.232422" xlink:href="#DejaVuSans-61"/>
      <use x="128.511719" xlink:href="#DejaVuSans-6e"/>
      <use x="191.890625" xlink:href="#DejaVuSans-64"/>
      <use x="255.367188" xlink:href="#DejaVuSans-6f"/>
      <use x="316.548828" xlink:href="#DejaVuSans-6d"/>
     </g>
    </g>
   </g>
  </g>
  <g id="axes_2">
   <g id="patch_8">
    <path d="M 501.422419 155.0632 
L 907.6032 155.0632 
L 907.6032 18.9968 
L 501.422419 18.9968 
z
" style="fill:#ffffff;"/>
   </g>
   <g id="matplotlib.axis_3">
    <g id="xtick_7">
     <g id="text_17">
      <!-- 1 -->
      <g style="fill:#262626;" transform="translate(548.415691 172.390144)scale(0.1188 -0.1188)">
       <use xlink:href="#DejaVuSans-31"/>
      </g>
     </g>
    </g>
    <g id="xtick_8">
     <g id="text_18">
      <!-- 3 -->
      <g style="fill:#262626;" transform="translate(649.960887 172.390144)scale(0.1188 -0.1188)">
       <use xlink:href="#DejaVuSans-33"/>
      </g>
     </g>
    </g>
    <g id="xtick_9">
     <g id="text_19">
      <!-- 5 -->
      <g style="fill:#262626;" transform="translate(751.506082 172.390144)scale(0.1188 -0.1188)">
       <use xlink:href="#DejaVuSans-35"/>
      </g>
     </g>
    </g>
    <g id="xtick_10">
     <g id="text_20">
      <!-- 7 -->
      <g style="fill:#262626;" transform="translate(853.051277 172.390144)scale(0.1188 -0.1188)">
       <defs>
        <path d="M 525 4666 
L 3525 4666 
L 3525 4397 
L 1831 0 
L 1172 0 
L 2766 4134 
L 525 4134 
L 525 4666 
z
" id="DejaVuSans-37" transform="scale(0.015625)"/>
       </defs>
       <use xlink:href="#DejaVuSans-37"/>
      </g>
     </g>
    </g>
    <g id="text_21">
     <!-- Number of skills -->
     <g style="fill:#262626;" transform="translate(652.212122 188.708387)scale(0.1296 -0.1296)">
      <defs>
       <path d="M 628 4666 
L 1478 4666 
L 3547 763 
L 3547 4666 
L 4159 4666 
L 4159 0 
L 3309 0 
L 1241 3903 
L 1241 0 
L 628 0 
L 628 4666 
z
" id="DejaVuSans-4e" transform="scale(0.015625)"/>
       <path d="M 544 1381 
L 544 3500 
L 1119 3500 
L 1119 1403 
Q 1119 906 1312 657 
Q 1506 409 1894 409 
Q 2359 409 2629 706 
Q 2900 1003 2900 1516 
L 2900 3500 
L 3475 3500 
L 3475 0 
L 2900 0 
L 2900 538 
Q 2691 219 2414 64 
Q 2138 -91 1772 -91 
Q 1169 -91 856 284 
Q 544 659 544 1381 
z
M 1991 3584 
L 1991 3584 
z
" id="DejaVuSans-75" transform="scale(0.015625)"/>
       <path d="M 3116 1747 
Q 3116 2381 2855 2742 
Q 2594 3103 2138 3103 
Q 1681 3103 1420 2742 
Q 1159 2381 1159 1747 
Q 1159 1113 1420 752 
Q 1681 391 2138 391 
Q 2594 391 2855 752 
Q 3116 1113 3116 1747 
z
M 1159 2969 
Q 1341 3281 1617 3432 
Q 1894 3584 2278 3584 
Q 2916 3584 3314 3078 
Q 3713 2572 3713 1747 
Q 3713 922 3314 415 
Q 2916 -91 2278 -91 
Q 1894 -91 1617 61 
Q 1341 213 1159 525 
L 1159 0 
L 581 0 
L 581 4863 
L 1159 4863 
L 1159 2969 
z
" id="DejaVuSans-62" transform="scale(0.015625)"/>
       <path id="DejaVuSans-20" transform="scale(0.015625)"/>
       <path d="M 581 4863 
L 1159 4863 
L 1159 1991 
L 2875 3500 
L 3609 3500 
L 1753 1863 
L 3688 0 
L 2938 0 
L 1159 1709 
L 1159 0 
L 581 0 
L 581 4863 
z
" id="DejaVuSans-6b" transform="scale(0.015625)"/>
      </defs>
      <use xlink:href="#DejaVuSans-4e"/>
      <use x="74.804688" xlink:href="#DejaVuSans-75"/>
      <use x="138.183594" xlink:href="#DejaVuSans-6d"/>
      <use x="235.595703" xlink:href="#DejaVuSans-62"/>
      <use x="299.072266" xlink:href="#DejaVuSans-65"/>
      <use x="360.595703" xlink:href="#DejaVuSans-72"/>
      <use x="401.708984" xlink:href="#DejaVuSans-20"/>
      <use x="433.496094" xlink:href="#DejaVuSans-6f"/>
      <use x="494.677734" xlink:href="#DejaVuSans-66"/>
      <use x="529.882812" xlink:href="#DejaVuSans-20"/>
      <use x="561.669922" xlink:href="#DejaVuSans-73"/>
      <use x="613.769531" xlink:href="#DejaVuSans-6b"/>
      <use x="671.679688" xlink:href="#DejaVuSans-69"/>
      <use x="699.462891" xlink:href="#DejaVuSans-6c"/>
      <use x="727.246094" xlink:href="#DejaVuSans-6c"/>
      <use x="755.029297" xlink:href="#DejaVuSans-73"/>
     </g>
    </g>
   </g>
   <g id="matplotlib.axis_4">
    <g id="ytick_5">
     <g id="line2d_23">
      <path clip-path="url(#p47de5cce0b)" d="M 501.422419 146.55905 
L 907.6032 146.55905 
" style="fill:none;stroke:#cccccc;stroke-linecap:round;stroke-width:0.8;"/>
     </g>
    </g>
    <g id="ytick_6">
     <g id="line2d_24">
      <path clip-path="url(#p47de5cce0b)" d="M 501.422419 104.0383 
L 907.6032 104.0383 
" style="fill:none;stroke:#cccccc;stroke-linecap:round;stroke-width:0.8;"/>
     </g>
    </g>
    <g id="ytick_7">
     <g id="line2d_25">
      <path clip-path="url(#p47de5cce0b)" d="M 501.422419 61.51755 
L 907.6032 61.51755 
" style="fill:none;stroke:#cccccc;stroke-linecap:round;stroke-width:0.8;"/>
     </g>
    </g>
    <g id="ytick_8">
     <g id="line2d_26">
      <path clip-path="url(#p47de5cce0b)" d="M 501.422419 18.9968 
L 907.6032 18.9968 
" style="fill:none;stroke:#cccccc;stroke-linecap:round;stroke-width:0.8;"/>
     </g>
    </g>
    <g id="text_22">
     <!-- Proficiency -->
     <g style="fill:#262626;" transform="translate(494.727144 122.243738)rotate(-90)scale(0.1296 -0.1296)">
      <use xlink:href="#DejaVuSans-50"/>
      <use x="58.552734" xlink:href="#DejaVuSans-72"/>
      <use x="97.416016" xlink:href="#DejaVuSans-6f"/>
      <use x="158.597656" xlink:href="#DejaVuSans-66"/>
      <use x="193.802734" xlink:href="#DejaVuSans-69"/>
      <use x="221.585938" xlink:href="#DejaVuSans-63"/>
      <use x="276.566406" xlink:href="#DejaVuSans-69"/>
      <use x="304.349609" xlink:href="#DejaVuSans-65"/>
      <use x="365.873047" xlink:href="#DejaVuSans-6e"/>
      <use x="429.251953" xlink:href="#DejaVuSans-63"/>
      <use x="484.232422" xlink:href="#DejaVuSans-79"/>
     </g>
    </g>
   </g>
   <g id="PathCollection_1">
    <defs>
     <path d="M 0 3.383948 
C 0.897434 3.383948 1.758231 3.027394 2.392813 2.392813 
C 3.027394 1.758231 3.383948 0.897434 3.383948 0 
C 3.383948 -0.897434 3.027394 -1.758231 2.392813 -2.392813 
C 1.758231 -3.027394 0.897434 -3.383948 0 -3.383948 
C -0.897434 -3.383948 -1.758231 -3.027394 -2.392813 -2.392813 
C -3.027394 -1.758231 -3.383948 -0.897434 -3.383948 0 
C -3.383948 0.897434 -3.027394 1.758231 -2.392813 2.392813 
C -1.758231 3.027394 -0.897434 3.383948 0 3.383948 
z
" id="m907161ac1d" style="stroke:#4c72b0;stroke-width:2.025;"/>
    </defs>
    <g clip-path="url(#p47de5cce0b)">
     <use style="fill:#4c72b0;stroke:#4c72b0;stroke-width:2.025;" x="552.195016" xlink:href="#m907161ac1d" y="35.011087"/>
     <use style="fill:#4c72b0;stroke:#4c72b0;stroke-width:2.025;" x="653.740212" xlink:href="#m907161ac1d" y="53.679543"/>
     <use style="fill:#4c72b0;stroke:#4c72b0;stroke-width:2.025;" x="755.285407" xlink:href="#m907161ac1d" y="70.094805"/>
     <use style="fill:#4c72b0;stroke:#4c72b0;stroke-width:2.025;" x="856.830602" xlink:href="#m907161ac1d" y="98.719835"/>
    </g>
   </g>
   <g id="line2d_27">
    <path clip-path="url(#p47de5cce0b)" d="M 552.195016 39.812111 
L 552.195016 30.210063 
" style="fill:none;stroke:#4c72b0;stroke-linecap:round;stroke-width:1.8;"/>
   </g>
   <g id="line2d_28">
    <path clip-path="url(#p47de5cce0b)" d="M 552.195016 39.812111 
L 552.195016 39.812111 
" style="fill:none;stroke:#4c72b0;stroke-linecap:round;stroke-width:1.8;"/>
   </g>
   <g id="line2d_29">
    <path clip-path="url(#p47de5cce0b)" d="M 552.195016 30.210063 
L 552.195016 30.210063 
" style="fill:none;stroke:#4c72b0;stroke-linecap:round;stroke-width:1.8;"/>
   </g>
   <g id="line2d_30">
    <path clip-path="url(#p47de5cce0b)" d="M 653.740212 60.302238 
L 653.740212 47.056849 
" style="fill:none;stroke:#4c72b0;stroke-linecap:round;stroke-width:1.8;"/>
   </g>
   <g id="line2d_31">
    <path clip-path="url(#p47de5cce0b)" d="M 653.740212 60.302238 
L 653.740212 60.302238 
" style="fill:none;stroke:#4c72b0;stroke-linecap:round;stroke-width:1.8;"/>
   </g>
   <g id="line2d_32">
    <path clip-path="url(#p47de5cce0b)" d="M 653.740212 47.056849 
L 653.740212 47.056849 
" style="fill:none;stroke:#4c72b0;stroke-linecap:round;stroke-width:1.8;"/>
   </g>
   <g id="line2d_33">
    <path clip-path="url(#p47de5cce0b)" d="M 755.285407 77.097189 
L 755.285407 63.092421 
" style="fill:none;stroke:#4c72b0;stroke-linecap:round;stroke-width:1.8;"/>
   </g>
   <g id="line2d_34">
    <path clip-path="url(#p47de5cce0b)" d="M 755.285407 77.097189 
L 755.285407 77.097189 
" style="fill:none;stroke:#4c72b0;stroke-linecap:round;stroke-width:1.8;"/>
   </g>
   <g id="line2d_35">
    <path clip-path="url(#p47de5cce0b)" d="M 755.285407 63.092421 
L 755.285407 63.092421 
" style="fill:none;stroke:#4c72b0;stroke-linecap:round;stroke-width:1.8;"/>
   </g>
   <g id="line2d_36">
    <path clip-path="url(#p47de5cce0b)" d="M 856.830602 105.152378 
L 856.830602 92.287292 
" style="fill:none;stroke:#4c72b0;stroke-linecap:round;stroke-width:1.8;"/>
   </g>
   <g id="line2d_37">
    <path clip-path="url(#p47de5cce0b)" d="M 856.830602 105.152378 
L 856.830602 105.152378 
" style="fill:none;stroke:#4c72b0;stroke-linecap:round;stroke-width:1.8;"/>
   </g>
   <g id="line2d_38">
    <path clip-path="url(#p47de5cce0b)" d="M 856.830602 92.287292 
L 856.830602 92.287292 
" style="fill:none;stroke:#4c72b0;stroke-linecap:round;stroke-width:1.8;"/>
   </g>
   <g id="PathCollection_2">
    <defs>
     <path d="M -3.383948 3.383948 
L 3.383948 -3.383948 
M -3.383948 -3.383948 
L 3.383948 3.383948 
" id="m449cd382bd" style="stroke:#dd8452;stroke-width:2.025;"/>
    </defs>
    <g clip-path="url(#p47de5cce0b)">
     <use style="fill:#dd8452;stroke:#dd8452;stroke-width:2.025;" x="552.195016" xlink:href="#m449cd382bd" y="42.31398"/>
     <use style="fill:#dd8452;stroke:#dd8452;stroke-width:2.025;" x="653.740212" xlink:href="#m449cd382bd" y="44.846909"/>
     <use style="fill:#dd8452;stroke:#dd8452;stroke-width:2.025;" x="755.285407" xlink:href="#m449cd382bd" y="60.596967"/>
     <use style="fill:#dd8452;stroke:#dd8452;stroke-width:2.025;" x="856.830602" xlink:href="#m449cd382bd" y="83.182678"/>
    </g>
   </g>
   <g id="line2d_39">
    <path clip-path="url(#p47de5cce0b)" d="M 552.195016 45.896182 
L 552.195016 38.731779 
" style="fill:none;stroke:#dd8452;stroke-linecap:round;stroke-width:1.8;"/>
   </g>
   <g id="line2d_40">
    <path clip-path="url(#p47de5cce0b)" d="M 552.195016 45.896182 
L 552.195016 45.896182 
" style="fill:none;stroke:#dd8452;stroke-linecap:round;stroke-width:1.8;"/>
   </g>
   <g id="line2d_41">
    <path clip-path="url(#p47de5cce0b)" d="M 552.195016 38.731779 
L 552.195016 38.731779 
" style="fill:none;stroke:#dd8452;stroke-linecap:round;stroke-width:1.8;"/>
   </g>
   <g id="line2d_42">
    <path clip-path="url(#p47de5cce0b)" d="M 653.740212 48.508344 
L 653.740212 41.185475 
" style="fill:none;stroke:#dd8452;stroke-linecap:round;stroke-width:1.8;"/>
   </g>
   <g id="line2d_43">
    <path clip-path="url(#p47de5cce0b)" d="M 653.740212 48.508344 
L 653.740212 48.508344 
" style="fill:none;stroke:#dd8452;stroke-linecap:round;stroke-width:1.8;"/>
   </g>
   <g id="line2d_44">
    <path clip-path="url(#p47de5cce0b)" d="M 653.740212 41.185475 
L 653.740212 41.185475 
" style="fill:none;stroke:#dd8452;stroke-linecap:round;stroke-width:1.8;"/>
   </g>
   <g id="line2d_45">
    <path clip-path="url(#p47de5cce0b)" d="M 755.285407 64.625995 
L 755.285407 56.56794 
" style="fill:none;stroke:#dd8452;stroke-linecap:round;stroke-width:1.8;"/>
   </g>
   <g id="line2d_46">
    <path clip-path="url(#p47de5cce0b)" d="M 755.285407 64.625995 
L 755.285407 64.625995 
" style="fill:none;stroke:#dd8452;stroke-linecap:round;stroke-width:1.8;"/>
   </g>
   <g id="line2d_47">
    <path clip-path="url(#p47de5cce0b)" d="M 755.285407 56.56794 
L 755.285407 56.56794 
" style="fill:none;stroke:#dd8452;stroke-linecap:round;stroke-width:1.8;"/>
   </g>
   <g id="line2d_48">
    <path clip-path="url(#p47de5cce0b)" d="M 856.830602 89.114761 
L 856.830602 77.250596 
" style="fill:none;stroke:#dd8452;stroke-linecap:round;stroke-width:1.8;"/>
   </g>
   <g id="line2d_49">
    <path clip-path="url(#p47de5cce0b)" d="M 856.830602 89.114761 
L 856.830602 89.114761 
" style="fill:none;stroke:#dd8452;stroke-linecap:round;stroke-width:1.8;"/>
   </g>
   <g id="line2d_50">
    <path clip-path="url(#p47de5cce0b)" d="M 856.830602 77.250596 
L 856.830602 77.250596 
" style="fill:none;stroke:#dd8452;stroke-linecap:round;stroke-width:1.8;"/>
   </g>
   <g id="patch_9">
    <path d="M 501.422419 155.0632 
L 501.422419 18.9968 
" style="fill:none;stroke:#cccccc;stroke-linecap:square;stroke-linejoin:miter;"/>
   </g>
   <g id="patch_10">
    <path d="M 907.6032 155.0632 
L 907.6032 18.9968 
" style="fill:none;stroke:#cccccc;stroke-linecap:square;stroke-linejoin:miter;"/>
   </g>
   <g id="patch_11">
    <path d="M 501.422419 155.0632 
L 907.6032 155.0632 
" style="fill:none;stroke:#cccccc;stroke-linecap:square;stroke-linejoin:miter;"/>
   </g>
   <g id="patch_12">
    <path d="M 501.422419 18.9968 
L 907.6032 18.9968 
" style="fill:none;stroke:#cccccc;stroke-linecap:square;stroke-linejoin:miter;"/>
   </g>
   <g id="PathCollection_3">
    <defs>
     <path d="M -0 4.785625 
L 4.785625 0 
L 0 -4.785625 
L -4.785625 -0 
z
" id="mcea1efae25" style="stroke:#55a868;stroke-width:2.025;"/>
    </defs>
    <g clip-path="url(#p47de5cce0b)">
     <use style="fill:#55a868;stroke:#55a868;stroke-width:2.025;" x="552.195016" xlink:href="#mcea1efae25" y="135.116269"/>
     <use style="fill:#55a868;stroke:#55a868;stroke-width:2.025;" x="653.740212" xlink:href="#mcea1efae25" y="134.706526"/>
     <use style="fill:#55a868;stroke:#55a868;stroke-width:2.025;" x="755.285407" xlink:href="#mcea1efae25" y="127.219758"/>
     <use style="fill:#55a868;stroke:#55a868;stroke-width:2.025;" x="856.830602" xlink:href="#mcea1efae25" y="128.567912"/>
    </g>
   </g>
   <g id="line2d_51">
    <path clip-path="url(#p47de5cce0b)" d="M 552.195016 144.802448 
L 552.195016 125.43009 
" style="fill:none;stroke:#55a868;stroke-linecap:round;stroke-width:1.8;"/>
   </g>
   <g id="line2d_52">
    <path clip-path="url(#p47de5cce0b)" d="M 552.195016 144.802448 
L 552.195016 144.802448 
" style="fill:none;stroke:#55a868;stroke-linecap:round;stroke-width:1.8;"/>
   </g>
   <g id="line2d_53">
    <path clip-path="url(#p47de5cce0b)" d="M 552.195016 125.43009 
L 552.195016 125.43009 
" style="fill:none;stroke:#55a868;stroke-linecap:round;stroke-width:1.8;"/>
   </g>
   <g id="line2d_54">
    <path clip-path="url(#p47de5cce0b)" d="M 653.740212 145.664363 
L 653.740212 123.748688 
" style="fill:none;stroke:#55a868;stroke-linecap:round;stroke-width:1.8;"/>
   </g>
   <g id="line2d_55">
    <path clip-path="url(#p47de5cce0b)" d="M 653.740212 145.664363 
L 653.740212 145.664363 
" style="fill:none;stroke:#55a868;stroke-linecap:round;stroke-width:1.8;"/>
   </g>
   <g id="line2d_56">
    <path clip-path="url(#p47de5cce0b)" d="M 653.740212 123.748688 
L 653.740212 123.748688 
" style="fill:none;stroke:#55a868;stroke-linecap:round;stroke-width:1.8;"/>
   </g>
   <g id="line2d_57">
    <path clip-path="url(#p47de5cce0b)" d="M 755.285407 131.481995 
L 755.285407 122.95752 
" style="fill:none;stroke:#55a868;stroke-linecap:round;stroke-width:1.8;"/>
   </g>
   <g id="line2d_58">
    <path clip-path="url(#p47de5cce0b)" d="M 755.285407 131.481995 
L 755.285407 131.481995 
" style="fill:none;stroke:#55a868;stroke-linecap:round;stroke-width:1.8;"/>
   </g>
   <g id="line2d_59">
    <path clip-path="url(#p47de5cce0b)" d="M 755.285407 122.95752 
L 755.285407 122.95752 
" style="fill:none;stroke:#55a868;stroke-linecap:round;stroke-width:1.8;"/>
   </g>
   <g id="line2d_60">
    <path clip-path="url(#p47de5cce0b)" d="M 856.830602 135.74124 
L 856.830602 121.394584 
" style="fill:none;stroke:#55a868;stroke-linecap:round;stroke-width:1.8;"/>
   </g>
   <g id="line2d_61">
    <path clip-path="url(#p47de5cce0b)" d="M 856.830602 135.74124 
L 856.830602 135.74124 
" style="fill:none;stroke:#55a868;stroke-linecap:round;stroke-width:1.8;"/>
   </g>
   <g id="line2d_62">
    <path clip-path="url(#p47de5cce0b)" d="M 856.830602 121.394584 
L 856.830602 121.394584 
" style="fill:none;stroke:#55a868;stroke-linecap:round;stroke-width:1.8;"/>
   </g>
   <g id="legend_2">
    <g id="patch_13">
     <path d="M 509.738419 124.209844 
L 596.933906 124.209844 
Q 599.309906 124.209844 599.309906 121.833844 
L 599.309906 52.226156 
Q 599.309906 49.850156 596.933906 49.850156 
L 509.738419 49.850156 
Q 507.362419 49.850156 507.362419 52.226156 
L 507.362419 121.833844 
Q 507.362419 124.209844 509.738419 124.209844 
z
" style="fill:#ffffff;opacity:0.8;stroke:#cccccc;stroke-linejoin:miter;stroke-width:0.8;"/>
    </g>
    <g id="text_23">
     <!-- Model -->
     <g style="fill:#262626;" transform="translate(533.87895 64.449731)scale(0.1296 -0.1296)">
      <use xlink:href="#DejaVuSans-4d"/>
      <use x="86.279297" xlink:href="#DejaVuSans-6f"/>
      <use x="147.460938" xlink:href="#DejaVuSans-64"/>
      <use x="210.9375" xlink:href="#DejaVuSans-65"/>
      <use x="272.460938" xlink:href="#DejaVuSans-6c"/>
     </g>
    </g>
    <g id="PathCollection_4">
     <g>
      <use style="fill:#4c72b0;stroke:#4c72b0;stroke-width:2.025;" x="523.994419" xlink:href="#m907161ac1d" y="78.99345"/>
     </g>
    </g>
    <g id="text_24">
     <!-- A2C -->
     <g style="fill:#262626;" transform="translate(545.378419 82.11195)scale(0.1188 -0.1188)">
      <use xlink:href="#DejaVuSans-41"/>
      <use x="68.408203" xlink:href="#DejaVuSans-32"/>
      <use x="132.03125" xlink:href="#DejaVuSans-43"/>
     </g>
    </g>
    <g id="PathCollection_5">
     <g>
      <use style="fill:#dd8452;stroke:#dd8452;stroke-width:2.025;" x="523.994419" xlink:href="#m449cd382bd" y="96.431062"/>
     </g>
    </g>
    <g id="text_25">
     <!-- PPO -->
     <g style="fill:#262626;" transform="translate(545.378419 99.549562)scale(0.1188 -0.1188)">
      <use xlink:href="#DejaVuSans-50"/>
      <use x="60.302734" xlink:href="#DejaVuSans-50"/>
      <use x="120.605469" xlink:href="#DejaVuSans-4f"/>
     </g>
    </g>
    <g id="PathCollection_6">
     <g>
      <use style="fill:#55a868;stroke:#55a868;stroke-width:2.025;" x="523.994419" xlink:href="#mcea1efae25" y="113.868675"/>
     </g>
    </g>
    <g id="text_26">
     <!-- Random -->
     <g style="fill:#262626;" transform="translate(545.378419 116.987175)scale(0.1188 -0.1188)">
      <use xlink:href="#DejaVuSans-52"/>
      <use x="67.232422" xlink:href="#DejaVuSans-61"/>
      <use x="128.511719" xlink:href="#DejaVuSans-6e"/>
      <use x="191.890625" xlink:href="#DejaVuSans-64"/>
      <use x="255.367188" xlink:href="#DejaVuSans-6f"/>
      <use x="316.548828" xlink:href="#DejaVuSans-6d"/>
     </g>
    </g>
   </g>
  </g>
 </g>
 <defs>
  <clipPath id="pc0ebf0fc35">
   <rect height="136.0664" width="406.180781" x="58.1718" y="18.9968"/>
  </clipPath>
  <clipPath id="p47de5cce0b">
   <rect height="136.0664" width="406.180781" x="501.422419" y="18.9968"/>
  </clipPath>
 </defs>
</svg>
