<?xml version="1.0" encoding="utf-8" standalone="no"?>
<!DOCTYPE svg PUBLIC "-//W3C//DTD SVG 1.1//EN"
  "http://www.w3.org/Graphics/SVG/1.1/DTD/svg11.dtd">
<svg height="207.36pt" version="1.1" viewBox="0 0 921.6 207.36" width="921.6pt" xmlns="http://www.w3.org/2000/svg" xmlns:xlink="http://www.w3.org/1999/xlink">
 <metadata>
  <rdf:RDF xmlns:cc="http://creativecommons.org/ns#" xmlns:dc="http://purl.org/dc/elements/1.1/" xmlns:rdf="http://www.w3.org/1999/02/22-rdf-syntax-ns#">
   <cc:Work>
    <dc:type rdf:resource="http://purl.org/dc/dcmitype/StillImage"/>
    <dc:date>2022-03-29T11:39:23.175508</dc:date>
    <dc:format>image/svg+xml</dc:format>
    <dc:creator>
     <cc:Agent>
      <dc:title>Matplotlib v3.4.3, https://matplotlib.org/</dc:title>
     </cc:Agent>
    </dc:creator>
   </cc:Work>
  </rdf:RDF>
 </metadata>
 <defs>
  <style type="text/css">*{stroke-linecap:butt;stroke-linejoin:round;}</style>
 </defs>
 <g id="figure_1">
  <g id="patch_1">
   <path d="M 0 207.36 
L 921.6 207.36 
L 921.6 0 
L 0 0 
z
" style="fill:#ffffff;"/>
  </g>
  <g id="axes_1">
   <g id="patch_2">
    <path d="M 62.977 152.508 
L 463.574981 152.508 
L 463.574981 20.552 
L 62.977 20.552 
z
" style="fill:#ffffff;"/>
   </g>
   <g id="matplotlib.axis_1">
    <g id="xtick_1">
     <g id="line2d_1">
      <path clip-path="url(#pf28cbdb11d)" d="M 77.392458 152.508 
L 77.392458 20.552 
" style="fill:none;stroke:#cccccc;stroke-linecap:round;stroke-width:0.8;"/>
     </g>
     <g id="text_1">
      <!-- 0 -->
      <g style="fill:#262626;" transform="translate(73.193208 170.837938)scale(0.132 -0.132)">
       <defs>
        <path d="M 2034 4250 
Q 1547 4250 1301 3770 
Q 1056 3291 1056 2328 
Q 1056 1369 1301 889 
Q 1547 409 2034 409 
Q 2525 409 2770 889 
Q 3016 1369 3016 2328 
Q 3016 3291 2770 3770 
Q 2525 4250 2034 4250 
z
M 2034 4750 
Q 2819 4750 3233 4129 
Q 3647 3509 3647 2328 
Q 3647 1150 3233 529 
Q 2819 -91 2034 -91 
Q 1250 -91 836 529 
Q 422 1150 422 2328 
Q 422 3509 836 4129 
Q 1250 4750 2034 4750 
z
" id="DejaVuSans-30" transform="scale(0.015625)"/>
       </defs>
       <use xlink:href="#DejaVuSans-30"/>
      </g>
     </g>
    </g>
    <g id="xtick_2">
     <g id="line2d_2">
      <path clip-path="url(#pf28cbdb11d)" d="M 151.485065 152.508 
L 151.485065 20.552 
" style="fill:none;stroke:#cccccc;stroke-linecap:round;stroke-width:0.8;"/>
     </g>
     <g id="text_2">
      <!-- 5000 -->
      <g style="fill:#262626;" transform="translate(134.688065 170.837938)scale(0.132 -0.132)">
       <defs>
        <path d="M 691 4666 
L 3169 4666 
L 3169 4134 
L 1269 4134 
L 1269 2991 
Q 1406 3038 1543 3061 
Q 1681 3084 1819 3084 
Q 2600 3084 3056 2656 
Q 3513 2228 3513 1497 
Q 3513 744 3044 326 
Q 2575 -91 1722 -91 
Q 1428 -91 1123 -41 
Q 819 9 494 109 
L 494 744 
Q 775 591 1075 516 
Q 1375 441 1709 441 
Q 2250 441 2565 725 
Q 2881 1009 2881 1497 
Q 2881 1984 2565 2268 
Q 2250 2553 1709 2553 
Q 1456 2553 1204 2497 
Q 953 2441 691 2322 
L 691 4666 
z
" id="DejaVuSans-35" transform="scale(0.015625)"/>
       </defs>
       <use xlink:href="#DejaVuSans-35"/>
       <use x="63.623047" xlink:href="#DejaVuSans-30"/>
       <use x="127.246094" xlink:href="#DejaVuSans-30"/>
       <use x="190.869141" xlink:href="#DejaVuSans-30"/>
      </g>
     </g>
    </g>
    <g id="xtick_3">
     <g id="line2d_3">
      <path clip-path="url(#pf28cbdb11d)" d="M 225.577672 152.508 
L 225.577672 20.552 
" style="fill:none;stroke:#cccccc;stroke-linecap:round;stroke-width:0.8;"/>
     </g>
     <g id="text_3">
      <!-- 10000 -->
      <g style="fill:#262626;" transform="translate(204.581422 170.837938)scale(0.132 -0.132)">
       <defs>
        <path d="M 794 531 
L 1825 531 
L 1825 4091 
L 703 3866 
L 703 4441 
L 1819 4666 
L 2450 4666 
L 2450 531 
L 3481 531 
L 3481 0 
L 794 0 
L 794 531 
z
" id="DejaVuSans-31" transform="scale(0.015625)"/>
       </defs>
       <use xlink:href="#DejaVuSans-31"/>
       <use x="63.623047" xlink:href="#DejaVuSans-30"/>
       <use x="127.246094" xlink:href="#DejaVuSans-30"/>
       <use x="190.869141" xlink:href="#DejaVuSans-30"/>
       <use x="254.492188" xlink:href="#DejaVuSans-30"/>
      </g>
     </g>
    </g>
    <g id="xtick_4">
     <g id="line2d_4">
      <path clip-path="url(#pf28cbdb11d)" d="M 299.670279 152.508 
L 299.670279 20.552 
" style="fill:none;stroke:#cccccc;stroke-linecap:round;stroke-width:0.8;"/>
     </g>
     <g id="text_4">
      <!-- 15000 -->
      <g style="fill:#262626;" transform="translate(278.674029 170.837938)scale(0.132 -0.132)">
       <use xlink:href="#DejaVuSans-31"/>
       <use x="63.623047" xlink:href="#DejaVuSans-35"/>
       <use x="127.246094" xlink:href="#DejaVuSans-30"/>
       <use x="190.869141" xlink:href="#DejaVuSans-30"/>
       <use x="254.492188" xlink:href="#DejaVuSans-30"/>
      </g>
     </g>
    </g>
    <g id="xtick_5">
     <g id="line2d_5">
      <path clip-path="url(#pf28cbdb11d)" d="M 373.762887 152.508 
L 373.762887 20.552 
" style="fill:none;stroke:#cccccc;stroke-linecap:round;stroke-width:0.8;"/>
     </g>
     <g id="text_5">
      <!-- 20000 -->
      <g style="fill:#262626;" transform="translate(352.766637 170.837938)scale(0.132 -0.132)">
       <defs>
        <path d="M 1228 531 
L 3431 531 
L 3431 0 
L 469 0 
L 469 531 
Q 828 903 1448 1529 
Q 2069 2156 2228 2338 
Q 2531 2678 2651 2914 
Q 2772 3150 2772 3378 
Q 2772 3750 2511 3984 
Q 2250 4219 1831 4219 
Q 1534 4219 1204 4116 
Q 875 4013 500 3803 
L 500 4441 
Q 881 4594 1212 4672 
Q 1544 4750 1819 4750 
Q 2544 4750 2975 4387 
Q 3406 4025 3406 3419 
Q 3406 3131 3298 2873 
Q 3191 2616 2906 2266 
Q 2828 2175 2409 1742 
Q 1991 1309 1228 531 
z
" id="DejaVuSans-32" transform="scale(0.015625)"/>
       </defs>
       <use xlink:href="#DejaVuSans-32"/>
       <use x="63.623047" xlink:href="#DejaVuSans-30"/>
       <use x="127.246094" xlink:href="#DejaVuSans-30"/>
       <use x="190.869141" xlink:href="#DejaVuSans-30"/>
       <use x="254.492188" xlink:href="#DejaVuSans-30"/>
      </g>
     </g>
    </g>
    <g id="xtick_6">
     <g id="line2d_6">
      <path clip-path="url(#pf28cbdb11d)" d="M 447.855494 152.508 
L 447.855494 20.552 
" style="fill:none;stroke:#cccccc;stroke-linecap:round;stroke-width:0.8;"/>
     </g>
     <g id="text_6">
      <!-- 25000 -->
      <g style="fill:#262626;" transform="translate(426.859244 170.837938)scale(0.132 -0.132)">
       <use xlink:href="#DejaVuSans-32"/>
       <use x="63.623047" xlink:href="#DejaVuSans-35"/>
       <use x="127.246094" xlink:href="#DejaVuSans-30"/>
       <use x="190.869141" xlink:href="#DejaVuSans-30"/>
       <use x="254.492188" xlink:href="#DejaVuSans-30"/>
      </g>
     </g>
    </g>
    <g id="text_7">
     <!-- Episode -->
     <g style="fill:#262626;" transform="translate(234.997991 188.524875)scale(0.144 -0.144)">
      <defs>
       <path d="M 628 4666 
L 3578 4666 
L 3578 4134 
L 1259 4134 
L 1259 2753 
L 3481 2753 
L 3481 2222 
L 1259 2222 
L 1259 531 
L 3634 531 
L 3634 0 
L 628 0 
L 628 4666 
z
" id="DejaVuSans-45" transform="scale(0.015625)"/>
       <path d="M 1159 525 
L 1159 -1331 
L 581 -1331 
L 581 3500 
L 1159 3500 
L 1159 2969 
Q 1341 3281 1617 3432 
Q 1894 3584 2278 3584 
Q 2916 3584 3314 3078 
Q 3713 2572 3713 1747 
Q 3713 922 3314 415 
Q 2916 -91 2278 -91 
Q 1894 -91 1617 61 
Q 1341 213 1159 525 
z
M 3116 1747 
Q 3116 2381 2855 2742 
Q 2594 3103 2138 3103 
Q 1681 3103 1420 2742 
Q 1159 2381 1159 1747 
Q 1159 1113 1420 752 
Q 1681 391 2138 391 
Q 2594 391 2855 752 
Q 3116 1113 3116 1747 
z
" id="DejaVuSans-70" transform="scale(0.015625)"/>
       <path d="M 603 3500 
L 1178 3500 
L 1178 0 
L 603 0 
L 603 3500 
z
M 603 4863 
L 1178 4863 
L 1178 4134 
L 603 4134 
L 603 4863 
z
" id="DejaVuSans-69" transform="scale(0.015625)"/>
       <path d="M 2834 3397 
L 2834 2853 
Q 2591 2978 2328 3040 
Q 2066 3103 1784 3103 
Q 1356 3103 1142 2972 
Q 928 2841 928 2578 
Q 928 2378 1081 2264 
Q 1234 2150 1697 2047 
L 1894 2003 
Q 2506 1872 2764 1633 
Q 3022 1394 3022 966 
Q 3022 478 2636 193 
Q 2250 -91 1575 -91 
Q 1294 -91 989 -36 
Q 684 19 347 128 
L 347 722 
Q 666 556 975 473 
Q 1284 391 1588 391 
Q 1994 391 2212 530 
Q 2431 669 2431 922 
Q 2431 1156 2273 1281 
Q 2116 1406 1581 1522 
L 1381 1569 
Q 847 1681 609 1914 
Q 372 2147 372 2553 
Q 372 3047 722 3315 
Q 1072 3584 1716 3584 
Q 2034 3584 2315 3537 
Q 2597 3491 2834 3397 
z
" id="DejaVuSans-73" transform="scale(0.015625)"/>
       <path d="M 1959 3097 
Q 1497 3097 1228 2736 
Q 959 2375 959 1747 
Q 959 1119 1226 758 
Q 1494 397 1959 397 
Q 2419 397 2687 759 
Q 2956 1122 2956 1747 
Q 2956 2369 2687 2733 
Q 2419 3097 1959 3097 
z
M 1959 3584 
Q 2709 3584 3137 3096 
Q 3566 2609 3566 1747 
Q 3566 888 3137 398 
Q 2709 -91 1959 -91 
Q 1206 -91 779 398 
Q 353 888 353 1747 
Q 353 2609 779 3096 
Q 1206 3584 1959 3584 
z
" id="DejaVuSans-6f" transform="scale(0.015625)"/>
       <path d="M 2906 2969 
L 2906 4863 
L 3481 4863 
L 3481 0 
L 2906 0 
L 2906 525 
Q 2725 213 2448 61 
Q 2172 -91 1784 -91 
Q 1150 -91 751 415 
Q 353 922 353 1747 
Q 353 2572 751 3078 
Q 1150 3584 1784 3584 
Q 2172 3584 2448 3432 
Q 2725 3281 2906 2969 
z
M 947 1747 
Q 947 1113 1208 752 
Q 1469 391 1925 391 
Q 2381 391 2643 752 
Q 2906 1113 2906 1747 
Q 2906 2381 2643 2742 
Q 2381 3103 1925 3103 
Q 1469 3103 1208 2742 
Q 947 2381 947 1747 
z
" id="DejaVuSans-64" transform="scale(0.015625)"/>
       <path d="M 3597 1894 
L 3597 1613 
L 953 1613 
Q 991 1019 1311 708 
Q 1631 397 2203 397 
Q 2534 397 2845 478 
Q 3156 559 3463 722 
L 3463 178 
Q 3153 47 2828 -22 
Q 2503 -91 2169 -91 
Q 1331 -91 842 396 
Q 353 884 353 1716 
Q 353 2575 817 3079 
Q 1281 3584 2069 3584 
Q 2775 3584 3186 3129 
Q 3597 2675 3597 1894 
z
M 3022 2063 
Q 3016 2534 2758 2815 
Q 2500 3097 2075 3097 
Q 1594 3097 1305 2825 
Q 1016 2553 972 2059 
L 3022 2063 
z
" id="DejaVuSans-65" transform="scale(0.015625)"/>
      </defs>
      <use xlink:href="#DejaVuSans-45"/>
      <use x="63.183594" xlink:href="#DejaVuSans-70"/>
      <use x="126.660156" xlink:href="#DejaVuSans-69"/>
      <use x="154.443359" xlink:href="#DejaVuSans-73"/>
      <use x="206.542969" xlink:href="#DejaVuSans-6f"/>
      <use x="267.724609" xlink:href="#DejaVuSans-64"/>
      <use x="331.201172" xlink:href="#DejaVuSans-65"/>
     </g>
    </g>
   </g>
   <g id="matplotlib.axis_2">
    <g id="ytick_1">
     <g id="line2d_7">
      <path clip-path="url(#pf28cbdb11d)" d="M 62.977 144.26075 
L 463.574981 144.26075 
" style="fill:none;stroke:#cccccc;stroke-linecap:round;stroke-width:0.8;"/>
     </g>
     <g id="text_8">
      <!-- 1.5 -->
      <g style="fill:#262626;" transform="translate(33.684875 149.275719)scale(0.132 -0.132)">
       <defs>
        <path d="M 684 794 
L 1344 794 
L 1344 0 
L 684 0 
L 684 794 
z
" id="DejaVuSans-2e" transform="scale(0.015625)"/>
       </defs>
       <use xlink:href="#DejaVuSans-31"/>
       <use x="63.623047" xlink:href="#DejaVuSans-2e"/>
       <use x="95.410156" xlink:href="#DejaVuSans-35"/>
      </g>
     </g>
    </g>
    <g id="ytick_2">
     <g id="line2d_8">
      <path clip-path="url(#pf28cbdb11d)" d="M 62.977 103.0245 
L 463.574981 103.0245 
" style="fill:none;stroke:#cccccc;stroke-linecap:round;stroke-width:0.8;"/>
     </g>
     <g id="text_9">
      <!-- 2.0 -->
      <g style="fill:#262626;" transform="translate(33.684875 108.039469)scale(0.132 -0.132)">
       <use xlink:href="#DejaVuSans-32"/>
       <use x="63.623047" xlink:href="#DejaVuSans-2e"/>
       <use x="95.410156" xlink:href="#DejaVuSans-30"/>
      </g>
     </g>
    </g>
    <g id="ytick_3">
     <g id="line2d_9">
      <path clip-path="url(#pf28cbdb11d)" d="M 62.977 61.78825 
L 463.574981 61.78825 
" style="fill:none;stroke:#cccccc;stroke-linecap:round;stroke-width:0.8;"/>
     </g>
     <g id="text_10">
      <!-- 2.5 -->
      <g style="fill:#262626;" transform="translate(33.684875 66.803219)scale(0.132 -0.132)">
       <use xlink:href="#DejaVuSans-32"/>
       <use x="63.623047" xlink:href="#DejaVuSans-2e"/>
       <use x="95.410156" xlink:href="#DejaVuSans-35"/>
      </g>
     </g>
    </g>
    <g id="ytick_4">
     <g id="line2d_10">
      <path clip-path="url(#pf28cbdb11d)" d="M 62.977 20.552 
L 463.574981 20.552 
" style="fill:none;stroke:#cccccc;stroke-linecap:round;stroke-width:0.8;"/>
     </g>
     <g id="text_11">
      <!-- 3.0 -->
      <g style="fill:#262626;" transform="translate(33.684875 25.566969)scale(0.132 -0.132)">
       <defs>
        <path d="M 2597 2516 
Q 3050 2419 3304 2112 
Q 3559 1806 3559 1356 
Q 3559 666 3084 287 
Q 2609 -91 1734 -91 
Q 1441 -91 1130 -33 
Q 819 25 488 141 
L 488 750 
Q 750 597 1062 519 
Q 1375 441 1716 441 
Q 2309 441 2620 675 
Q 2931 909 2931 1356 
Q 2931 1769 2642 2001 
Q 2353 2234 1838 2234 
L 1294 2234 
L 1294 2753 
L 1863 2753 
Q 2328 2753 2575 2939 
Q 2822 3125 2822 3475 
Q 2822 3834 2567 4026 
Q 2313 4219 1838 4219 
Q 1578 4219 1281 4162 
Q 984 4106 628 3988 
L 628 4550 
Q 988 4650 1302 4700 
Q 1616 4750 1894 4750 
Q 2613 4750 3031 4423 
Q 3450 4097 3450 3541 
Q 3450 3153 3228 2886 
Q 3006 2619 2597 2516 
z
" id="DejaVuSans-33" transform="scale(0.015625)"/>
       </defs>
       <use xlink:href="#DejaVuSans-33"/>
       <use x="63.623047" xlink:href="#DejaVuSans-2e"/>
       <use x="95.410156" xlink:href="#DejaVuSans-30"/>
      </g>
     </g>
    </g>
    <g id="text_12">
     <!-- Proficiency -->
     <g style="fill:#262626;" transform="translate(26.690125 125.656375)rotate(-90)scale(0.144 -0.144)">
      <defs>
       <path d="M 1259 4147 
L 1259 2394 
L 2053 2394 
Q 2494 2394 2734 2622 
Q 2975 2850 2975 3272 
Q 2975 3691 2734 3919 
Q 2494 4147 2053 4147 
L 1259 4147 
z
M 628 4666 
L 2053 4666 
Q 2838 4666 3239 4311 
Q 3641 3956 3641 3272 
Q 3641 2581 3239 2228 
Q 2838 1875 2053 1875 
L 1259 1875 
L 1259 0 
L 628 0 
L 628 4666 
z
" id="DejaVuSans-50" transform="scale(0.015625)"/>
       <path d="M 2631 2963 
Q 2534 3019 2420 3045 
Q 2306 3072 2169 3072 
Q 1681 3072 1420 2755 
Q 1159 2438 1159 1844 
L 1159 0 
L 581 0 
L 581 3500 
L 1159 3500 
L 1159 2956 
Q 1341 3275 1631 3429 
Q 1922 3584 2338 3584 
Q 2397 3584 2469 3576 
Q 2541 3569 2628 3553 
L 2631 2963 
z
" id="DejaVuSans-72" transform="scale(0.015625)"/>
       <path d="M 2375 4863 
L 2375 4384 
L 1825 4384 
Q 1516 4384 1395 4259 
Q 1275 4134 1275 3809 
L 1275 3500 
L 2222 3500 
L 2222 3053 
L 1275 3053 
L 1275 0 
L 697 0 
L 697 3053 
L 147 3053 
L 147 3500 
L 697 3500 
L 697 3744 
Q 697 4328 969 4595 
Q 1241 4863 1831 4863 
L 2375 4863 
z
" id="DejaVuSans-66" transform="scale(0.015625)"/>
       <path d="M 3122 3366 
L 3122 2828 
Q 2878 2963 2633 3030 
Q 2388 3097 2138 3097 
Q 1578 3097 1268 2742 
Q 959 2388 959 1747 
Q 959 1106 1268 751 
Q 1578 397 2138 397 
Q 2388 397 2633 464 
Q 2878 531 3122 666 
L 3122 134 
Q 2881 22 2623 -34 
Q 2366 -91 2075 -91 
Q 1284 -91 818 406 
Q 353 903 353 1747 
Q 353 2603 823 3093 
Q 1294 3584 2113 3584 
Q 2378 3584 2631 3529 
Q 2884 3475 3122 3366 
z
" id="DejaVuSans-63" transform="scale(0.015625)"/>
       <path d="M 3513 2113 
L 3513 0 
L 2938 0 
L 2938 2094 
Q 2938 2591 2744 2837 
Q 2550 3084 2163 3084 
Q 1697 3084 1428 2787 
Q 1159 2491 1159 1978 
L 1159 0 
L 581 0 
L 581 3500 
L 1159 3500 
L 1159 2956 
Q 1366 3272 1645 3428 
Q 1925 3584 2291 3584 
Q 2894 3584 3203 3211 
Q 3513 2838 3513 2113 
z
" id="DejaVuSans-6e" transform="scale(0.015625)"/>
       <path d="M 2059 -325 
Q 1816 -950 1584 -1140 
Q 1353 -1331 966 -1331 
L 506 -1331 
L 506 -850 
L 844 -850 
Q 1081 -850 1212 -737 
Q 1344 -625 1503 -206 
L 1606 56 
L 191 3500 
L 800 3500 
L 1894 763 
L 2988 3500 
L 3597 3500 
L 2059 -325 
z
" id="DejaVuSans-79" transform="scale(0.015625)"/>
      </defs>
      <use xlink:href="#DejaVuSans-50"/>
      <use x="58.552734" xlink:href="#DejaVuSans-72"/>
      <use x="97.416016" xlink:href="#DejaVuSans-6f"/>
      <use x="158.597656" xlink:href="#DejaVuSans-66"/>
      <use x="193.802734" xlink:href="#DejaVuSans-69"/>
      <use x="221.585938" xlink:href="#DejaVuSans-63"/>
      <use x="276.566406" xlink:href="#DejaVuSans-69"/>
      <use x="304.349609" xlink:href="#DejaVuSans-65"/>
      <use x="365.873047" xlink:href="#DejaVuSans-6e"/>
      <use x="429.251953" xlink:href="#DejaVuSans-63"/>
      <use x="484.232422" xlink:href="#DejaVuSans-79"/>
     </g>
    </g>
   </g>
   <g id="PolyCollection_1">
    <defs>
     <path d="M 81.185999 -88.689232 
L 81.185999 -81.925415 
L 84.979541 -85.328194 
L 88.773082 -88.634472 
L 92.566624 -86.022512 
L 96.360165 -95.142058 
L 100.153707 -91.505156 
L 103.947248 -101.840298 
L 107.74079 -106.533133 
L 111.534331 -98.746197 
L 115.327873 -112.413198 
L 119.121414 -111.727188 
L 122.914956 -108.602128 
L 126.708497 -106.723093 
L 130.502039 -117.881373 
L 134.29558 -113.889373 
L 138.089122 -120.149807 
L 141.882663 -109.323547 
L 145.676204 -112.347697 
L 149.469746 -114.020542 
L 153.263287 -110.64555 
L 157.056829 -112.718406 
L 160.85037 -115.539826 
L 164.643912 -116.866071 
L 168.437453 -121.549886 
L 172.230995 -121.902413 
L 176.024536 -119.992544 
L 179.818078 -116.148276 
L 183.611619 -125.184588 
L 187.405161 -125.341756 
L 191.198702 -117.944328 
L 194.992244 -126.506739 
L 198.785785 -129.226776 
L 202.579327 -126.666411 
L 206.372868 -123.780641 
L 210.16641 -124.476544 
L 213.959951 -129.373636 
L 217.753493 -124.856253 
L 221.547034 -122.165508 
L 225.340576 -126.369813 
L 229.134117 -125.803788 
L 232.927659 -118.9701 
L 236.7212 -119.226745 
L 240.514742 -119.969689 
L 244.308283 -101.513552 
L 248.101825 -114.685294 
L 251.895366 -112.195589 
L 255.688908 -120.552691 
L 259.482449 -110.019914 
L 263.275991 -122.806724 
L 267.069532 -112.788938 
L 270.863074 -120.136418 
L 274.656615 -111.013351 
L 278.450157 -125.776997 
L 282.243698 -126.843944 
L 286.03724 -117.543304 
L 289.830781 -118.130209 
L 293.624323 -117.43678 
L 297.417864 -112.584136 
L 301.211406 -106.491768 
L 305.004947 -112.669167 
L 308.798489 -115.770983 
L 312.59203 -120.653665 
L 316.385572 -110.475136 
L 320.179113 -114.214434 
L 323.972655 -115.397079 
L 327.766196 -104.289543 
L 331.559738 -111.927716 
L 335.353279 -115.351286 
L 339.146821 -113.129757 
L 342.940362 -123.131685 
L 346.733903 -119.419617 
L 350.527445 -120.158028 
L 354.320986 -114.293949 
L 358.114528 -126.354162 
L 361.908069 -123.97869 
L 365.701611 -128.997999 
L 369.495152 -120.948937 
L 373.288694 -121.534622 
L 377.082235 -120.076043 
L 380.875777 -121.485056 
L 384.669318 -116.461481 
L 388.46286 -122.061081 
L 392.256401 -121.176402 
L 396.049943 -124.450045 
L 399.843484 -123.216318 
L 403.637026 -123.7759 
L 407.430567 -117.261179 
L 411.224109 -118.630151 
L 415.01765 -122.832365 
L 418.811192 -119.730836 
L 422.604733 -123.3988 
L 426.398275 -124.178096 
L 430.191816 -128.778039 
L 433.985358 -119.848164 
L 437.778899 -126.731224 
L 441.572441 -130.063203 
L 445.365982 -129.661202 
L 445.365982 -144.846005 
L 445.365982 -144.846005 
L 441.572441 -141.876416 
L 437.778899 -143.160658 
L 433.985358 -146.277979 
L 430.191816 -146.090876 
L 426.398275 -139.978432 
L 422.604733 -141.645553 
L 418.811192 -129.955493 
L 415.01765 -133.236991 
L 411.224109 -144.328059 
L 407.430567 -146.076802 
L 403.637026 -134.327559 
L 399.843484 -138.666156 
L 396.049943 -133.838102 
L 392.256401 -137.260966 
L 388.46286 -131.264992 
L 384.669318 -135.281886 
L 380.875777 -141.578169 
L 377.082235 -143.320941 
L 373.288694 -136.754878 
L 369.495152 -145.955292 
L 365.701611 -138.055427 
L 361.908069 -135.371789 
L 358.114528 -138.670817 
L 354.320986 -134.612023 
L 350.527445 -145.420385 
L 346.733903 -135.062241 
L 342.940362 -137.765532 
L 339.146821 -134.879811 
L 335.353279 -130.160611 
L 331.559738 -133.165898 
L 327.766196 -140.999041 
L 323.972655 -129.675756 
L 320.179113 -128.77009 
L 316.385572 -126.576108 
L 312.59203 -127.129542 
L 308.798489 -142.693641 
L 305.004947 -137.265594 
L 301.211406 -136.855406 
L 297.417864 -148.639375 
L 293.624323 -144.427142 
L 289.830781 -136.011253 
L 286.03724 -141.562979 
L 282.243698 -137.028457 
L 278.450157 -137.438478 
L 274.656615 -137.862456 
L 270.863074 -128.423582 
L 267.069532 -131.570403 
L 263.275991 -139.298671 
L 259.482449 -130.329255 
L 255.688908 -129.072342 
L 251.895366 -132.300315 
L 248.101825 -141.545146 
L 244.308283 -137.73752 
L 240.514742 -146.904924 
L 236.7212 -146.307472 
L 232.927659 -135.337121 
L 229.134117 -144.00445 
L 225.340576 -135.608362 
L 221.547034 -140.304374 
L 217.753493 -142.786747 
L 213.959951 -150.711583 
L 210.16641 -149.073654 
L 206.372868 -146.069957 
L 202.579327 -143.290805 
L 198.785785 -141.927569 
L 194.992244 -139.667907 
L 191.198702 -137.685561 
L 187.405161 -134.723378 
L 183.611619 -134.880919 
L 179.818078 -131.763572 
L 176.024536 -130.148607 
L 172.230995 -134.311591 
L 168.437453 -133.52001 
L 164.643912 -129.679713 
L 160.85037 -132.908737 
L 157.056829 -126.352157 
L 153.263287 -132.056586 
L 149.469746 -130.74448 
L 145.676204 -133.349908 
L 141.882663 -137.950507 
L 138.089122 -130.902642 
L 134.29558 -127.419638 
L 130.502039 -130.511193 
L 126.708497 -124.962955 
L 122.914956 -123.313423 
L 119.121414 -118.778627 
L 115.327873 -121.060276 
L 111.534331 -127.139899 
L 107.74079 -118.018305 
L 103.947248 -104.105557 
L 100.153707 -108.884863 
L 96.360165 -113.999633 
L 92.566624 -99.781299 
L 88.773082 -103.678312 
L 84.979541 -101.128561 
L 81.185999 -88.689232 
z
" id="m8ccab8b623" style="stroke:#4c72b0;stroke-opacity:0.2;stroke-width:0.8;"/>
    </defs>
    <g clip-path="url(#pf28cbdb11d)">
     <use style="fill:#4c72b0;fill-opacity:0.2;stroke:#4c72b0;stroke-opacity:0.2;stroke-width:0.8;" x="0" xlink:href="#m8ccab8b623" y="207.36"/>
    </g>
   </g>
   <g id="PolyCollection_2">
    <defs>
     <path d="M 84.801718 -82.673822 
L 84.801718 -72.719547 
L 92.210979 -80.101206 
L 99.62024 -76.021418 
L 107.029501 -80.514011 
L 114.438761 -85.027078 
L 121.848022 -81.915664 
L 129.257283 -89.042169 
L 136.666543 -83.944036 
L 144.075804 -87.388958 
L 151.485065 -93.096694 
L 158.894326 -89.064686 
L 166.303586 -96.672141 
L 173.712847 -99.58722 
L 181.122108 -103.627311 
L 188.531369 -110.302626 
L 195.940629 -107.31695 
L 203.34989 -112.824922 
L 210.759151 -116.363784 
L 218.168411 -121.679304 
L 225.577672 -118.347994 
L 232.986933 -124.780086 
L 240.396194 -123.923655 
L 247.805454 -126.288746 
L 255.214715 -131.728368 
L 262.623976 -128.674163 
L 270.033236 -127.290662 
L 277.442497 -131.380516 
L 284.851758 -126.873828 
L 292.261019 -128.825998 
L 299.670279 -139.045783 
L 307.07954 -127.737959 
L 314.488801 -128.786519 
L 321.898062 -136.679341 
L 329.307322 -136.071103 
L 336.716583 -134.402466 
L 344.125844 -141.583981 
L 351.535104 -135.925671 
L 358.944365 -144.848276 
L 366.353626 -144.877502 
L 373.762887 -139.796063 
L 381.172147 -134.551206 
L 388.581408 -139.269581 
L 395.990669 -139.362673 
L 403.39993 -141.151744 
L 410.80919 -139.932593 
L 418.218451 -136.713994 
L 425.627712 -140.453403 
L 433.036972 -142.096011 
L 433.036972 -150.833035 
L 433.036972 -150.833035 
L 425.627712 -151.126233 
L 418.218451 -147.198412 
L 410.80919 -151.560032 
L 403.39993 -151.900379 
L 395.990669 -147.880694 
L 388.581408 -149.917031 
L 381.172147 -151.980651 
L 373.762887 -149.41134 
L 366.353626 -155.235746 
L 358.944365 -149.188975 
L 351.535104 -146.893988 
L 344.125844 -150.469358 
L 336.716583 -145.79831 
L 329.307322 -150.600548 
L 321.898062 -150.975271 
L 314.488801 -140.908831 
L 307.07954 -149.057366 
L 299.670279 -145.46871 
L 292.261019 -139.271025 
L 284.851758 -143.392978 
L 277.442497 -148.116915 
L 270.033236 -132.491147 
L 262.623976 -138.71058 
L 255.214715 -136.050169 
L 247.805454 -136.461965 
L 240.396194 -133.215307 
L 232.986933 -129.264078 
L 225.577672 -131.944522 
L 218.168411 -133.864309 
L 210.759151 -131.743357 
L 203.34989 -127.571607 
L 195.940629 -125.830175 
L 188.531369 -122.538728 
L 181.122108 -117.307746 
L 173.712847 -118.236089 
L 166.303586 -111.045757 
L 158.894326 -111.801727 
L 151.485065 -109.371623 
L 144.075804 -99.941946 
L 136.666543 -101.640805 
L 129.257283 -96.369527 
L 121.848022 -91.933151 
L 114.438761 -88.753666 
L 107.029501 -97.856108 
L 99.62024 -88.134935 
L 92.210979 -90.558414 
L 84.801718 -82.673822 
z
" id="me25b5fb1a7" style="stroke:#dd8452;stroke-opacity:0.2;stroke-width:0.8;"/>
    </defs>
    <g clip-path="url(#pf28cbdb11d)">
     <use style="fill:#dd8452;fill-opacity:0.2;stroke:#dd8452;stroke-opacity:0.2;stroke-width:0.8;" x="0" xlink:href="#me25b5fb1a7" y="207.36"/>
    </g>
   </g>
   <g id="PolyCollection_3">
    <defs>
     <path d="M 81.185999 -80.847801 
L 81.185999 -67.880117 
L 84.979541 -80.340477 
L 88.773082 -74.300498 
L 92.566624 -73.146652 
L 96.360165 -69.813969 
L 100.153707 -70.114444 
L 103.947248 -78.007525 
L 107.74079 -72.251217 
L 111.534331 -74.560849 
L 115.327873 -68.830695 
L 119.121414 -72.532361 
L 122.914956 -76.616794 
L 126.708497 -75.908946 
L 130.502039 -69.822989 
L 134.29558 -76.483642 
L 138.089122 -72.135111 
L 141.882663 -73.479561 
L 145.676204 -74.969774 
L 149.469746 -72.841438 
L 153.263287 -74.469856 
L 157.056829 -70.759811 
L 160.85037 -69.340194 
L 164.643912 -69.271615 
L 168.437453 -68.693987 
L 172.230995 -73.738192 
L 176.024536 -70.153313 
L 179.818078 -72.539272 
L 183.611619 -71.464918 
L 187.405161 -70.926072 
L 191.198702 -71.583538 
L 194.992244 -74.236114 
L 198.785785 -63.638181 
L 202.579327 -64.266217 
L 206.372868 -71.30292 
L 210.16641 -73.204823 
L 213.959951 -77.747906 
L 217.753493 -77.484096 
L 221.547034 -76.686224 
L 225.340576 -67.536595 
L 229.134117 -65.863603 
L 232.927659 -77.191882 
L 236.7212 -72.533618 
L 240.514742 -72.045704 
L 244.308283 -67.258497 
L 248.101825 -73.236098 
L 251.895366 -74.83914 
L 255.688908 -69.437611 
L 259.482449 -67.953072 
L 263.275991 -76.645579 
L 267.069532 -72.925501 
L 270.863074 -70.459731 
L 274.656615 -71.236395 
L 278.450157 -73.481873 
L 282.243698 -67.070229 
L 286.03724 -74.466016 
L 289.830781 -77.110245 
L 293.624323 -75.557832 
L 297.417864 -74.022595 
L 301.211406 -73.102293 
L 305.004947 -75.507671 
L 308.798489 -75.544623 
L 312.59203 -69.8268 
L 316.385572 -75.116909 
L 320.179113 -72.896162 
L 323.972655 -68.075221 
L 327.766196 -71.797393 
L 331.559738 -75.835162 
L 335.353279 -74.180777 
L 339.146821 -78.588517 
L 342.940362 -67.826535 
L 346.733903 -74.623726 
L 350.527445 -72.83366 
L 354.320986 -72.717239 
L 358.114528 -64.872483 
L 361.908069 -72.151848 
L 365.701611 -66.089523 
L 369.495152 -75.095406 
L 373.288694 -75.698749 
L 377.082235 -65.404499 
L 380.875777 -75.750733 
L 384.669318 -67.883071 
L 388.46286 -75.214792 
L 392.256401 -73.98061 
L 396.049943 -66.546024 
L 399.843484 -62.031209 
L 403.637026 -73.855033 
L 407.430567 -72.128873 
L 411.224109 -72.002206 
L 415.01765 -73.983782 
L 418.811192 -69.987291 
L 422.604733 -70.697085 
L 426.398275 -72.993765 
L 430.191816 -71.845718 
L 433.985358 -65.740822 
L 437.778899 -77.317757 
L 441.572441 -79.027217 
L 445.365982 -77.232955 
L 445.365982 -86.475697 
L 445.365982 -86.475697 
L 441.572441 -85.605494 
L 437.778899 -86.286192 
L 433.985358 -84.345696 
L 430.191816 -89.227123 
L 426.398275 -89.48818 
L 422.604733 -81.515212 
L 418.811192 -75.861283 
L 415.01765 -84.43847 
L 411.224109 -89.539502 
L 407.430567 -82.245464 
L 403.637026 -87.404078 
L 399.843484 -86.573348 
L 396.049943 -91.789237 
L 392.256401 -84.608306 
L 388.46286 -83.797134 
L 384.669318 -83.369628 
L 380.875777 -82.964254 
L 377.082235 -84.22798 
L 373.288694 -85.701458 
L 369.495152 -89.644777 
L 365.701611 -87.984285 
L 361.908069 -81.815918 
L 358.114528 -83.552488 
L 354.320986 -87.362665 
L 350.527445 -84.06871 
L 346.733903 -93.262104 
L 342.940362 -85.256276 
L 339.146821 -85.59024 
L 335.353279 -84.739161 
L 331.559738 -79.939934 
L 327.766196 -91.254964 
L 323.972655 -87.106985 
L 320.179113 -93.522396 
L 316.385572 -88.593255 
L 312.59203 -85.828753 
L 308.798489 -85.503046 
L 305.004947 -82.797746 
L 301.211406 -79.964877 
L 297.417864 -91.442541 
L 293.624323 -90.396131 
L 289.830781 -84.67717 
L 286.03724 -86.86046 
L 282.243698 -86.496958 
L 278.450157 -81.896035 
L 274.656615 -87.248913 
L 270.863074 -85.970918 
L 267.069532 -78.896314 
L 263.275991 -88.37532 
L 259.482449 -82.936756 
L 255.688908 -90.322639 
L 251.895366 -85.691405 
L 248.101825 -83.882034 
L 244.308283 -79.792132 
L 240.514742 -85.03444 
L 236.7212 -80.312424 
L 232.927659 -92.366968 
L 229.134117 -81.991886 
L 225.340576 -89.282745 
L 221.547034 -80.647459 
L 217.753493 -83.671838 
L 213.959951 -85.956899 
L 210.16641 -79.614994 
L 206.372868 -84.308788 
L 202.579327 -84.110122 
L 198.785785 -78.611983 
L 194.992244 -82.134942 
L 191.198702 -94.502062 
L 187.405161 -86.490115 
L 183.611619 -85.056257 
L 179.818078 -81.881338 
L 176.024536 -90.946712 
L 172.230995 -88.572218 
L 168.437453 -82.198983 
L 164.643912 -79.882897 
L 160.85037 -80.813253 
L 157.056829 -83.974373 
L 153.263287 -90.159024 
L 149.469746 -86.25312 
L 145.676204 -86.951156 
L 141.882663 -87.652547 
L 138.089122 -85.133071 
L 134.29558 -81.484165 
L 130.502039 -82.831933 
L 126.708497 -84.225537 
L 122.914956 -85.236041 
L 119.121414 -79.06342 
L 115.327873 -81.169876 
L 111.534331 -83.330756 
L 107.74079 -85.455813 
L 103.947248 -82.319522 
L 100.153707 -77.781343 
L 96.360165 -83.010845 
L 92.566624 -90.490816 
L 88.773082 -87.486581 
L 84.979541 -85.936031 
L 81.185999 -80.847801 
z
" id="mf366238dab" style="stroke:#55a868;stroke-opacity:0.2;stroke-width:0.8;"/>
    </defs>
    <g clip-path="url(#pf28cbdb11d)">
     <use style="fill:#55a868;fill-opacity:0.2;stroke:#55a868;stroke-opacity:0.2;stroke-width:0.8;" x="0" xlink:href="#mf366238dab" y="207.36"/>
    </g>
   </g>
   <g id="line2d_11">
    <path clip-path="url(#pf28cbdb11d)" d="M 81.185999 122.052677 
L 84.979541 114.131622 
L 88.773082 111.203608 
L 92.566624 114.458094 
L 96.360165 102.789154 
L 100.153707 107.16499 
L 103.947248 104.387073 
L 107.74079 95.084281 
L 111.534331 94.416952 
L 115.327873 90.623263 
L 119.121414 92.107093 
L 122.914956 91.402225 
L 126.708497 91.516976 
L 130.502039 83.163717 
L 134.29558 86.705495 
L 138.089122 81.833775 
L 141.882663 83.722973 
L 145.676204 84.511197 
L 149.469746 84.977489 
L 153.263287 86.008932 
L 157.056829 87.824719 
L 160.85037 83.135718 
L 164.643912 84.087108 
L 168.437453 79.825052 
L 172.230995 79.252998 
L 176.024536 82.289425 
L 179.818078 83.404076 
L 183.611619 77.327247 
L 187.405161 77.327433 
L 191.198702 79.545055 
L 194.992244 74.272677 
L 198.785785 71.782828 
L 202.579327 72.381392 
L 206.372868 72.434701 
L 210.16641 70.584901 
L 213.959951 67.317391 
L 217.753493 73.5385 
L 221.547034 76.125059 
L 225.340576 76.370912 
L 229.134117 72.455881 
L 232.927659 80.20639 
L 236.7212 74.592891 
L 240.514742 73.922694 
L 244.308283 87.734464 
L 248.101825 79.24478 
L 251.895366 85.112048 
L 255.688908 82.547483 
L 259.482449 87.185415 
L 263.275991 76.307303 
L 267.069532 85.180329 
L 270.863074 83.08 
L 274.656615 82.922097 
L 278.450157 75.752263 
L 282.243698 75.423799 
L 286.03724 77.806858 
L 289.830781 80.289269 
L 293.624323 76.428039 
L 297.417864 76.748245 
L 301.211406 85.686413 
L 305.004947 82.392619 
L 308.798489 78.127688 
L 312.59203 83.468397 
L 316.385572 88.834378 
L 320.179113 85.867738 
L 323.972655 84.823582 
L 327.766196 84.715708 
L 331.559738 84.813193 
L 335.353279 84.604051 
L 339.146821 83.355216 
L 342.940362 76.911392 
L 346.733903 80.119071 
L 350.527445 74.570793 
L 354.320986 82.907014 
L 358.114528 74.84751 
L 361.908069 77.68476 
L 365.701611 73.833287 
L 369.495152 73.907885 
L 373.288694 78.21525 
L 377.082235 75.661508 
L 380.875777 75.828388 
L 384.669318 81.488316 
L 388.46286 80.696964 
L 392.256401 78.141316 
L 396.049943 78.215927 
L 399.843484 76.418763 
L 403.637026 78.308271 
L 407.430567 75.691009 
L 411.224109 75.880895 
L 415.01765 79.325322 
L 418.811192 82.516836 
L 422.604733 74.837824 
L 426.398275 75.281736 
L 430.191816 69.925542 
L 433.985358 74.296929 
L 437.778899 72.414059 
L 441.572441 71.39019 
L 445.365982 70.106397 
" style="fill:none;stroke:#4c72b0;stroke-linecap:round;"/>
   </g>
   <g id="line2d_12">
    <path clip-path="url(#pf28cbdb11d)" d="M 84.801718 129.663316 
L 92.210979 122.03019 
L 99.62024 125.281823 
L 107.029501 118.174941 
L 114.438761 120.469628 
L 121.848022 120.435592 
L 129.257283 114.654152 
L 136.666543 114.567579 
L 144.075804 113.694548 
L 151.485065 106.125842 
L 158.894326 106.926793 
L 166.303586 103.501051 
L 173.712847 98.448345 
L 181.122108 96.892472 
L 188.531369 90.939323 
L 195.940629 90.786437 
L 203.34989 87.161736 
L 210.759151 83.30643 
L 218.168411 79.588193 
L 225.577672 82.213742 
L 232.986933 80.337918 
L 240.396194 78.790519 
L 247.805454 75.984644 
L 255.214715 73.470732 
L 262.623976 73.667628 
L 270.033236 77.469095 
L 277.442497 67.611285 
L 284.851758 72.226597 
L 292.261019 73.311489 
L 299.670279 65.102753 
L 307.07954 68.962337 
L 314.488801 72.512325 
L 321.898062 63.532694 
L 329.307322 64.024174 
L 336.716583 67.259612 
L 344.125844 61.333331 
L 351.535104 65.95017 
L 358.944365 60.341375 
L 366.353626 57.303376 
L 373.762887 62.756298 
L 381.172147 64.094071 
L 388.581408 62.766694 
L 395.990669 63.738317 
L 403.39993 60.833939 
L 410.80919 61.613687 
L 418.218451 65.403797 
L 425.627712 61.570182 
L 433.036972 60.895477 
" style="fill:none;stroke:#dd8452;stroke-dasharray:4,1.5;stroke-dashoffset:0;"/>
   </g>
   <g id="line2d_13">
    <path clip-path="url(#pf28cbdb11d)" d="M 81.185999 132.996041 
L 84.979541 124.221746 
L 88.773082 126.46646 
L 92.566624 125.541266 
L 96.360165 130.947593 
L 100.153707 133.412107 
L 103.947248 127.196476 
L 107.74079 128.506485 
L 111.534331 128.414197 
L 115.327873 132.359715 
L 119.121414 131.56211 
L 122.914956 126.433583 
L 126.708497 127.292758 
L 130.502039 131.032539 
L 134.29558 128.376097 
L 138.089122 128.725909 
L 141.882663 126.793946 
L 145.676204 126.399535 
L 149.469746 127.812721 
L 153.263287 125.04556 
L 157.056829 129.992908 
L 160.85037 132.283276 
L 164.643912 132.782744 
L 168.437453 131.913515 
L 172.230995 126.204795 
L 176.024536 126.809987 
L 179.818078 130.149695 
L 183.611619 129.099413 
L 187.405161 128.651907 
L 191.198702 124.3172 
L 194.992244 129.174472 
L 198.785785 136.234918 
L 202.579327 133.171831 
L 206.372868 129.554146 
L 210.16641 130.950092 
L 213.959951 125.507597 
L 217.753493 126.782033 
L 221.547034 128.693158 
L 225.340576 128.95033 
L 229.134117 133.432255 
L 232.927659 122.580575 
L 236.7212 130.936979 
L 240.514742 128.819928 
L 244.308283 133.834685 
L 248.101825 128.800934 
L 251.895366 127.094727 
L 255.688908 127.479875 
L 259.482449 131.915086 
L 263.275991 124.849551 
L 267.069532 131.449092 
L 270.863074 129.144676 
L 274.656615 128.117346 
L 278.450157 129.671046 
L 282.243698 130.576406 
L 286.03724 126.696762 
L 289.830781 126.466293 
L 293.624323 124.383018 
L 297.417864 124.627432 
L 301.211406 130.826415 
L 305.004947 128.207291 
L 308.798489 126.836165 
L 312.59203 129.532224 
L 316.385572 125.504918 
L 320.179113 124.150721 
L 323.972655 129.768897 
L 327.766196 125.833822 
L 331.559738 129.472452 
L 335.353279 127.900031 
L 339.146821 125.270621 
L 342.940362 130.818594 
L 346.733903 123.417085 
L 350.527445 128.908815 
L 354.320986 127.320048 
L 358.114528 133.147514 
L 361.908069 130.376117 
L 365.701611 130.323096 
L 369.495152 124.989908 
L 373.288694 126.659896 
L 377.082235 132.54376 
L 380.875777 128.002507 
L 384.669318 131.73365 
L 388.46286 127.854037 
L 392.256401 128.065542 
L 396.049943 128.19237 
L 399.843484 133.057722 
L 403.637026 126.730445 
L 407.430567 130.172832 
L 411.224109 126.589146 
L 415.01765 128.148874 
L 418.811192 134.435713 
L 422.604733 131.253851 
L 426.398275 126.119028 
L 430.191816 126.82358 
L 433.985358 132.316741 
L 437.778899 125.558026 
L 441.572441 125.043644 
L 445.365982 125.505674 
" style="fill:none;stroke:#55a868;stroke-dasharray:1,1;stroke-dashoffset:0;"/>
   </g>
   <g id="line2d_14"/>
   <g id="line2d_15"/>
   <g id="line2d_16"/>
   <g id="patch_3">
    <path d="M 62.977 152.508 
L 62.977 20.552 
" style="fill:none;stroke:#cccccc;stroke-linecap:square;stroke-linejoin:miter;"/>
   </g>
   <g id="patch_4">
    <path d="M 463.574981 152.508 
L 463.574981 20.552 
" style="fill:none;stroke:#cccccc;stroke-linecap:square;stroke-linejoin:miter;"/>
   </g>
   <g id="patch_5">
    <path d="M 62.977 152.508 
L 463.574981 152.508 
" style="fill:none;stroke:#cccccc;stroke-linecap:square;stroke-linejoin:miter;"/>
   </g>
   <g id="patch_6">
    <path d="M 62.977 20.552 
L 463.574981 20.552 
" style="fill:none;stroke:#cccccc;stroke-linecap:square;stroke-linejoin:miter;"/>
   </g>
   <g id="legend_1">
    <g id="patch_7">
     <path d="M 72.217 109.773875 
L 169.100875 109.773875 
Q 171.740875 109.773875 171.740875 107.133875 
L 171.740875 29.792 
Q 171.740875 27.152 169.100875 27.152 
L 72.217 27.152 
Q 69.577 27.152 69.577 29.792 
L 69.577 107.133875 
Q 69.577 109.773875 72.217 109.773875 
z
" style="fill:#ffffff;opacity:0.8;stroke:#cccccc;stroke-linejoin:miter;stroke-width:0.8;"/>
    </g>
    <g id="text_13">
     <!-- Model -->
     <g style="fill:#262626;" transform="translate(99.039812 43.37375)scale(0.144 -0.144)">
      <defs>
       <path d="M 628 4666 
L 1569 4666 
L 2759 1491 
L 3956 4666 
L 4897 4666 
L 4897 0 
L 4281 0 
L 4281 4097 
L 3078 897 
L 2444 897 
L 1241 4097 
L 1241 0 
L 628 0 
L 628 4666 
z
" id="DejaVuSans-4d" transform="scale(0.015625)"/>
       <path d="M 603 4863 
L 1178 4863 
L 1178 0 
L 603 0 
L 603 4863 
z
" id="DejaVuSans-6c" transform="scale(0.015625)"/>
      </defs>
      <use xlink:href="#DejaVuSans-4d"/>
      <use x="86.279297" xlink:href="#DejaVuSans-6f"/>
      <use x="147.460938" xlink:href="#DejaVuSans-64"/>
      <use x="210.9375" xlink:href="#DejaVuSans-65"/>
      <use x="272.460938" xlink:href="#DejaVuSans-6c"/>
     </g>
    </g>
    <g id="line2d_17">
     <path d="M 74.857 58.378438 
L 101.257 58.378438 
" style="fill:none;stroke:#4c72b0;stroke-linecap:round;"/>
    </g>
    <g id="line2d_18"/>
    <g id="text_14">
     <!-- A2C -->
     <g style="fill:#262626;" transform="translate(111.817 62.998438)scale(0.132 -0.132)">
      <defs>
       <path d="M 2188 4044 
L 1331 1722 
L 3047 1722 
L 2188 4044 
z
M 1831 4666 
L 2547 4666 
L 4325 0 
L 3669 0 
L 3244 1197 
L 1141 1197 
L 716 0 
L 50 0 
L 1831 4666 
z
" id="DejaVuSans-41" transform="scale(0.015625)"/>
       <path d="M 4122 4306 
L 4122 3641 
Q 3803 3938 3442 4084 
Q 3081 4231 2675 4231 
Q 1875 4231 1450 3742 
Q 1025 3253 1025 2328 
Q 1025 1406 1450 917 
Q 1875 428 2675 428 
Q 3081 428 3442 575 
Q 3803 722 4122 1019 
L 4122 359 
Q 3791 134 3420 21 
Q 3050 -91 2638 -91 
Q 1578 -91 968 557 
Q 359 1206 359 2328 
Q 359 3453 968 4101 
Q 1578 4750 2638 4750 
Q 3056 4750 3426 4639 
Q 3797 4528 4122 4306 
z
" id="DejaVuSans-43" transform="scale(0.015625)"/>
      </defs>
      <use xlink:href="#DejaVuSans-41"/>
      <use x="68.408203" xlink:href="#DejaVuSans-32"/>
      <use x="132.03125" xlink:href="#DejaVuSans-43"/>
     </g>
    </g>
    <g id="line2d_19">
     <path d="M 74.857 77.753563 
L 101.257 77.753563 
" style="fill:none;stroke:#dd8452;stroke-dasharray:4,1.5;stroke-dashoffset:0;"/>
    </g>
    <g id="line2d_20"/>
    <g id="text_15">
     <!-- PPO -->
     <g style="fill:#262626;" transform="translate(111.817 82.373563)scale(0.132 -0.132)">
      <defs>
       <path d="M 2522 4238 
Q 1834 4238 1429 3725 
Q 1025 3213 1025 2328 
Q 1025 1447 1429 934 
Q 1834 422 2522 422 
Q 3209 422 3611 934 
Q 4013 1447 4013 2328 
Q 4013 3213 3611 3725 
Q 3209 4238 2522 4238 
z
M 2522 4750 
Q 3503 4750 4090 4092 
Q 4678 3434 4678 2328 
Q 4678 1225 4090 567 
Q 3503 -91 2522 -91 
Q 1538 -91 948 565 
Q 359 1222 359 2328 
Q 359 3434 948 4092 
Q 1538 4750 2522 4750 
z
" id="DejaVuSans-4f" transform="scale(0.015625)"/>
      </defs>
      <use xlink:href="#DejaVuSans-50"/>
      <use x="60.302734" xlink:href="#DejaVuSans-50"/>
      <use x="120.605469" xlink:href="#DejaVuSans-4f"/>
     </g>
    </g>
    <g id="line2d_21">
     <path d="M 74.857 97.128688 
L 101.257 97.128688 
" style="fill:none;stroke:#55a868;stroke-dasharray:1,1;stroke-dashoffset:0;"/>
    </g>
    <g id="line2d_22"/>
    <g id="text_16">
     <!-- Random -->
     <g style="fill:#262626;" transform="translate(111.817 101.748688)scale(0.132 -0.132)">
      <defs>
       <path d="M 2841 2188 
Q 3044 2119 3236 1894 
Q 3428 1669 3622 1275 
L 4263 0 
L 3584 0 
L 2988 1197 
Q 2756 1666 2539 1819 
Q 2322 1972 1947 1972 
L 1259 1972 
L 1259 0 
L 628 0 
L 628 4666 
L 2053 4666 
Q 2853 4666 3247 4331 
Q 3641 3997 3641 3322 
Q 3641 2881 3436 2590 
Q 3231 2300 2841 2188 
z
M 1259 4147 
L 1259 2491 
L 2053 2491 
Q 2509 2491 2742 2702 
Q 2975 2913 2975 3322 
Q 2975 3731 2742 3939 
Q 2509 4147 2053 4147 
L 1259 4147 
z
" id="DejaVuSans-52" transform="scale(0.015625)"/>
       <path d="M 2194 1759 
Q 1497 1759 1228 1600 
Q 959 1441 959 1056 
Q 959 750 1161 570 
Q 1363 391 1709 391 
Q 2188 391 2477 730 
Q 2766 1069 2766 1631 
L 2766 1759 
L 2194 1759 
z
M 3341 1997 
L 3341 0 
L 2766 0 
L 2766 531 
Q 2569 213 2275 61 
Q 1981 -91 1556 -91 
Q 1019 -91 701 211 
Q 384 513 384 1019 
Q 384 1609 779 1909 
Q 1175 2209 1959 2209 
L 2766 2209 
L 2766 2266 
Q 2766 2663 2505 2880 
Q 2244 3097 1772 3097 
Q 1472 3097 1187 3025 
Q 903 2953 641 2809 
L 641 3341 
Q 956 3463 1253 3523 
Q 1550 3584 1831 3584 
Q 2591 3584 2966 3190 
Q 3341 2797 3341 1997 
z
" id="DejaVuSans-61" transform="scale(0.015625)"/>
       <path d="M 3328 2828 
Q 3544 3216 3844 3400 
Q 4144 3584 4550 3584 
Q 5097 3584 5394 3201 
Q 5691 2819 5691 2113 
L 5691 0 
L 5113 0 
L 5113 2094 
Q 5113 2597 4934 2840 
Q 4756 3084 4391 3084 
Q 3944 3084 3684 2787 
Q 3425 2491 3425 1978 
L 3425 0 
L 2847 0 
L 2847 2094 
Q 2847 2600 2669 2842 
Q 2491 3084 2119 3084 
Q 1678 3084 1418 2786 
Q 1159 2488 1159 1978 
L 1159 0 
L 581 0 
L 581 3500 
L 1159 3500 
L 1159 2956 
Q 1356 3278 1631 3431 
Q 1906 3584 2284 3584 
Q 2666 3584 2933 3390 
Q 3200 3197 3328 2828 
z
" id="DejaVuSans-6d" transform="scale(0.015625)"/>
      </defs>
      <use xlink:href="#DejaVuSans-52"/>
      <use x="67.232422" xlink:href="#DejaVuSans-61"/>
      <use x="128.511719" xlink:href="#DejaVuSans-6e"/>
      <use x="191.890625" xlink:href="#DejaVuSans-64"/>
      <use x="255.367188" xlink:href="#DejaVuSans-6f"/>
      <use x="316.548828" xlink:href="#DejaVuSans-6d"/>
     </g>
    </g>
   </g>
  </g>
  <g id="axes_2">
   <g id="patch_8">
    <path d="M 505.450019 152.508 
L 906.048 152.508 
L 906.048 20.552 
L 505.450019 20.552 
z
" style="fill:#ffffff;"/>
   </g>
   <g id="matplotlib.axis_3">
    <g id="xtick_7">
     <g id="text_17">
      <!-- 1 -->
      <g style="fill:#262626;" transform="translate(551.325516 170.837938)scale(0.132 -0.132)">
       <use xlink:href="#DejaVuSans-31"/>
      </g>
     </g>
    </g>
    <g id="xtick_8">
     <g id="text_18">
      <!-- 3 -->
      <g style="fill:#262626;" transform="translate(651.475012 170.837938)scale(0.132 -0.132)">
       <use xlink:href="#DejaVuSans-33"/>
      </g>
     </g>
    </g>
    <g id="xtick_9">
     <g id="text_19">
      <!-- 5 -->
      <g style="fill:#262626;" transform="translate(751.624507 170.837938)scale(0.132 -0.132)">
       <use xlink:href="#DejaVuSans-35"/>
      </g>
     </g>
    </g>
    <g id="xtick_10">
     <g id="text_20">
      <!-- 7 -->
      <g style="fill:#262626;" transform="translate(851.774002 170.837938)scale(0.132 -0.132)">
       <defs>
        <path d="M 525 4666 
L 3525 4666 
L 3525 4397 
L 1831 0 
L 1172 0 
L 2766 4134 
L 525 4134 
L 525 4666 
z
" id="DejaVuSans-37" transform="scale(0.015625)"/>
       </defs>
       <use xlink:href="#DejaVuSans-37"/>
      </g>
     </g>
    </g>
    <g id="text_21">
     <!-- Number of skills -->
     <g style="fill:#262626;" transform="translate(647.637134 188.524875)scale(0.144 -0.144)">
      <defs>
       <path d="M 628 4666 
L 1478 4666 
L 3547 763 
L 3547 4666 
L 4159 4666 
L 4159 0 
L 3309 0 
L 1241 3903 
L 1241 0 
L 628 0 
L 628 4666 
z
" id="DejaVuSans-4e" transform="scale(0.015625)"/>
       <path d="M 544 1381 
L 544 3500 
L 1119 3500 
L 1119 1403 
Q 1119 906 1312 657 
Q 1506 409 1894 409 
Q 2359 409 2629 706 
Q 2900 1003 2900 1516 
L 2900 3500 
L 3475 3500 
L 3475 0 
L 2900 0 
L 2900 538 
Q 2691 219 2414 64 
Q 2138 -91 1772 -91 
Q 1169 -91 856 284 
Q 544 659 544 1381 
z
M 1991 3584 
L 1991 3584 
z
" id="DejaVuSans-75" transform="scale(0.015625)"/>
       <path d="M 3116 1747 
Q 3116 2381 2855 2742 
Q 2594 3103 2138 3103 
Q 1681 3103 1420 2742 
Q 1159 2381 1159 1747 
Q 1159 1113 1420 752 
Q 1681 391 2138 391 
Q 2594 391 2855 752 
Q 3116 1113 3116 1747 
z
M 1159 2969 
Q 1341 3281 1617 3432 
Q 1894 3584 2278 3584 
Q 2916 3584 3314 3078 
Q 3713 2572 3713 1747 
Q 3713 922 3314 415 
Q 2916 -91 2278 -91 
Q 1894 -91 1617 61 
Q 1341 213 1159 525 
L 1159 0 
L 581 0 
L 581 4863 
L 1159 4863 
L 1159 2969 
z
" id="DejaVuSans-62" transform="scale(0.015625)"/>
       <path id="DejaVuSans-20" transform="scale(0.015625)"/>
       <path d="M 581 4863 
L 1159 4863 
L 1159 1991 
L 2875 3500 
L 3609 3500 
L 1753 1863 
L 3688 0 
L 2938 0 
L 1159 1709 
L 1159 0 
L 581 0 
L 581 4863 
z
" id="DejaVuSans-6b" transform="scale(0.015625)"/>
      </defs>
      <use xlink:href="#DejaVuSans-4e"/>
      <use x="74.804688" xlink:href="#DejaVuSans-75"/>
      <use x="138.183594" xlink:href="#DejaVuSans-6d"/>
      <use x="235.595703" xlink:href="#DejaVuSans-62"/>
      <use x="299.072266" xlink:href="#DejaVuSans-65"/>
      <use x="360.595703" xlink:href="#DejaVuSans-72"/>
      <use x="401.708984" xlink:href="#DejaVuSans-20"/>
      <use x="433.496094" xlink:href="#DejaVuSans-6f"/>
      <use x="494.677734" xlink:href="#DejaVuSans-66"/>
      <use x="529.882812" xlink:href="#DejaVuSans-20"/>
      <use x="561.669922" xlink:href="#DejaVuSans-73"/>
      <use x="613.769531" xlink:href="#DejaVuSans-6b"/>
      <use x="671.679688" xlink:href="#DejaVuSans-69"/>
      <use x="699.462891" xlink:href="#DejaVuSans-6c"/>
      <use x="727.246094" xlink:href="#DejaVuSans-6c"/>
      <use x="755.029297" xlink:href="#DejaVuSans-73"/>
     </g>
    </g>
   </g>
   <g id="matplotlib.axis_4">
    <g id="ytick_5">
     <g id="line2d_23">
      <path clip-path="url(#p44ca8ef03f)" d="M 505.450019 144.26075 
L 906.048 144.26075 
" style="fill:none;stroke:#cccccc;stroke-linecap:round;stroke-width:0.8;"/>
     </g>
    </g>
    <g id="ytick_6">
     <g id="line2d_24">
      <path clip-path="url(#p44ca8ef03f)" d="M 505.450019 103.0245 
L 906.048 103.0245 
" style="fill:none;stroke:#cccccc;stroke-linecap:round;stroke-width:0.8;"/>
     </g>
    </g>
    <g id="ytick_7">
     <g id="line2d_25">
      <path clip-path="url(#p44ca8ef03f)" d="M 505.450019 61.78825 
L 906.048 61.78825 
" style="fill:none;stroke:#cccccc;stroke-linecap:round;stroke-width:0.8;"/>
     </g>
    </g>
    <g id="ytick_8">
     <g id="line2d_26">
      <path clip-path="url(#p44ca8ef03f)" d="M 505.450019 20.552 
L 906.048 20.552 
" style="fill:none;stroke:#cccccc;stroke-linecap:round;stroke-width:0.8;"/>
     </g>
    </g>
    <g id="text_22">
     <!-- Proficiency -->
     <g style="fill:#262626;" transform="translate(498.455269 125.656375)rotate(-90)scale(0.144 -0.144)">
      <use xlink:href="#DejaVuSans-50"/>
      <use x="58.552734" xlink:href="#DejaVuSans-72"/>
      <use x="97.416016" xlink:href="#DejaVuSans-6f"/>
      <use x="158.597656" xlink:href="#DejaVuSans-66"/>
      <use x="193.802734" xlink:href="#DejaVuSans-69"/>
      <use x="221.585938" xlink:href="#DejaVuSans-63"/>
      <use x="276.566406" xlink:href="#DejaVuSans-69"/>
      <use x="304.349609" xlink:href="#DejaVuSans-65"/>
      <use x="365.873047" xlink:href="#DejaVuSans-6e"/>
      <use x="429.251953" xlink:href="#DejaVuSans-63"/>
      <use x="484.232422" xlink:href="#DejaVuSans-79"/>
     </g>
    </g>
   </g>
   <g id="PathCollection_1">
    <defs>
     <path d="M 0 3.383948 
C 0.897434 3.383948 1.758231 3.027394 2.392813 2.392813 
C 3.027394 1.758231 3.383948 0.897434 3.383948 0 
C 3.383948 -0.897434 3.027394 -1.758231 2.392813 -2.392813 
C 1.758231 -3.027394 0.897434 -3.383948 0 -3.383948 
C -0.897434 -3.383948 -1.758231 -3.027394 -2.392813 -2.392813 
C -3.027394 -1.758231 -3.383948 -0.897434 -3.383948 0 
C -3.383948 0.897434 -3.027394 1.758231 -2.392813 2.392813 
C -1.758231 3.027394 -0.897434 3.383948 0 3.383948 
z
" id="m3413b04434" style="stroke:#4c72b0;stroke-width:2.025;"/>
    </defs>
    <g clip-path="url(#p44ca8ef03f)">
     <use style="fill:#4c72b0;stroke:#4c72b0;stroke-width:2.025;" x="555.524766" xlink:href="#m3413b04434" y="36.082515"/>
     <use style="fill:#4c72b0;stroke:#4c72b0;stroke-width:2.025;" x="655.674262" xlink:href="#m3413b04434" y="54.18702"/>
     <use style="fill:#4c72b0;stroke:#4c72b0;stroke-width:2.025;" x="755.823757" xlink:href="#m3413b04434" y="70.106397"/>
     <use style="fill:#4c72b0;stroke:#4c72b0;stroke-width:2.025;" x="855.973252" xlink:href="#m3413b04434" y="97.866699"/>
    </g>
   </g>
   <g id="line2d_27">
    <path clip-path="url(#p44ca8ef03f)" d="M 555.524766 40.738505 
L 555.524766 31.426524 
" style="fill:none;stroke:#4c72b0;stroke-linecap:round;stroke-width:1.8;"/>
   </g>
   <g id="line2d_28">
    <path clip-path="url(#p44ca8ef03f)" d="M 555.524766 40.738505 
L 555.524766 40.738505 
" style="fill:none;stroke:#4c72b0;stroke-linecap:round;stroke-width:1.8;"/>
   </g>
   <g id="line2d_29">
    <path clip-path="url(#p44ca8ef03f)" d="M 555.524766 31.426524 
L 555.524766 31.426524 
" style="fill:none;stroke:#4c72b0;stroke-linecap:round;stroke-width:1.8;"/>
   </g>
   <g id="line2d_30">
    <path clip-path="url(#p44ca8ef03f)" d="M 655.674262 60.609651 
L 655.674262 47.764389 
" style="fill:none;stroke:#4c72b0;stroke-linecap:round;stroke-width:1.8;"/>
   </g>
   <g id="line2d_31">
    <path clip-path="url(#p44ca8ef03f)" d="M 655.674262 60.609651 
L 655.674262 60.609651 
" style="fill:none;stroke:#4c72b0;stroke-linecap:round;stroke-width:1.8;"/>
   </g>
   <g id="line2d_32">
    <path clip-path="url(#p44ca8ef03f)" d="M 655.674262 47.764389 
L 655.674262 47.764389 
" style="fill:none;stroke:#4c72b0;stroke-linecap:round;stroke-width:1.8;"/>
   </g>
   <g id="line2d_33">
    <path clip-path="url(#p44ca8ef03f)" d="M 755.823757 76.897247 
L 755.823757 63.315546 
" style="fill:none;stroke:#4c72b0;stroke-linecap:round;stroke-width:1.8;"/>
   </g>
   <g id="line2d_34">
    <path clip-path="url(#p44ca8ef03f)" d="M 755.823757 76.897247 
L 755.823757 76.897247 
" style="fill:none;stroke:#4c72b0;stroke-linecap:round;stroke-width:1.8;"/>
   </g>
   <g id="line2d_35">
    <path clip-path="url(#p44ca8ef03f)" d="M 755.823757 63.315546 
L 755.823757 63.315546 
" style="fill:none;stroke:#4c72b0;stroke-linecap:round;stroke-width:1.8;"/>
   </g>
   <g id="line2d_36">
    <path clip-path="url(#p44ca8ef03f)" d="M 855.973252 104.104923 
L 855.973252 91.628476 
" style="fill:none;stroke:#4c72b0;stroke-linecap:round;stroke-width:1.8;"/>
   </g>
   <g id="line2d_37">
    <path clip-path="url(#p44ca8ef03f)" d="M 855.973252 104.104923 
L 855.973252 104.104923 
" style="fill:none;stroke:#4c72b0;stroke-linecap:round;stroke-width:1.8;"/>
   </g>
   <g id="line2d_38">
    <path clip-path="url(#p44ca8ef03f)" d="M 855.973252 91.628476 
L 855.973252 91.628476 
" style="fill:none;stroke:#4c72b0;stroke-linecap:round;stroke-width:1.8;"/>
   </g>
   <g id="PathCollection_2">
    <defs>
     <path d="M -3.383948 3.383948 
L 3.383948 -3.383948 
M -3.383948 -3.383948 
L 3.383948 3.383948 
" id="m49619d6912" style="stroke:#dd8452;stroke-width:2.025;"/>
    </defs>
    <g clip-path="url(#p44ca8ef03f)">
     <use style="fill:#dd8452;stroke:#dd8452;stroke-width:2.025;" x="555.524766" xlink:href="#m49619d6912" y="43.164797"/>
     <use style="fill:#dd8452;stroke:#dd8452;stroke-width:2.025;" x="655.674262" xlink:href="#m49619d6912" y="45.621209"/>
     <use style="fill:#dd8452;stroke:#dd8452;stroke-width:2.025;" x="755.823757" xlink:href="#m49619d6912" y="60.895477"/>
     <use style="fill:#dd8452;stroke:#dd8452;stroke-width:2.025;" x="855.973252" xlink:href="#m49619d6912" y="82.798901"/>
    </g>
   </g>
   <g id="line2d_39">
    <path clip-path="url(#p44ca8ef03f)" d="M 555.524766 46.638784 
L 555.524766 39.690809 
" style="fill:none;stroke:#dd8452;stroke-linecap:round;stroke-width:1.8;"/>
   </g>
   <g id="line2d_40">
    <path clip-path="url(#p44ca8ef03f)" d="M 555.524766 46.638784 
L 555.524766 46.638784 
" style="fill:none;stroke:#dd8452;stroke-linecap:round;stroke-width:1.8;"/>
   </g>
   <g id="line2d_41">
    <path clip-path="url(#p44ca8ef03f)" d="M 555.524766 39.690809 
L 555.524766 39.690809 
" style="fill:none;stroke:#dd8452;stroke-linecap:round;stroke-width:1.8;"/>
   </g>
   <g id="line2d_42">
    <path clip-path="url(#p44ca8ef03f)" d="M 655.674262 49.172036 
L 655.674262 42.070382 
" style="fill:none;stroke:#dd8452;stroke-linecap:round;stroke-width:1.8;"/>
   </g>
   <g id="line2d_43">
    <path clip-path="url(#p44ca8ef03f)" d="M 655.674262 49.172036 
L 655.674262 49.172036 
" style="fill:none;stroke:#dd8452;stroke-linecap:round;stroke-width:1.8;"/>
   </g>
   <g id="line2d_44">
    <path clip-path="url(#p44ca8ef03f)" d="M 655.674262 42.070382 
L 655.674262 42.070382 
" style="fill:none;stroke:#dd8452;stroke-linecap:round;stroke-width:1.8;"/>
   </g>
   <g id="line2d_45">
    <path clip-path="url(#p44ca8ef03f)" d="M 755.823757 64.802792 
L 755.823757 56.988161 
" style="fill:none;stroke:#dd8452;stroke-linecap:round;stroke-width:1.8;"/>
   </g>
   <g id="line2d_46">
    <path clip-path="url(#p44ca8ef03f)" d="M 755.823757 64.802792 
L 755.823757 64.802792 
" style="fill:none;stroke:#dd8452;stroke-linecap:round;stroke-width:1.8;"/>
   </g>
   <g id="line2d_47">
    <path clip-path="url(#p44ca8ef03f)" d="M 755.823757 56.988161 
L 755.823757 56.988161 
" style="fill:none;stroke:#dd8452;stroke-linecap:round;stroke-width:1.8;"/>
   </g>
   <g id="line2d_48">
    <path clip-path="url(#p44ca8ef03f)" d="M 855.973252 88.551783 
L 855.973252 77.04602 
" style="fill:none;stroke:#dd8452;stroke-linecap:round;stroke-width:1.8;"/>
   </g>
   <g id="line2d_49">
    <path clip-path="url(#p44ca8ef03f)" d="M 855.973252 88.551783 
L 855.973252 88.551783 
" style="fill:none;stroke:#dd8452;stroke-linecap:round;stroke-width:1.8;"/>
   </g>
   <g id="line2d_50">
    <path clip-path="url(#p44ca8ef03f)" d="M 855.973252 77.04602 
L 855.973252 77.04602 
" style="fill:none;stroke:#dd8452;stroke-linecap:round;stroke-width:1.8;"/>
   </g>
   <g id="patch_9">
    <path d="M 505.450019 152.508 
L 505.450019 20.552 
" style="fill:none;stroke:#cccccc;stroke-linecap:square;stroke-linejoin:miter;"/>
   </g>
   <g id="patch_10">
    <path d="M 906.048 152.508 
L 906.048 20.552 
" style="fill:none;stroke:#cccccc;stroke-linecap:square;stroke-linejoin:miter;"/>
   </g>
   <g id="patch_11">
    <path d="M 505.450019 152.508 
L 906.048 152.508 
" style="fill:none;stroke:#cccccc;stroke-linecap:square;stroke-linejoin:miter;"/>
   </g>
   <g id="patch_12">
    <path d="M 505.450019 20.552 
L 906.048 20.552 
" style="fill:none;stroke:#cccccc;stroke-linecap:square;stroke-linejoin:miter;"/>
   </g>
   <g id="PathCollection_3">
    <defs>
     <path d="M -0 4.785625 
L 4.785625 0 
L 0 -4.785625 
L -4.785625 -0 
z
" id="m4d21ab1c37" style="stroke:#55a868;stroke-width:2.025;"/>
    </defs>
    <g clip-path="url(#p44ca8ef03f)">
     <use style="fill:#55a868;stroke:#55a868;stroke-width:2.025;" x="555.524766" xlink:href="#m4d21ab1c37" y="133.163642"/>
     <use style="fill:#55a868;stroke:#55a868;stroke-width:2.025;" x="655.674262" xlink:href="#m4d21ab1c37" y="132.766276"/>
     <use style="fill:#55a868;stroke:#55a868;stroke-width:2.025;" x="755.823757" xlink:href="#m4d21ab1c37" y="125.505674"/>
     <use style="fill:#55a868;stroke:#55a868;stroke-width:2.025;" x="855.973252" xlink:href="#m4d21ab1c37" y="126.813102"/>
    </g>
   </g>
   <g id="line2d_51">
    <path clip-path="url(#p44ca8ef03f)" d="M 555.524766 142.557213 
L 555.524766 123.77007 
" style="fill:none;stroke:#55a868;stroke-linecap:round;stroke-width:1.8;"/>
   </g>
   <g id="line2d_52">
    <path clip-path="url(#p44ca8ef03f)" d="M 555.524766 142.557213 
L 555.524766 142.557213 
" style="fill:none;stroke:#55a868;stroke-linecap:round;stroke-width:1.8;"/>
   </g>
   <g id="line2d_53">
    <path clip-path="url(#p44ca8ef03f)" d="M 555.524766 123.77007 
L 555.524766 123.77007 
" style="fill:none;stroke:#55a868;stroke-linecap:round;stroke-width:1.8;"/>
   </g>
   <g id="line2d_54">
    <path clip-path="url(#p44ca8ef03f)" d="M 655.674262 143.39309 
L 655.674262 122.139462 
" style="fill:none;stroke:#55a868;stroke-linecap:round;stroke-width:1.8;"/>
   </g>
   <g id="line2d_55">
    <path clip-path="url(#p44ca8ef03f)" d="M 655.674262 143.39309 
L 655.674262 143.39309 
" style="fill:none;stroke:#55a868;stroke-linecap:round;stroke-width:1.8;"/>
   </g>
   <g id="line2d_56">
    <path clip-path="url(#p44ca8ef03f)" d="M 655.674262 122.139462 
L 655.674262 122.139462 
" style="fill:none;stroke:#55a868;stroke-linecap:round;stroke-width:1.8;"/>
   </g>
   <g id="line2d_57">
    <path clip-path="url(#p44ca8ef03f)" d="M 755.823757 129.639154 
L 755.823757 121.372194 
" style="fill:none;stroke:#55a868;stroke-linecap:round;stroke-width:1.8;"/>
   </g>
   <g id="line2d_58">
    <path clip-path="url(#p44ca8ef03f)" d="M 755.823757 129.639154 
L 755.823757 129.639154 
" style="fill:none;stroke:#55a868;stroke-linecap:round;stroke-width:1.8;"/>
   </g>
   <g id="line2d_59">
    <path clip-path="url(#p44ca8ef03f)" d="M 755.823757 121.372194 
L 755.823757 121.372194 
" style="fill:none;stroke:#55a868;stroke-linecap:round;stroke-width:1.8;"/>
   </g>
   <g id="line2d_60">
    <path clip-path="url(#p44ca8ef03f)" d="M 855.973252 133.769733 
L 855.973252 119.856472 
" style="fill:none;stroke:#55a868;stroke-linecap:round;stroke-width:1.8;"/>
   </g>
   <g id="line2d_61">
    <path clip-path="url(#p44ca8ef03f)" d="M 855.973252 133.769733 
L 855.973252 133.769733 
" style="fill:none;stroke:#55a868;stroke-linecap:round;stroke-width:1.8;"/>
   </g>
   <g id="line2d_62">
    <path clip-path="url(#p44ca8ef03f)" d="M 855.973252 119.856472 
L 855.973252 119.856472 
" style="fill:none;stroke:#55a868;stroke-linecap:round;stroke-width:1.8;"/>
   </g>
   <g id="legend_2">
    <g id="patch_13">
     <path d="M 514.690019 127.840938 
L 611.573894 127.840938 
Q 614.213894 127.840938 614.213894 125.200938 
L 614.213894 47.859063 
Q 614.213894 45.219063 611.573894 45.219063 
L 514.690019 45.219063 
Q 512.050019 45.219063 512.050019 47.859063 
L 512.050019 125.200938 
Q 512.050019 127.840938 514.690019 127.840938 
z
" style="fill:#ffffff;opacity:0.8;stroke:#cccccc;stroke-linejoin:miter;stroke-width:0.8;"/>
    </g>
    <g id="text_23">
     <!-- Model -->
     <g style="fill:#262626;" transform="translate(541.512831 61.440813)scale(0.144 -0.144)">
      <use xlink:href="#DejaVuSans-4d"/>
      <use x="86.279297" xlink:href="#DejaVuSans-6f"/>
      <use x="147.460938" xlink:href="#DejaVuSans-64"/>
      <use x="210.9375" xlink:href="#DejaVuSans-65"/>
      <use x="272.460938" xlink:href="#DejaVuSans-6c"/>
     </g>
    </g>
    <g id="PathCollection_4">
     <g>
      <use style="fill:#4c72b0;stroke:#4c72b0;stroke-width:2.025;" x="530.530019" xlink:href="#m3413b04434" y="77.6005"/>
     </g>
    </g>
    <g id="text_24">
     <!-- A2C -->
     <g style="fill:#262626;" transform="translate(554.290019 81.0655)scale(0.132 -0.132)">
      <use xlink:href="#DejaVuSans-41"/>
      <use x="68.408203" xlink:href="#DejaVuSans-32"/>
      <use x="132.03125" xlink:href="#DejaVuSans-43"/>
     </g>
    </g>
    <g id="PathCollection_5">
     <g>
      <use style="fill:#dd8452;stroke:#dd8452;stroke-width:2.025;" x="530.530019" xlink:href="#m49619d6912" y="96.975625"/>
     </g>
    </g>
    <g id="text_25">
     <!-- PPO -->
     <g style="fill:#262626;" transform="translate(554.290019 100.440625)scale(0.132 -0.132)">
      <use xlink:href="#DejaVuSans-50"/>
      <use x="60.302734" xlink:href="#DejaVuSans-50"/>
      <use x="120.605469" xlink:href="#DejaVuSans-4f"/>
     </g>
    </g>
    <g id="PathCollection_6">
     <g>
      <use style="fill:#55a868;stroke:#55a868;stroke-width:2.025;" x="530.530019" xlink:href="#m4d21ab1c37" y="116.35075"/>
     </g>
    </g>
    <g id="text_26">
     <!-- Random -->
     <g style="fill:#262626;" transform="translate(554.290019 119.81575)scale(0.132 -0.132)">
      <use xlink:href="#DejaVuSans-52"/>
      <use x="67.232422" xlink:href="#DejaVuSans-61"/>
      <use x="128.511719" xlink:href="#DejaVuSans-6e"/>
      <use x="191.890625" xlink:href="#DejaVuSans-64"/>
      <use x="255.367188" xlink:href="#DejaVuSans-6f"/>
      <use x="316.548828" xlink:href="#DejaVuSans-6d"/>
     </g>
    </g>
   </g>
  </g>
 </g>
 <defs>
  <clipPath id="pf28cbdb11d">
   <rect height="131.956" width="400.597981" x="62.977" y="20.552"/>
  </clipPath>
  <clipPath id="p44ca8ef03f">
   <rect height="131.956" width="400.597981" x="505.450019" y="20.552"/>
  </clipPath>
 </defs>
</svg>
