<?xml version="1.0" encoding="utf-8" standalone="no"?>
<!DOCTYPE svg PUBLIC "-//W3C//DTD SVG 1.1//EN"
  "http://www.w3.org/Graphics/SVG/1.1/DTD/svg11.dtd">
<svg height="207.36pt" version="1.1" viewBox="0 0 921.6 207.36" width="921.6pt" xmlns="http://www.w3.org/2000/svg" xmlns:xlink="http://www.w3.org/1999/xlink">
 <metadata>
  <rdf:RDF xmlns:cc="http://creativecommons.org/ns#" xmlns:dc="http://purl.org/dc/elements/1.1/" xmlns:rdf="http://www.w3.org/1999/02/22-rdf-syntax-ns#">
   <cc:Work>
    <dc:type rdf:resource="http://purl.org/dc/dcmitype/StillImage"/>
    <dc:date>2022-03-29T11:44:57.198131</dc:date>
    <dc:format>image/svg+xml</dc:format>
    <dc:creator>
     <cc:Agent>
      <dc:title>Matplotlib v3.4.3, https://matplotlib.org/</dc:title>
     </cc:Agent>
    </dc:creator>
   </cc:Work>
  </rdf:RDF>
 </metadata>
 <defs>
  <style type="text/css">*{stroke-linecap:butt;stroke-linejoin:round;}</style>
 </defs>
 <g id="figure_1">
  <g id="patch_1">
   <path d="M 0 207.36 
L 921.6 207.36 
L 921.6 0 
L 0 0 
z
" style="fill:#ffffff;"/>
  </g>
  <g id="axes_1">
   <g id="patch_2">
    <path d="M 66.2638 149.4712 
L 463.087831 149.4712 
L 463.087831 22.0888 
L 66.2638 22.0888 
z
" style="fill:#ffffff;"/>
   </g>
   <g id="matplotlib.axis_1">
    <g id="xtick_1">
     <g id="line2d_1">
      <path clip-path="url(#p29c8bd4c74)" d="M 80.543453 149.4712 
L 80.543453 22.0888 
" style="fill:none;stroke:#cccccc;stroke-linecap:round;stroke-width:0.8;"/>
     </g>
     <g id="text_1">
      <!-- 0 -->
      <g style="fill:#262626;" transform="translate(76.064253 168.4698)scale(0.1408 -0.1408)">
       <defs>
        <path d="M 2034 4250 
Q 1547 4250 1301 3770 
Q 1056 3291 1056 2328 
Q 1056 1369 1301 889 
Q 1547 409 2034 409 
Q 2525 409 2770 889 
Q 3016 1369 3016 2328 
Q 3016 3291 2770 3770 
Q 2525 4250 2034 4250 
z
M 2034 4750 
Q 2819 4750 3233 4129 
Q 3647 3509 3647 2328 
Q 3647 1150 3233 529 
Q 2819 -91 2034 -91 
Q 1250 -91 836 529 
Q 422 1150 422 2328 
Q 422 3509 836 4129 
Q 1250 4750 2034 4750 
z
" id="DejaVuSans-30" transform="scale(0.015625)"/>
       </defs>
       <use xlink:href="#DejaVuSans-30"/>
      </g>
     </g>
    </g>
    <g id="xtick_2">
     <g id="line2d_2">
      <path clip-path="url(#p29c8bd4c74)" d="M 153.938049 149.4712 
L 153.938049 22.0888 
" style="fill:none;stroke:#cccccc;stroke-linecap:round;stroke-width:0.8;"/>
     </g>
     <g id="text_2">
      <!-- 5000 -->
      <g style="fill:#262626;" transform="translate(136.021249 168.4698)scale(0.1408 -0.1408)">
       <defs>
        <path d="M 691 4666 
L 3169 4666 
L 3169 4134 
L 1269 4134 
L 1269 2991 
Q 1406 3038 1543 3061 
Q 1681 3084 1819 3084 
Q 2600 3084 3056 2656 
Q 3513 2228 3513 1497 
Q 3513 744 3044 326 
Q 2575 -91 1722 -91 
Q 1428 -91 1123 -41 
Q 819 9 494 109 
L 494 744 
Q 775 591 1075 516 
Q 1375 441 1709 441 
Q 2250 441 2565 725 
Q 2881 1009 2881 1497 
Q 2881 1984 2565 2268 
Q 2250 2553 1709 2553 
Q 1456 2553 1204 2497 
Q 953 2441 691 2322 
L 691 4666 
z
" id="DejaVuSans-35" transform="scale(0.015625)"/>
       </defs>
       <use xlink:href="#DejaVuSans-35"/>
       <use x="63.623047" xlink:href="#DejaVuSans-30"/>
       <use x="127.246094" xlink:href="#DejaVuSans-30"/>
       <use x="190.869141" xlink:href="#DejaVuSans-30"/>
      </g>
     </g>
    </g>
    <g id="xtick_3">
     <g id="line2d_3">
      <path clip-path="url(#p29c8bd4c74)" d="M 227.332645 149.4712 
L 227.332645 22.0888 
" style="fill:none;stroke:#cccccc;stroke-linecap:round;stroke-width:0.8;"/>
     </g>
     <g id="text_3">
      <!-- 10000 -->
      <g style="fill:#262626;" transform="translate(204.936645 168.4698)scale(0.1408 -0.1408)">
       <defs>
        <path d="M 794 531 
L 1825 531 
L 1825 4091 
L 703 3866 
L 703 4441 
L 1819 4666 
L 2450 4666 
L 2450 531 
L 3481 531 
L 3481 0 
L 794 0 
L 794 531 
z
" id="DejaVuSans-31" transform="scale(0.015625)"/>
       </defs>
       <use xlink:href="#DejaVuSans-31"/>
       <use x="63.623047" xlink:href="#DejaVuSans-30"/>
       <use x="127.246094" xlink:href="#DejaVuSans-30"/>
       <use x="190.869141" xlink:href="#DejaVuSans-30"/>
       <use x="254.492188" xlink:href="#DejaVuSans-30"/>
      </g>
     </g>
    </g>
    <g id="xtick_4">
     <g id="line2d_4">
      <path clip-path="url(#p29c8bd4c74)" d="M 300.727241 149.4712 
L 300.727241 22.0888 
" style="fill:none;stroke:#cccccc;stroke-linecap:round;stroke-width:0.8;"/>
     </g>
     <g id="text_4">
      <!-- 15000 -->
      <g style="fill:#262626;" transform="translate(278.331241 168.4698)scale(0.1408 -0.1408)">
       <use xlink:href="#DejaVuSans-31"/>
       <use x="63.623047" xlink:href="#DejaVuSans-35"/>
       <use x="127.246094" xlink:href="#DejaVuSans-30"/>
       <use x="190.869141" xlink:href="#DejaVuSans-30"/>
       <use x="254.492188" xlink:href="#DejaVuSans-30"/>
      </g>
     </g>
    </g>
    <g id="xtick_5">
     <g id="line2d_5">
      <path clip-path="url(#p29c8bd4c74)" d="M 374.121838 149.4712 
L 374.121838 22.0888 
" style="fill:none;stroke:#cccccc;stroke-linecap:round;stroke-width:0.8;"/>
     </g>
     <g id="text_5">
      <!-- 20000 -->
      <g style="fill:#262626;" transform="translate(351.725838 168.4698)scale(0.1408 -0.1408)">
       <defs>
        <path d="M 1228 531 
L 3431 531 
L 3431 0 
L 469 0 
L 469 531 
Q 828 903 1448 1529 
Q 2069 2156 2228 2338 
Q 2531 2678 2651 2914 
Q 2772 3150 2772 3378 
Q 2772 3750 2511 3984 
Q 2250 4219 1831 4219 
Q 1534 4219 1204 4116 
Q 875 4013 500 3803 
L 500 4441 
Q 881 4594 1212 4672 
Q 1544 4750 1819 4750 
Q 2544 4750 2975 4387 
Q 3406 4025 3406 3419 
Q 3406 3131 3298 2873 
Q 3191 2616 2906 2266 
Q 2828 2175 2409 1742 
Q 1991 1309 1228 531 
z
" id="DejaVuSans-32" transform="scale(0.015625)"/>
       </defs>
       <use xlink:href="#DejaVuSans-32"/>
       <use x="63.623047" xlink:href="#DejaVuSans-30"/>
       <use x="127.246094" xlink:href="#DejaVuSans-30"/>
       <use x="190.869141" xlink:href="#DejaVuSans-30"/>
       <use x="254.492188" xlink:href="#DejaVuSans-30"/>
      </g>
     </g>
    </g>
    <g id="xtick_6">
     <g id="line2d_6">
      <path clip-path="url(#p29c8bd4c74)" d="M 447.516434 149.4712 
L 447.516434 22.0888 
" style="fill:none;stroke:#cccccc;stroke-linecap:round;stroke-width:0.8;"/>
     </g>
     <g id="text_6">
      <!-- 25000 -->
      <g style="fill:#262626;" transform="translate(425.120434 168.4698)scale(0.1408 -0.1408)">
       <use xlink:href="#DejaVuSans-32"/>
       <use x="63.623047" xlink:href="#DejaVuSans-35"/>
       <use x="127.246094" xlink:href="#DejaVuSans-30"/>
       <use x="190.869141" xlink:href="#DejaVuSans-30"/>
       <use x="254.492188" xlink:href="#DejaVuSans-30"/>
      </g>
     </g>
    </g>
    <g id="text_7">
     <!-- Episode -->
     <g style="fill:#262626;" transform="translate(234.512616 187.0692)scale(0.1536 -0.1536)">
      <defs>
       <path d="M 628 4666 
L 3578 4666 
L 3578 4134 
L 1259 4134 
L 1259 2753 
L 3481 2753 
L 3481 2222 
L 1259 2222 
L 1259 531 
L 3634 531 
L 3634 0 
L 628 0 
L 628 4666 
z
" id="DejaVuSans-45" transform="scale(0.015625)"/>
       <path d="M 1159 525 
L 1159 -1331 
L 581 -1331 
L 581 3500 
L 1159 3500 
L 1159 2969 
Q 1341 3281 1617 3432 
Q 1894 3584 2278 3584 
Q 2916 3584 3314 3078 
Q 3713 2572 3713 1747 
Q 3713 922 3314 415 
Q 2916 -91 2278 -91 
Q 1894 -91 1617 61 
Q 1341 213 1159 525 
z
M 3116 1747 
Q 3116 2381 2855 2742 
Q 2594 3103 2138 3103 
Q 1681 3103 1420 2742 
Q 1159 2381 1159 1747 
Q 1159 1113 1420 752 
Q 1681 391 2138 391 
Q 2594 391 2855 752 
Q 3116 1113 3116 1747 
z
" id="DejaVuSans-70" transform="scale(0.015625)"/>
       <path d="M 603 3500 
L 1178 3500 
L 1178 0 
L 603 0 
L 603 3500 
z
M 603 4863 
L 1178 4863 
L 1178 4134 
L 603 4134 
L 603 4863 
z
" id="DejaVuSans-69" transform="scale(0.015625)"/>
       <path d="M 2834 3397 
L 2834 2853 
Q 2591 2978 2328 3040 
Q 2066 3103 1784 3103 
Q 1356 3103 1142 2972 
Q 928 2841 928 2578 
Q 928 2378 1081 2264 
Q 1234 2150 1697 2047 
L 1894 2003 
Q 2506 1872 2764 1633 
Q 3022 1394 3022 966 
Q 3022 478 2636 193 
Q 2250 -91 1575 -91 
Q 1294 -91 989 -36 
Q 684 19 347 128 
L 347 722 
Q 666 556 975 473 
Q 1284 391 1588 391 
Q 1994 391 2212 530 
Q 2431 669 2431 922 
Q 2431 1156 2273 1281 
Q 2116 1406 1581 1522 
L 1381 1569 
Q 847 1681 609 1914 
Q 372 2147 372 2553 
Q 372 3047 722 3315 
Q 1072 3584 1716 3584 
Q 2034 3584 2315 3537 
Q 2597 3491 2834 3397 
z
" id="DejaVuSans-73" transform="scale(0.015625)"/>
       <path d="M 1959 3097 
Q 1497 3097 1228 2736 
Q 959 2375 959 1747 
Q 959 1119 1226 758 
Q 1494 397 1959 397 
Q 2419 397 2687 759 
Q 2956 1122 2956 1747 
Q 2956 2369 2687 2733 
Q 2419 3097 1959 3097 
z
M 1959 3584 
Q 2709 3584 3137 3096 
Q 3566 2609 3566 1747 
Q 3566 888 3137 398 
Q 2709 -91 1959 -91 
Q 1206 -91 779 398 
Q 353 888 353 1747 
Q 353 2609 779 3096 
Q 1206 3584 1959 3584 
z
" id="DejaVuSans-6f" transform="scale(0.015625)"/>
       <path d="M 2906 2969 
L 2906 4863 
L 3481 4863 
L 3481 0 
L 2906 0 
L 2906 525 
Q 2725 213 2448 61 
Q 2172 -91 1784 -91 
Q 1150 -91 751 415 
Q 353 922 353 1747 
Q 353 2572 751 3078 
Q 1150 3584 1784 3584 
Q 2172 3584 2448 3432 
Q 2725 3281 2906 2969 
z
M 947 1747 
Q 947 1113 1208 752 
Q 1469 391 1925 391 
Q 2381 391 2643 752 
Q 2906 1113 2906 1747 
Q 2906 2381 2643 2742 
Q 2381 3103 1925 3103 
Q 1469 3103 1208 2742 
Q 947 2381 947 1747 
z
" id="DejaVuSans-64" transform="scale(0.015625)"/>
       <path d="M 3597 1894 
L 3597 1613 
L 953 1613 
Q 991 1019 1311 708 
Q 1631 397 2203 397 
Q 2534 397 2845 478 
Q 3156 559 3463 722 
L 3463 178 
Q 3153 47 2828 -22 
Q 2503 -91 2169 -91 
Q 1331 -91 842 396 
Q 353 884 353 1716 
Q 353 2575 817 3079 
Q 1281 3584 2069 3584 
Q 2775 3584 3186 3129 
Q 3597 2675 3597 1894 
z
M 3022 2063 
Q 3016 2534 2758 2815 
Q 2500 3097 2075 3097 
Q 1594 3097 1305 2825 
Q 1016 2553 972 2059 
L 3022 2063 
z
" id="DejaVuSans-65" transform="scale(0.015625)"/>
      </defs>
      <use xlink:href="#DejaVuSans-45"/>
      <use x="63.183594" xlink:href="#DejaVuSans-70"/>
      <use x="126.660156" xlink:href="#DejaVuSans-69"/>
      <use x="154.443359" xlink:href="#DejaVuSans-73"/>
      <use x="206.542969" xlink:href="#DejaVuSans-6f"/>
      <use x="267.724609" xlink:href="#DejaVuSans-64"/>
      <use x="331.201172" xlink:href="#DejaVuSans-65"/>
     </g>
    </g>
   </g>
   <g id="matplotlib.axis_2">
    <g id="ytick_1">
     <g id="line2d_7">
      <path clip-path="url(#p29c8bd4c74)" d="M 66.2638 141.5098 
L 463.087831 141.5098 
" style="fill:none;stroke:#cccccc;stroke-linecap:round;stroke-width:0.8;"/>
     </g>
     <g id="text_8">
      <!-- 1.5 -->
      <g style="fill:#262626;" transform="translate(35.5722 146.8591)scale(0.1408 -0.1408)">
       <defs>
        <path d="M 684 794 
L 1344 794 
L 1344 0 
L 684 0 
L 684 794 
z
" id="DejaVuSans-2e" transform="scale(0.015625)"/>
       </defs>
       <use xlink:href="#DejaVuSans-31"/>
       <use x="63.623047" xlink:href="#DejaVuSans-2e"/>
       <use x="95.410156" xlink:href="#DejaVuSans-35"/>
      </g>
     </g>
    </g>
    <g id="ytick_2">
     <g id="line2d_8">
      <path clip-path="url(#p29c8bd4c74)" d="M 66.2638 101.7028 
L 463.087831 101.7028 
" style="fill:none;stroke:#cccccc;stroke-linecap:round;stroke-width:0.8;"/>
     </g>
     <g id="text_9">
      <!-- 2.0 -->
      <g style="fill:#262626;" transform="translate(35.5722 107.0521)scale(0.1408 -0.1408)">
       <use xlink:href="#DejaVuSans-32"/>
       <use x="63.623047" xlink:href="#DejaVuSans-2e"/>
       <use x="95.410156" xlink:href="#DejaVuSans-30"/>
      </g>
     </g>
    </g>
    <g id="ytick_3">
     <g id="line2d_9">
      <path clip-path="url(#p29c8bd4c74)" d="M 66.2638 61.8958 
L 463.087831 61.8958 
" style="fill:none;stroke:#cccccc;stroke-linecap:round;stroke-width:0.8;"/>
     </g>
     <g id="text_10">
      <!-- 2.5 -->
      <g style="fill:#262626;" transform="translate(35.5722 67.2451)scale(0.1408 -0.1408)">
       <use xlink:href="#DejaVuSans-32"/>
       <use x="63.623047" xlink:href="#DejaVuSans-2e"/>
       <use x="95.410156" xlink:href="#DejaVuSans-35"/>
      </g>
     </g>
    </g>
    <g id="ytick_4">
     <g id="line2d_10">
      <path clip-path="url(#p29c8bd4c74)" d="M 66.2638 22.0888 
L 463.087831 22.0888 
" style="fill:none;stroke:#cccccc;stroke-linecap:round;stroke-width:0.8;"/>
     </g>
     <g id="text_11">
      <!-- 3.0 -->
      <g style="fill:#262626;" transform="translate(35.5722 27.4381)scale(0.1408 -0.1408)">
       <defs>
        <path d="M 2597 2516 
Q 3050 2419 3304 2112 
Q 3559 1806 3559 1356 
Q 3559 666 3084 287 
Q 2609 -91 1734 -91 
Q 1441 -91 1130 -33 
Q 819 25 488 141 
L 488 750 
Q 750 597 1062 519 
Q 1375 441 1716 441 
Q 2309 441 2620 675 
Q 2931 909 2931 1356 
Q 2931 1769 2642 2001 
Q 2353 2234 1838 2234 
L 1294 2234 
L 1294 2753 
L 1863 2753 
Q 2328 2753 2575 2939 
Q 2822 3125 2822 3475 
Q 2822 3834 2567 4026 
Q 2313 4219 1838 4219 
Q 1578 4219 1281 4162 
Q 984 4106 628 3988 
L 628 4550 
Q 988 4650 1302 4700 
Q 1616 4750 1894 4750 
Q 2613 4750 3031 4423 
Q 3450 4097 3450 3541 
Q 3450 3153 3228 2886 
Q 3006 2619 2597 2516 
z
" id="DejaVuSans-33" transform="scale(0.015625)"/>
       </defs>
       <use xlink:href="#DejaVuSans-33"/>
       <use x="63.623047" xlink:href="#DejaVuSans-2e"/>
       <use x="95.410156" xlink:href="#DejaVuSans-30"/>
      </g>
     </g>
    </g>
    <g id="text_12">
     <!-- Proficiency -->
     <g style="fill:#262626;" transform="translate(28.3778 127.5148)rotate(-90)scale(0.1536 -0.1536)">
      <defs>
       <path d="M 1259 4147 
L 1259 2394 
L 2053 2394 
Q 2494 2394 2734 2622 
Q 2975 2850 2975 3272 
Q 2975 3691 2734 3919 
Q 2494 4147 2053 4147 
L 1259 4147 
z
M 628 4666 
L 2053 4666 
Q 2838 4666 3239 4311 
Q 3641 3956 3641 3272 
Q 3641 2581 3239 2228 
Q 2838 1875 2053 1875 
L 1259 1875 
L 1259 0 
L 628 0 
L 628 4666 
z
" id="DejaVuSans-50" transform="scale(0.015625)"/>
       <path d="M 2631 2963 
Q 2534 3019 2420 3045 
Q 2306 3072 2169 3072 
Q 1681 3072 1420 2755 
Q 1159 2438 1159 1844 
L 1159 0 
L 581 0 
L 581 3500 
L 1159 3500 
L 1159 2956 
Q 1341 3275 1631 3429 
Q 1922 3584 2338 3584 
Q 2397 3584 2469 3576 
Q 2541 3569 2628 3553 
L 2631 2963 
z
" id="DejaVuSans-72" transform="scale(0.015625)"/>
       <path d="M 2375 4863 
L 2375 4384 
L 1825 4384 
Q 1516 4384 1395 4259 
Q 1275 4134 1275 3809 
L 1275 3500 
L 2222 3500 
L 2222 3053 
L 1275 3053 
L 1275 0 
L 697 0 
L 697 3053 
L 147 3053 
L 147 3500 
L 697 3500 
L 697 3744 
Q 697 4328 969 4595 
Q 1241 4863 1831 4863 
L 2375 4863 
z
" id="DejaVuSans-66" transform="scale(0.015625)"/>
       <path d="M 3122 3366 
L 3122 2828 
Q 2878 2963 2633 3030 
Q 2388 3097 2138 3097 
Q 1578 3097 1268 2742 
Q 959 2388 959 1747 
Q 959 1106 1268 751 
Q 1578 397 2138 397 
Q 2388 397 2633 464 
Q 2878 531 3122 666 
L 3122 134 
Q 2881 22 2623 -34 
Q 2366 -91 2075 -91 
Q 1284 -91 818 406 
Q 353 903 353 1747 
Q 353 2603 823 3093 
Q 1294 3584 2113 3584 
Q 2378 3584 2631 3529 
Q 2884 3475 3122 3366 
z
" id="DejaVuSans-63" transform="scale(0.015625)"/>
       <path d="M 3513 2113 
L 3513 0 
L 2938 0 
L 2938 2094 
Q 2938 2591 2744 2837 
Q 2550 3084 2163 3084 
Q 1697 3084 1428 2787 
Q 1159 2491 1159 1978 
L 1159 0 
L 581 0 
L 581 3500 
L 1159 3500 
L 1159 2956 
Q 1366 3272 1645 3428 
Q 1925 3584 2291 3584 
Q 2894 3584 3203 3211 
Q 3513 2838 3513 2113 
z
" id="DejaVuSans-6e" transform="scale(0.015625)"/>
       <path d="M 2059 -325 
Q 1816 -950 1584 -1140 
Q 1353 -1331 966 -1331 
L 506 -1331 
L 506 -850 
L 844 -850 
Q 1081 -850 1212 -737 
Q 1344 -625 1503 -206 
L 1606 56 
L 191 3500 
L 800 3500 
L 1894 763 
L 2988 3500 
L 3597 3500 
L 2059 -325 
z
" id="DejaVuSans-79" transform="scale(0.015625)"/>
      </defs>
      <use xlink:href="#DejaVuSans-50"/>
      <use x="58.552734" xlink:href="#DejaVuSans-72"/>
      <use x="97.416016" xlink:href="#DejaVuSans-6f"/>
      <use x="158.597656" xlink:href="#DejaVuSans-66"/>
      <use x="193.802734" xlink:href="#DejaVuSans-69"/>
      <use x="221.585938" xlink:href="#DejaVuSans-63"/>
      <use x="276.566406" xlink:href="#DejaVuSans-69"/>
      <use x="304.349609" xlink:href="#DejaVuSans-65"/>
      <use x="365.873047" xlink:href="#DejaVuSans-6e"/>
      <use x="429.251953" xlink:href="#DejaVuSans-63"/>
      <use x="484.232422" xlink:href="#DejaVuSans-79"/>
     </g>
    </g>
   </g>
   <g id="PolyCollection_1">
    <defs>
     <path d="M 84.301256 -90.553232 
L 84.301256 -84.023849 
L 88.059059 -87.308688 
L 91.816863 -90.50037 
L 95.574666 -87.978941 
L 99.332469 -96.782403 
L 103.090273 -93.271556 
L 106.848076 -103.248482 
L 110.605879 -107.778663 
L 114.363683 -100.261623 
L 118.121486 -113.454925 
L 121.879289 -112.792691 
L 125.637093 -109.775946 
L 129.394896 -107.962039 
L 133.152699 -118.733572 
L 136.910503 -114.879935 
L 140.668306 -120.923382 
L 144.426109 -110.472361 
L 148.183913 -113.391694 
L 151.941716 -115.006559 
L 155.699519 -111.748544 
L 159.457323 -113.749554 
L 163.215126 -116.473184 
L 166.972929 -117.753461 
L 170.730733 -122.274935 
L 174.488536 -122.615244 
L 178.246339 -120.77157 
L 182.004142 -117.060545 
L 185.761946 -125.783657 
L 189.519749 -125.935379 
L 193.277552 -118.794346 
L 197.035356 -127.059983 
L 200.793159 -129.685743 
L 204.550962 -127.214121 
L 208.308766 -124.428372 
L 212.066569 -125.100155 
L 215.824372 -129.827513 
L 219.582176 -125.466703 
L 223.339979 -122.86922 
L 227.097782 -126.927803 
L 230.855586 -126.381396 
L 234.613389 -119.784564 
L 238.371192 -120.032314 
L 242.128996 -120.749507 
L 245.886799 -102.933061 
L 249.644602 -115.648269 
L 253.402406 -113.244858 
L 257.160209 -121.312303 
L 260.918012 -111.144592 
L 264.675816 -123.488211 
L 268.433619 -113.817642 
L 272.191422 -120.910458 
L 275.949226 -112.103597 
L 279.707029 -126.355534 
L 283.464832 -127.385501 
L 287.222636 -118.407221 
L 290.980439 -118.973784 
L 294.738242 -118.304389 
L 298.496046 -113.619938 
L 302.253849 -107.738732 
L 306.011652 -113.702022 
L 309.769456 -116.696329 
L 313.527259 -121.409777 
L 317.285062 -111.584036 
L 321.042866 -115.19373 
L 324.800669 -116.335385 
L 328.558472 -105.612836 
L 332.316276 -112.986269 
L 336.074079 -116.291179 
L 339.831882 -114.146648 
L 343.589686 -123.801908 
L 347.347489 -120.218501 
L 351.105292 -120.931319 
L 354.863096 -115.270489 
L 358.620899 -126.912695 
L 362.378702 -124.619557 
L 366.136506 -129.464896 
L 369.894309 -121.694815 
L 373.652112 -122.2602 
L 377.409916 -120.852176 
L 381.167719 -122.212352 
L 384.925522 -117.362894 
L 388.683326 -122.768412 
L 392.441129 -121.914395 
L 396.198932 -125.074574 
L 399.956735 -123.883608 
L 403.714539 -124.423795 
L 407.472342 -118.134874 
L 411.230145 -119.456398 
L 414.987949 -123.512963 
L 418.745752 -120.518933 
L 422.503555 -124.059765 
L 426.261359 -124.812051 
L 430.019162 -129.252559 
L 433.776965 -120.632194 
L 437.534769 -127.276688 
L 441.292572 -130.49318 
L 445.050375 -130.105112 
L 445.050375 -144.763609 
L 445.050375 -144.763609 
L 441.292572 -141.896947 
L 437.534769 -143.136676 
L 433.776965 -146.145951 
L 430.019162 -145.965333 
L 426.261359 -140.064747 
L 422.503555 -141.674085 
L 418.745752 -130.389203 
L 414.987949 -133.556964 
L 411.230145 -144.263616 
L 407.472342 -145.951747 
L 403.714539 -134.609734 
L 399.956735 -138.797955 
L 396.198932 -134.137241 
L 392.441129 -137.441468 
L 388.683326 -131.653315 
L 384.925522 -135.530983 
L 381.167719 -141.609037 
L 377.409916 -143.291404 
L 373.652112 -136.952921 
L 369.894309 -145.834449 
L 366.136506 -138.208393 
L 362.378702 -135.61777 
L 358.620899 -138.802453 
L 354.863096 -134.884337 
L 351.105292 -145.318081 
L 347.347489 -135.318951 
L 343.589686 -137.928546 
L 339.831882 -135.142844 
L 336.074079 -130.587212 
L 332.316276 -133.488335 
L 328.558472 -141.049981 
L 324.800669 -130.119162 
L 321.042866 -129.244886 
L 317.285062 -127.126948 
L 313.527259 -127.661199 
L 309.769456 -142.685846 
L 306.011652 -137.445936 
L 302.253849 -137.049965 
L 298.496046 -148.425501 
L 294.738242 -144.359264 
L 290.980439 -136.23507 
L 287.222636 -141.594373 
L 283.464832 -137.217018 
L 279.707029 -137.612828 
L 275.949226 -138.02211 
L 272.191422 -128.910388 
L 268.433619 -131.94814 
L 264.675816 -139.408546 
L 260.918012 -130.750011 
L 257.160209 -129.536662 
L 253.402406 -132.652753 
L 249.644602 -141.577158 
L 245.886799 -137.901505 
L 242.128996 -146.751166 
L 238.371192 -146.174422 
L 234.613389 -135.584304 
L 230.855586 -143.951223 
L 227.097782 -135.846144 
L 223.339979 -140.379391 
L 219.582176 -142.775725 
L 215.824372 -150.425886 
L 212.066569 -148.844728 
L 208.308766 -145.945139 
L 204.550962 -143.262312 
L 200.793159 -141.946326 
L 197.035356 -139.764984 
L 193.277552 -137.851347 
L 189.519749 -134.991833 
L 185.761946 -135.143913 
L 182.004142 -132.134614 
L 178.246339 -130.575623 
L 174.488536 -134.594319 
L 170.730733 -133.830173 
L 166.972929 -130.122982 
L 163.215126 -133.240088 
L 159.457323 -126.910759 
L 155.699519 -132.417472 
L 151.941716 -131.150844 
L 148.183913 -133.665967 
L 144.426109 -138.107109 
L 140.668306 -131.303524 
L 136.910503 -127.941241 
L 133.152699 -130.925642 
L 129.394896 -125.569706 
L 125.637093 -123.977347 
L 121.879289 -119.599728 
L 118.121486 -121.802294 
L 114.363683 -127.671198 
L 110.605879 -118.865758 
L 106.848076 -105.435226 
L 103.090273 -110.048882 
L 99.332469 -114.986374 
L 95.574666 -101.260848 
L 91.816863 -105.02279 
L 88.059059 -102.561414 
L 84.301256 -90.553232 
z
" id="m4ecd76cb55" style="stroke:#4c72b0;stroke-opacity:0.2;stroke-width:0.8;"/>
    </defs>
    <g clip-path="url(#p29c8bd4c74)">
     <use style="fill:#4c72b0;fill-opacity:0.2;stroke:#4c72b0;stroke-opacity:0.2;stroke-width:0.8;" x="0" xlink:href="#m4ecd76cb55" y="207.36"/>
    </g>
   </g>
   <g id="PolyCollection_2">
    <defs>
     <path d="M 87.882912 -84.746316 
L 87.882912 -75.137057 
L 95.222372 -82.262868 
L 102.561832 -78.324486 
L 109.901291 -82.661365 
L 117.240751 -87.018008 
L 124.58021 -84.014437 
L 131.91967 -90.893937 
L 139.25913 -85.972505 
L 146.598589 -89.298026 
L 153.938049 -94.807932 
L 161.277509 -90.915673 
L 168.616968 -98.259454 
L 175.956428 -101.073496 
L 183.295887 -104.973557 
L 190.635347 -111.417505 
L 197.974807 -108.535312 
L 205.314266 -113.852378 
L 212.653726 -117.268583 
L 219.993186 -122.399867 
L 227.332645 -119.18402 
L 234.672105 -125.393176 
L 242.011564 -124.566429 
L 249.351024 -126.849546 
L 256.690484 -132.10063 
L 264.029943 -129.152284 
L 271.369403 -127.816736 
L 278.708863 -131.764834 
L 286.048322 -127.414349 
L 293.387782 -129.298856 
L 300.727241 -139.164423 
L 308.066701 -128.248529 
L 315.406161 -129.260746 
L 322.74562 -136.880002 
L 330.08508 -136.292846 
L 337.424539 -134.682044 
L 344.763999 -141.614647 
L 352.103459 -136.152455 
L 359.442918 -144.765801 
L 366.782378 -144.794014 
L 374.121838 -139.888699 
L 381.461297 -134.825629 
L 388.800757 -139.380465 
L 396.140216 -139.47033 
L 403.479676 -141.197391 
L 410.819136 -140.020497 
L 418.158595 -136.913454 
L 425.498055 -140.523255 
L 432.837515 -142.108931 
L 432.837515 -150.543128 
L 432.837515 -150.543128 
L 425.498055 -150.826165 
L 418.158595 -147.034482 
L 410.819136 -151.244928 
L 403.479676 -151.573479 
L 396.140216 -147.693116 
L 388.800757 -149.658874 
L 381.461297 -151.650969 
L 374.121838 -149.17071 
L 366.782378 -154.793242 
L 359.442918 -148.956052 
L 352.103459 -146.740609 
L 344.763999 -150.192057 
L 337.424539 -145.682908 
L 330.08508 -150.3187 
L 322.74562 -150.680435 
L 315.406161 -140.962898 
L 308.066701 -148.829005 
L 300.727241 -145.364732 
L 293.387782 -139.381859 
L 286.048322 -143.360945 
L 278.708863 -147.921149 
L 271.369403 -132.836971 
L 264.029943 -138.840838 
L 256.690484 -136.272637 
L 249.351024 -136.67016 
L 242.011564 -133.536032 
L 234.672105 -129.721752 
L 227.332645 -132.309292 
L 219.993186 -134.162539 
L 212.653726 -132.1151 
L 205.314266 -128.087943 
L 197.974807 -126.406869 
L 190.635347 -123.229503 
L 183.295887 -118.179828 
L 175.956428 -119.075994 
L 168.616968 -112.134879 
L 161.277509 -112.864647 
L 153.938049 -110.51877 
L 146.598589 -101.415927 
L 139.25913 -103.055903 
L 131.91967 -97.967328 
L 124.58021 -93.684717 
L 117.240751 -90.615433 
L 109.901291 -99.402384 
L 102.561832 -90.018147 
L 95.222372 -92.357629 
L 87.882912 -84.746316 
z
" id="m5db80aa4fb" style="stroke:#dd8452;stroke-opacity:0.2;stroke-width:0.8;"/>
    </defs>
    <g clip-path="url(#p29c8bd4c74)">
     <use style="fill:#dd8452;fill-opacity:0.2;stroke:#dd8452;stroke-opacity:0.2;stroke-width:0.8;" x="0" xlink:href="#m5db80aa4fb" y="207.36"/>
    </g>
   </g>
   <g id="PolyCollection_3">
    <defs>
     <path d="M 84.301256 -82.983585 
L 84.301256 -70.465362 
L 88.059059 -82.493845 
L 91.816863 -76.663212 
L 95.574666 -75.549359 
L 99.332469 -72.332186 
L 103.090273 -72.622247 
L 106.848076 -80.241754 
L 110.605879 -74.684959 
L 114.363683 -76.91454 
L 118.121486 -71.382993 
L 121.879289 -74.956359 
L 125.637093 -78.899225 
L 129.394896 -78.215912 
L 133.152699 -72.340894 
L 136.910503 -78.770688 
L 140.668306 -74.572877 
L 144.426109 -75.870729 
L 148.183913 -77.309291 
L 151.941716 -75.254724 
L 155.699519 -76.8267 
L 159.457323 -73.245246 
L 163.215126 -71.874833 
L 166.972929 -71.808631 
L 170.730733 -71.251023 
L 174.488536 -76.120396 
L 178.246339 -72.659769 
L 182.004142 -74.96303 
L 185.761946 -73.925914 
L 189.519749 -73.405744 
L 193.277552 -74.040422 
L 197.035356 -76.60106 
L 200.793159 -66.370452 
L 204.550962 -66.97672 
L 208.308766 -73.76953 
L 212.066569 -75.605513 
L 215.824372 -79.991133 
L 219.582176 -79.736466 
L 223.339979 -78.966249 
L 227.097782 -70.133747 
L 230.855586 -68.518741 
L 234.613389 -79.454381 
L 238.371192 -74.957572 
L 242.128996 -74.48657 
L 245.886799 -69.865288 
L 249.644602 -75.635704 
L 253.402406 -77.183185 
L 257.160209 -71.968873 
L 260.918012 -70.535788 
L 264.675816 -78.927012 
L 268.433619 -75.335873 
L 272.191422 -72.955566 
L 275.949226 -73.705312 
L 279.707029 -75.872961 
L 283.464832 -69.683545 
L 287.222636 -76.822993 
L 290.980439 -79.375573 
L 294.738242 -77.876967 
L 298.496046 -76.394942 
L 302.253849 -75.506537 
L 306.011652 -77.828545 
L 309.769456 -77.864216 
L 313.527259 -72.344573 
L 317.285062 -77.451327 
L 321.042866 -75.30755 
L 324.800669 -70.653704 
L 328.558472 -74.246865 
L 332.316276 -78.144685 
L 336.074079 -76.547641 
L 339.831882 -80.802608 
L 343.589686 -70.413637 
L 347.347489 -76.975238 
L 351.105292 -75.247215 
L 354.863096 -75.134829 
L 358.620899 -67.561972 
L 362.378702 -74.589035 
L 366.136506 -68.73683 
L 369.894309 -77.430569 
L 373.652112 -78.013 
L 377.409916 -68.075549 
L 381.167719 -78.063182 
L 384.925522 -70.468213 
L 388.683326 -77.545817 
L 392.441129 -76.354411 
L 396.198932 -69.177509 
L 399.956735 -64.819177 
L 403.714539 -76.233187 
L 407.472342 -74.566856 
L 411.230145 -74.444579 
L 414.987949 -76.357473 
L 418.745752 -72.499501 
L 422.503555 -73.184694 
L 426.261359 -75.40177 
L 430.019162 -74.293515 
L 433.776965 -68.400215 
L 437.534769 -79.575893 
L 441.292572 -81.226103 
L 445.050375 -79.49403 
L 445.050375 -88.416419 
L 445.050375 -88.416419 
L 441.292572 -87.576377 
L 437.534769 -88.233482 
L 433.776965 -86.360244 
L 430.019162 -91.07248 
L 426.261359 -91.324489 
L 422.503555 -83.627864 
L 418.745752 -78.1699 
L 414.987949 -86.449802 
L 411.230145 -91.374032 
L 407.472342 -84.332805 
L 403.714539 -89.312621 
L 399.956735 -88.510685 
L 396.198932 -93.545791 
L 392.441129 -86.613751 
L 388.683326 -85.830695 
L 384.925522 -85.418006 
L 381.167719 -85.026682 
L 377.409916 -86.246608 
L 373.652112 -87.669015 
L 369.894309 -91.475658 
L 366.136506 -89.872718 
L 362.378702 -83.918147 
L 358.620899 -85.594528 
L 354.863096 -89.272644 
L 351.105292 -86.092858 
L 347.347489 -94.967609 
L 343.589686 -87.239263 
L 339.831882 -87.561652 
L 336.074079 -86.740071 
L 332.316276 -82.107185 
L 328.558472 -93.030036 
L 324.800669 -89.025826 
L 321.042866 -95.218879 
L 317.285062 -90.460582 
L 313.527259 -87.791897 
L 309.769456 -87.477479 
L 306.011652 -84.865945 
L 302.253849 -82.131264 
L 298.496046 -93.211111 
L 294.738242 -92.20097 
L 290.980439 -86.680228 
L 287.222636 -88.787845 
L 283.464832 -88.436943 
L 279.707029 -83.995488 
L 275.949226 -89.162835 
L 272.191422 -87.929135 
L 268.433619 -81.099737 
L 264.675816 -90.250201 
L 260.918012 -85.000138 
L 257.160209 -92.130025 
L 253.402406 -87.65931 
L 249.644602 -85.912652 
L 245.886799 -81.964506 
L 242.128996 -87.025115 
L 238.371192 -82.466765 
L 234.613389 -94.103498 
L 230.855586 -84.088016 
L 227.097782 -91.126174 
L 223.339979 -82.790187 
L 219.582176 -85.709742 
L 215.824372 -87.915602 
L 212.066569 -81.793507 
L 208.308766 -86.324615 
L 204.550962 -86.132834 
L 200.793159 -80.825261 
L 197.035356 -84.226114 
L 193.277552 -96.164589 
L 189.519749 -88.430336 
L 185.761946 -87.046176 
L 182.004142 -83.9813 
L 178.246339 -92.732468 
L 174.488536 -90.440274 
L 170.730733 -84.287935 
L 166.972929 -82.052125 
L 163.215126 -82.950235 
L 159.457323 -86.00179 
L 155.699519 -91.972082 
L 151.941716 -88.201556 
L 148.183913 -88.875398 
L 144.426109 -89.552478 
L 140.668306 -87.120328 
L 136.910503 -83.597893 
L 133.152699 -84.898948 
L 129.394896 -86.244249 
L 125.637093 -87.219729 
L 121.879289 -81.261051 
L 118.121486 -83.294497 
L 114.363683 -85.380481 
L 110.605879 -87.431884 
L 106.848076 -84.404297 
L 103.090273 -80.023411 
L 99.332469 -85.071659 
L 95.574666 -92.292374 
L 91.816863 -89.392265 
L 88.059059 -87.895458 
L 84.301256 -82.983585 
z
" id="mbbc4a54e34" style="stroke:#55a868;stroke-opacity:0.2;stroke-width:0.8;"/>
    </defs>
    <g clip-path="url(#p29c8bd4c74)">
     <use style="fill:#55a868;fill-opacity:0.2;stroke:#55a868;stroke-opacity:0.2;stroke-width:0.8;" x="0" xlink:href="#mbbc4a54e34" y="207.36"/>
    </g>
   </g>
   <g id="line2d_11">
    <path clip-path="url(#p29c8bd4c74)" d="M 84.301256 120.071459 
L 88.059059 112.424949 
L 91.816863 109.59842 
L 95.574666 112.740105 
L 99.332469 101.475611 
L 103.090273 105.699781 
L 106.848076 103.018146 
L 110.605879 94.037789 
L 114.363683 93.39359 
L 118.121486 89.73139 
L 121.879289 91.163791 
L 125.637093 90.483353 
L 129.394896 90.594127 
L 133.152699 82.530393 
L 136.910503 85.949412 
L 140.668306 81.246547 
L 144.426109 83.070265 
L 148.183913 83.831169 
L 151.941716 84.281299 
L 155.699519 85.276992 
L 159.457323 87.029844 
L 163.215126 82.503364 
L 166.972929 83.421779 
L 170.730733 79.307446 
L 174.488536 78.755219 
L 178.246339 81.686403 
L 182.004142 82.76242 
L 185.761946 76.896215 
L 189.519749 76.896394 
L 193.277552 79.037154 
L 197.035356 73.947517 
L 200.793159 71.543965 
L 204.550962 72.121783 
L 208.308766 72.173245 
L 212.066569 70.387558 
L 215.824372 67.2333 
L 219.582176 73.238786 
L 223.339979 75.735695 
L 227.097782 75.973027 
L 230.855586 72.19369 
L 234.613389 79.675566 
L 238.371192 74.256632 
L 242.128996 73.609664 
L 245.886799 86.942717 
L 249.644602 78.747286 
L 253.402406 84.411194 
L 257.160209 81.935518 
L 260.918012 86.412699 
L 264.675816 75.911622 
L 268.433619 84.477109 
L 272.191422 82.449577 
L 275.949226 82.297147 
L 279.707029 75.375819 
L 283.464832 75.058741 
L 287.222636 77.359203 
L 290.980439 79.755573 
L 294.738242 76.028174 
L 298.496046 76.337281 
L 302.253849 84.965651 
L 306.011652 81.786021 
L 309.769456 77.668912 
L 313.527259 82.824512 
L 317.285062 88.004508 
L 321.042866 85.140692 
L 324.800669 84.132727 
L 328.558472 84.028591 
L 332.316276 84.122698 
L 336.074079 83.920805 
L 339.831882 82.715254 
L 343.589686 76.494773 
L 347.347489 79.591274 
L 351.105292 74.2353 
L 354.863096 82.282587 
L 358.620899 74.502426 
L 362.378702 77.241337 
L 366.136506 73.523356 
L 369.894309 73.595368 
L 373.652112 77.753439 
L 377.409916 75.28821 
L 381.167719 75.449306 
L 384.925522 80.913061 
L 388.683326 80.149137 
L 392.441129 77.682068 
L 396.198932 77.754093 
L 399.956735 76.019219 
L 403.714539 77.843236 
L 407.472342 75.316689 
L 411.230145 75.499993 
L 414.987949 78.825037 
L 418.745752 81.905932 
L 422.503555 74.493075 
L 426.261359 74.921601 
L 430.019162 69.751054 
L 433.776965 73.970927 
L 437.534769 72.153318 
L 441.292572 71.164937 
L 445.050375 69.925639 
" style="fill:none;stroke:#4c72b0;stroke-linecap:round;"/>
   </g>
   <g id="line2d_12">
    <path clip-path="url(#p29c8bd4c74)" d="M 87.882912 127.418313 
L 95.222372 120.049752 
L 102.561832 123.188684 
L 109.901291 116.328126 
L 117.240751 118.543279 
L 124.58021 118.510423 
L 131.91967 112.929368 
L 139.25913 112.845796 
L 146.598589 112.003024 
L 153.938049 104.696649 
L 161.277509 105.46984 
L 168.616968 102.162833 
L 175.956428 97.285255 
L 183.295887 95.783308 
L 190.635347 90.036496 
L 197.974807 89.888909 
L 205.314266 86.38984 
L 212.653726 82.668159 
L 219.993186 79.078797 
L 227.332645 81.613344 
L 234.672105 79.802536 
L 242.011564 78.30877 
L 249.351024 75.600147 
L 256.690484 73.173366 
L 264.029943 73.363439 
L 271.369403 77.033147 
L 278.708863 67.517008 
L 286.048322 71.972353 
L 293.387782 73.019643 
L 300.727241 65.095423 
L 308.066701 68.821233 
L 315.406161 72.248178 
L 322.74562 63.579781 
L 330.08508 64.054227 
L 337.424539 67.177524 
L 344.763999 61.456648 
L 352.103459 65.913468 
L 359.442918 60.499074 
L 366.782378 57.566372 
L 374.121838 62.830296 
L 381.461297 64.121701 
L 388.800757 62.840331 
L 396.140216 63.778277 
L 403.479676 60.974565 
L 410.819136 61.727288 
L 418.158595 65.386032 
L 425.498055 61.68529 
L 432.837515 61.03397 
" style="fill:none;stroke:#dd8452;stroke-dasharray:4,1.5;stroke-dashoffset:0;"/>
   </g>
   <g id="line2d_13">
    <path clip-path="url(#p29c8bd4c74)" d="M 84.301256 130.635526 
L 88.059059 122.165349 
L 91.816863 124.332261 
L 95.574666 123.439134 
L 99.332469 128.658078 
L 103.090273 131.037171 
L 106.848076 125.036975 
L 110.605879 126.301579 
L 114.363683 126.212489 
L 118.121486 130.021255 
L 121.879289 129.251295 
L 125.637093 124.300523 
L 129.394896 125.12992 
L 133.152699 128.740079 
L 136.910503 126.17571 
L 140.668306 126.513397 
L 144.426109 124.648396 
L 148.183913 124.267655 
L 151.941716 125.63186 
L 155.699519 122.960609 
L 159.457323 127.736482 
L 163.215126 129.947466 
L 166.972929 130.429622 
L 170.730733 129.590521 
L 174.488536 124.079665 
L 178.246339 124.663881 
L 182.004142 127.887835 
L 185.761946 126.873955 
L 189.519749 126.44196 
L 193.277552 122.257494 
L 197.035356 126.946413 
L 200.793159 133.762143 
L 204.550962 130.805223 
L 208.308766 127.312928 
L 212.066569 128.66049 
L 215.824372 123.406632 
L 219.582176 124.636896 
L 223.339979 126.481782 
L 227.097782 126.73004 
L 230.855586 131.056621 
L 234.613389 120.581061 
L 238.371192 128.647832 
L 242.128996 126.604157 
L 245.886799 131.445103 
L 249.644602 126.585822 
L 253.402406 124.938752 
L 257.160209 125.310551 
L 260.918012 129.592037 
L 264.675816 122.771393 
L 268.433619 129.142195 
L 272.191422 126.917649 
L 275.949226 125.925927 
L 279.707029 127.425776 
L 283.464832 128.299756 
L 287.222636 124.554581 
L 290.980439 124.332099 
L 294.738242 122.321031 
L 298.496046 122.556974 
L 302.253849 128.5411 
L 306.011652 126.012755 
L 309.769456 124.689152 
L 313.527259 127.291765 
L 317.285062 123.404046 
L 321.042866 122.096786 
L 324.800669 127.520235 
L 328.558472 123.72155 
L 332.316276 127.234065 
L 336.074079 125.716144 
L 339.831882 123.17787 
L 343.589686 128.53355 
L 347.347489 121.388577 
L 351.105292 126.689964 
L 354.863096 125.156263 
L 358.620899 130.78175 
L 362.378702 128.106409 
L 366.136506 128.055226 
L 369.894309 122.906887 
L 373.652112 124.518992 
L 377.409916 130.198922 
L 381.167719 125.815068 
L 384.925522 129.41689 
L 388.683326 125.671744 
L 392.441129 125.875919 
L 396.198932 125.99835 
L 399.956735 130.695069 
L 403.714539 124.587096 
L 407.472342 127.91017 
L 411.230145 124.450694 
L 414.987949 125.956362 
L 418.745752 132.025299 
L 422.503555 128.953721 
L 426.261359 123.996871 
L 430.019162 124.677003 
L 433.776965 129.97977 
L 437.534769 123.455313 
L 441.292572 122.95876 
L 445.050375 123.404776 
" style="fill:none;stroke:#55a868;stroke-dasharray:1,1;stroke-dashoffset:0;"/>
   </g>
   <g id="line2d_14"/>
   <g id="line2d_15"/>
   <g id="line2d_16"/>
   <g id="patch_3">
    <path d="M 66.2638 149.4712 
L 66.2638 22.0888 
" style="fill:none;stroke:#cccccc;stroke-linecap:square;stroke-linejoin:miter;"/>
   </g>
   <g id="patch_4">
    <path d="M 463.087831 149.4712 
L 463.087831 22.0888 
" style="fill:none;stroke:#cccccc;stroke-linecap:square;stroke-linejoin:miter;"/>
   </g>
   <g id="patch_5">
    <path d="M 66.2638 149.4712 
L 463.087831 149.4712 
" style="fill:none;stroke:#cccccc;stroke-linecap:square;stroke-linejoin:miter;"/>
   </g>
   <g id="patch_6">
    <path d="M 66.2638 22.0888 
L 463.087831 22.0888 
" style="fill:none;stroke:#cccccc;stroke-linecap:square;stroke-linejoin:miter;"/>
   </g>
   <g id="legend_1">
    <g id="patch_7">
     <path d="M 76.1198 117.2588 
L 179.4626 117.2588 
Q 182.2786 117.2588 182.2786 114.4428 
L 182.2786 31.9448 
Q 182.2786 29.1288 179.4626 29.1288 
L 76.1198 29.1288 
Q 73.3038 29.1288 73.3038 31.9448 
L 73.3038 114.4428 
Q 73.3038 117.2588 76.1198 117.2588 
z
" style="fill:#ffffff;opacity:0.8;stroke:#cccccc;stroke-linejoin:miter;stroke-width:0.8;"/>
    </g>
    <g id="text_13">
     <!-- Model -->
     <g style="fill:#262626;" transform="translate(104.7308 46.432)scale(0.1536 -0.1536)">
      <defs>
       <path d="M 628 4666 
L 1569 4666 
L 2759 1491 
L 3956 4666 
L 4897 4666 
L 4897 0 
L 4281 0 
L 4281 4097 
L 3078 897 
L 2444 897 
L 1241 4097 
L 1241 0 
L 628 0 
L 628 4666 
z
" id="DejaVuSans-4d" transform="scale(0.015625)"/>
       <path d="M 603 4863 
L 1178 4863 
L 1178 0 
L 603 0 
L 603 4863 
z
" id="DejaVuSans-6c" transform="scale(0.015625)"/>
      </defs>
      <use xlink:href="#DejaVuSans-4d"/>
      <use x="86.279297" xlink:href="#DejaVuSans-6f"/>
      <use x="147.460938" xlink:href="#DejaVuSans-64"/>
      <use x="210.9375" xlink:href="#DejaVuSans-65"/>
      <use x="272.460938" xlink:href="#DejaVuSans-6c"/>
     </g>
    </g>
    <g id="line2d_17">
     <path d="M 78.9358 62.437 
L 107.0958 62.437 
" style="fill:none;stroke:#4c72b0;stroke-linecap:round;"/>
    </g>
    <g id="line2d_18"/>
    <g id="text_14">
     <!-- A2C -->
     <g style="fill:#262626;" transform="translate(118.3598 67.365)scale(0.1408 -0.1408)">
      <defs>
       <path d="M 2188 4044 
L 1331 1722 
L 3047 1722 
L 2188 4044 
z
M 1831 4666 
L 2547 4666 
L 4325 0 
L 3669 0 
L 3244 1197 
L 1141 1197 
L 716 0 
L 50 0 
L 1831 4666 
z
" id="DejaVuSans-41" transform="scale(0.015625)"/>
       <path d="M 4122 4306 
L 4122 3641 
Q 3803 3938 3442 4084 
Q 3081 4231 2675 4231 
Q 1875 4231 1450 3742 
Q 1025 3253 1025 2328 
Q 1025 1406 1450 917 
Q 1875 428 2675 428 
Q 3081 428 3442 575 
Q 3803 722 4122 1019 
L 4122 359 
Q 3791 134 3420 21 
Q 3050 -91 2638 -91 
Q 1578 -91 968 557 
Q 359 1206 359 2328 
Q 359 3453 968 4101 
Q 1578 4750 2638 4750 
Q 3056 4750 3426 4639 
Q 3797 4528 4122 4306 
z
" id="DejaVuSans-43" transform="scale(0.015625)"/>
      </defs>
      <use xlink:href="#DejaVuSans-41"/>
      <use x="68.408203" xlink:href="#DejaVuSans-32"/>
      <use x="132.03125" xlink:href="#DejaVuSans-43"/>
     </g>
    </g>
    <g id="line2d_19">
     <path d="M 78.9358 83.1038 
L 107.0958 83.1038 
" style="fill:none;stroke:#dd8452;stroke-dasharray:4,1.5;stroke-dashoffset:0;"/>
    </g>
    <g id="line2d_20"/>
    <g id="text_15">
     <!-- PPO -->
     <g style="fill:#262626;" transform="translate(118.3598 88.0318)scale(0.1408 -0.1408)">
      <defs>
       <path d="M 2522 4238 
Q 1834 4238 1429 3725 
Q 1025 3213 1025 2328 
Q 1025 1447 1429 934 
Q 1834 422 2522 422 
Q 3209 422 3611 934 
Q 4013 1447 4013 2328 
Q 4013 3213 3611 3725 
Q 3209 4238 2522 4238 
z
M 2522 4750 
Q 3503 4750 4090 4092 
Q 4678 3434 4678 2328 
Q 4678 1225 4090 567 
Q 3503 -91 2522 -91 
Q 1538 -91 948 565 
Q 359 1222 359 2328 
Q 359 3434 948 4092 
Q 1538 4750 2522 4750 
z
" id="DejaVuSans-4f" transform="scale(0.015625)"/>
      </defs>
      <use xlink:href="#DejaVuSans-50"/>
      <use x="60.302734" xlink:href="#DejaVuSans-50"/>
      <use x="120.605469" xlink:href="#DejaVuSans-4f"/>
     </g>
    </g>
    <g id="line2d_21">
     <path d="M 78.9358 103.7706 
L 107.0958 103.7706 
" style="fill:none;stroke:#55a868;stroke-dasharray:1,1;stroke-dashoffset:0;"/>
    </g>
    <g id="line2d_22"/>
    <g id="text_16">
     <!-- Random -->
     <g style="fill:#262626;" transform="translate(118.3598 108.6986)scale(0.1408 -0.1408)">
      <defs>
       <path d="M 2841 2188 
Q 3044 2119 3236 1894 
Q 3428 1669 3622 1275 
L 4263 0 
L 3584 0 
L 2988 1197 
Q 2756 1666 2539 1819 
Q 2322 1972 1947 1972 
L 1259 1972 
L 1259 0 
L 628 0 
L 628 4666 
L 2053 4666 
Q 2853 4666 3247 4331 
Q 3641 3997 3641 3322 
Q 3641 2881 3436 2590 
Q 3231 2300 2841 2188 
z
M 1259 4147 
L 1259 2491 
L 2053 2491 
Q 2509 2491 2742 2702 
Q 2975 2913 2975 3322 
Q 2975 3731 2742 3939 
Q 2509 4147 2053 4147 
L 1259 4147 
z
" id="DejaVuSans-52" transform="scale(0.015625)"/>
       <path d="M 2194 1759 
Q 1497 1759 1228 1600 
Q 959 1441 959 1056 
Q 959 750 1161 570 
Q 1363 391 1709 391 
Q 2188 391 2477 730 
Q 2766 1069 2766 1631 
L 2766 1759 
L 2194 1759 
z
M 3341 1997 
L 3341 0 
L 2766 0 
L 2766 531 
Q 2569 213 2275 61 
Q 1981 -91 1556 -91 
Q 1019 -91 701 211 
Q 384 513 384 1019 
Q 384 1609 779 1909 
Q 1175 2209 1959 2209 
L 2766 2209 
L 2766 2266 
Q 2766 2663 2505 2880 
Q 2244 3097 1772 3097 
Q 1472 3097 1187 3025 
Q 903 2953 641 2809 
L 641 3341 
Q 956 3463 1253 3523 
Q 1550 3584 1831 3584 
Q 2591 3584 2966 3190 
Q 3341 2797 3341 1997 
z
" id="DejaVuSans-61" transform="scale(0.015625)"/>
       <path d="M 3328 2828 
Q 3544 3216 3844 3400 
Q 4144 3584 4550 3584 
Q 5097 3584 5394 3201 
Q 5691 2819 5691 2113 
L 5691 0 
L 5113 0 
L 5113 2094 
Q 5113 2597 4934 2840 
Q 4756 3084 4391 3084 
Q 3944 3084 3684 2787 
Q 3425 2491 3425 1978 
L 3425 0 
L 2847 0 
L 2847 2094 
Q 2847 2600 2669 2842 
Q 2491 3084 2119 3084 
Q 1678 3084 1418 2786 
Q 1159 2488 1159 1978 
L 1159 0 
L 581 0 
L 581 3500 
L 1159 3500 
L 1159 2956 
Q 1356 3278 1631 3431 
Q 1906 3584 2284 3584 
Q 2666 3584 2933 3390 
Q 3200 3197 3328 2828 
z
" id="DejaVuSans-6d" transform="scale(0.015625)"/>
      </defs>
      <use xlink:href="#DejaVuSans-52"/>
      <use x="67.232422" xlink:href="#DejaVuSans-61"/>
      <use x="128.511719" xlink:href="#DejaVuSans-6e"/>
      <use x="191.890625" xlink:href="#DejaVuSans-64"/>
      <use x="255.367188" xlink:href="#DejaVuSans-6f"/>
      <use x="316.548828" xlink:href="#DejaVuSans-6d"/>
     </g>
    </g>
   </g>
  </g>
  <g id="axes_2">
   <g id="patch_8">
    <path d="M 508.187169 149.4712 
L 905.0112 149.4712 
L 905.0112 22.0888 
L 508.187169 22.0888 
z
" style="fill:#ffffff;"/>
   </g>
   <g id="matplotlib.axis_3">
    <g id="xtick_7">
     <g id="text_17">
      <!-- 1 -->
      <g style="fill:#262626;" transform="translate(553.310973 168.4698)scale(0.1408 -0.1408)">
       <use xlink:href="#DejaVuSans-31"/>
      </g>
     </g>
    </g>
    <g id="xtick_8">
     <g id="text_18">
      <!-- 3 -->
      <g style="fill:#262626;" transform="translate(652.51698 168.4698)scale(0.1408 -0.1408)">
       <use xlink:href="#DejaVuSans-33"/>
      </g>
     </g>
    </g>
    <g id="xtick_9">
     <g id="text_19">
      <!-- 5 -->
      <g style="fill:#262626;" transform="translate(751.722988 168.4698)scale(0.1408 -0.1408)">
       <use xlink:href="#DejaVuSans-35"/>
      </g>
     </g>
    </g>
    <g id="xtick_10">
     <g id="text_20">
      <!-- 7 -->
      <g style="fill:#262626;" transform="translate(850.928996 168.4698)scale(0.1408 -0.1408)">
       <defs>
        <path d="M 525 4666 
L 3525 4666 
L 3525 4397 
L 1831 0 
L 1172 0 
L 2766 4134 
L 525 4134 
L 525 4666 
z
" id="DejaVuSans-37" transform="scale(0.015625)"/>
       </defs>
       <use xlink:href="#DejaVuSans-37"/>
      </g>
     </g>
    </g>
    <g id="text_21">
     <!-- Number of skills -->
     <g style="fill:#262626;" transform="translate(644.613184 187.0692)scale(0.1536 -0.1536)">
      <defs>
       <path d="M 628 4666 
L 1478 4666 
L 3547 763 
L 3547 4666 
L 4159 4666 
L 4159 0 
L 3309 0 
L 1241 3903 
L 1241 0 
L 628 0 
L 628 4666 
z
" id="DejaVuSans-4e" transform="scale(0.015625)"/>
       <path d="M 544 1381 
L 544 3500 
L 1119 3500 
L 1119 1403 
Q 1119 906 1312 657 
Q 1506 409 1894 409 
Q 2359 409 2629 706 
Q 2900 1003 2900 1516 
L 2900 3500 
L 3475 3500 
L 3475 0 
L 2900 0 
L 2900 538 
Q 2691 219 2414 64 
Q 2138 -91 1772 -91 
Q 1169 -91 856 284 
Q 544 659 544 1381 
z
M 1991 3584 
L 1991 3584 
z
" id="DejaVuSans-75" transform="scale(0.015625)"/>
       <path d="M 3116 1747 
Q 3116 2381 2855 2742 
Q 2594 3103 2138 3103 
Q 1681 3103 1420 2742 
Q 1159 2381 1159 1747 
Q 1159 1113 1420 752 
Q 1681 391 2138 391 
Q 2594 391 2855 752 
Q 3116 1113 3116 1747 
z
M 1159 2969 
Q 1341 3281 1617 3432 
Q 1894 3584 2278 3584 
Q 2916 3584 3314 3078 
Q 3713 2572 3713 1747 
Q 3713 922 3314 415 
Q 2916 -91 2278 -91 
Q 1894 -91 1617 61 
Q 1341 213 1159 525 
L 1159 0 
L 581 0 
L 581 4863 
L 1159 4863 
L 1159 2969 
z
" id="DejaVuSans-62" transform="scale(0.015625)"/>
       <path id="DejaVuSans-20" transform="scale(0.015625)"/>
       <path d="M 581 4863 
L 1159 4863 
L 1159 1991 
L 2875 3500 
L 3609 3500 
L 1753 1863 
L 3688 0 
L 2938 0 
L 1159 1709 
L 1159 0 
L 581 0 
L 581 4863 
z
" id="DejaVuSans-6b" transform="scale(0.015625)"/>
      </defs>
      <use xlink:href="#DejaVuSans-4e"/>
      <use x="74.804688" xlink:href="#DejaVuSans-75"/>
      <use x="138.183594" xlink:href="#DejaVuSans-6d"/>
      <use x="235.595703" xlink:href="#DejaVuSans-62"/>
      <use x="299.072266" xlink:href="#DejaVuSans-65"/>
      <use x="360.595703" xlink:href="#DejaVuSans-72"/>
      <use x="401.708984" xlink:href="#DejaVuSans-20"/>
      <use x="433.496094" xlink:href="#DejaVuSans-6f"/>
      <use x="494.677734" xlink:href="#DejaVuSans-66"/>
      <use x="529.882812" xlink:href="#DejaVuSans-20"/>
      <use x="561.669922" xlink:href="#DejaVuSans-73"/>
      <use x="613.769531" xlink:href="#DejaVuSans-6b"/>
      <use x="671.679688" xlink:href="#DejaVuSans-69"/>
      <use x="699.462891" xlink:href="#DejaVuSans-6c"/>
      <use x="727.246094" xlink:href="#DejaVuSans-6c"/>
      <use x="755.029297" xlink:href="#DejaVuSans-73"/>
     </g>
    </g>
   </g>
   <g id="matplotlib.axis_4">
    <g id="ytick_5">
     <g id="line2d_23">
      <path clip-path="url(#p83f4232ac5)" d="M 508.187169 141.5098 
L 905.0112 141.5098 
" style="fill:none;stroke:#cccccc;stroke-linecap:round;stroke-width:0.8;"/>
     </g>
    </g>
    <g id="ytick_6">
     <g id="line2d_24">
      <path clip-path="url(#p83f4232ac5)" d="M 508.187169 101.7028 
L 905.0112 101.7028 
" style="fill:none;stroke:#cccccc;stroke-linecap:round;stroke-width:0.8;"/>
     </g>
    </g>
    <g id="ytick_7">
     <g id="line2d_25">
      <path clip-path="url(#p83f4232ac5)" d="M 508.187169 61.8958 
L 905.0112 61.8958 
" style="fill:none;stroke:#cccccc;stroke-linecap:round;stroke-width:0.8;"/>
     </g>
    </g>
    <g id="ytick_8">
     <g id="line2d_26">
      <path clip-path="url(#p83f4232ac5)" d="M 508.187169 22.0888 
L 905.0112 22.0888 
" style="fill:none;stroke:#cccccc;stroke-linecap:round;stroke-width:0.8;"/>
     </g>
    </g>
    <g id="text_22">
     <!-- Proficiency -->
     <g style="fill:#262626;" transform="translate(500.992769 127.5148)rotate(-90)scale(0.1536 -0.1536)">
      <use xlink:href="#DejaVuSans-50"/>
      <use x="58.552734" xlink:href="#DejaVuSans-72"/>
      <use x="97.416016" xlink:href="#DejaVuSans-6f"/>
      <use x="158.597656" xlink:href="#DejaVuSans-66"/>
      <use x="193.802734" xlink:href="#DejaVuSans-69"/>
      <use x="221.585938" xlink:href="#DejaVuSans-63"/>
      <use x="276.566406" xlink:href="#DejaVuSans-69"/>
      <use x="304.349609" xlink:href="#DejaVuSans-65"/>
      <use x="365.873047" xlink:href="#DejaVuSans-6e"/>
      <use x="429.251953" xlink:href="#DejaVuSans-63"/>
      <use x="484.232422" xlink:href="#DejaVuSans-79"/>
     </g>
    </g>
   </g>
   <g id="PathCollection_1">
    <defs>
     <path d="M 0 3.383948 
C 0.897434 3.383948 1.758231 3.027394 2.392813 2.392813 
C 3.027394 1.758231 3.383948 0.897434 3.383948 0 
C 3.383948 -0.897434 3.027394 -1.758231 2.392813 -2.392813 
C 1.758231 -3.027394 0.897434 -3.383948 0 -3.383948 
C -0.897434 -3.383948 -1.758231 -3.027394 -2.392813 -2.392813 
C -3.027394 -1.758231 -3.383948 -0.897434 -3.383948 0 
C -3.383948 0.897434 -3.027394 1.758231 -2.392813 2.392813 
C -1.758231 3.027394 -0.897434 3.383948 0 3.383948 
z
" id="m8d57691868" style="stroke:#4c72b0;stroke-width:2.025;"/>
    </defs>
    <g clip-path="url(#p83f4232ac5)">
     <use style="fill:#4c72b0;stroke:#4c72b0;stroke-width:2.025;" x="557.790173" xlink:href="#m8d57691868" y="37.081026"/>
     <use style="fill:#4c72b0;stroke:#4c72b0;stroke-width:2.025;" x="656.99618" xlink:href="#m8d57691868" y="54.558029"/>
     <use style="fill:#4c72b0;stroke:#4c72b0;stroke-width:2.025;" x="756.202188" xlink:href="#m8d57691868" y="69.925639"/>
     <use style="fill:#4c72b0;stroke:#4c72b0;stroke-width:2.025;" x="855.408196" xlink:href="#m8d57691868" y="96.723769"/>
    </g>
   </g>
   <g id="line2d_27">
    <path clip-path="url(#p83f4232ac5)" d="M 557.790173 41.57564 
L 557.790173 32.586412 
" style="fill:none;stroke:#4c72b0;stroke-linecap:round;stroke-width:1.8;"/>
   </g>
   <g id="line2d_28">
    <path clip-path="url(#p83f4232ac5)" d="M 557.790173 41.57564 
L 557.790173 41.57564 
" style="fill:none;stroke:#4c72b0;stroke-linecap:round;stroke-width:1.8;"/>
   </g>
   <g id="line2d_29">
    <path clip-path="url(#p83f4232ac5)" d="M 557.790173 32.586412 
L 557.790173 32.586412 
" style="fill:none;stroke:#4c72b0;stroke-linecap:round;stroke-width:1.8;"/>
   </g>
   <g id="line2d_30">
    <path clip-path="url(#p83f4232ac5)" d="M 656.99618 60.758051 
L 656.99618 48.358007 
" style="fill:none;stroke:#4c72b0;stroke-linecap:round;stroke-width:1.8;"/>
   </g>
   <g id="line2d_31">
    <path clip-path="url(#p83f4232ac5)" d="M 656.99618 60.758051 
L 656.99618 60.758051 
" style="fill:none;stroke:#4c72b0;stroke-linecap:round;stroke-width:1.8;"/>
   </g>
   <g id="line2d_32">
    <path clip-path="url(#p83f4232ac5)" d="M 656.99618 48.358007 
L 656.99618 48.358007 
" style="fill:none;stroke:#4c72b0;stroke-linecap:round;stroke-width:1.8;"/>
   </g>
   <g id="line2d_33">
    <path clip-path="url(#p83f4232ac5)" d="M 756.202188 76.481119 
L 756.202188 63.37016 
" style="fill:none;stroke:#4c72b0;stroke-linecap:round;stroke-width:1.8;"/>
   </g>
   <g id="line2d_34">
    <path clip-path="url(#p83f4232ac5)" d="M 756.202188 76.481119 
L 756.202188 76.481119 
" style="fill:none;stroke:#4c72b0;stroke-linecap:round;stroke-width:1.8;"/>
   </g>
   <g id="line2d_35">
    <path clip-path="url(#p83f4232ac5)" d="M 756.202188 63.37016 
L 756.202188 63.37016 
" style="fill:none;stroke:#4c72b0;stroke-linecap:round;stroke-width:1.8;"/>
   </g>
   <g id="line2d_36">
    <path clip-path="url(#p83f4232ac5)" d="M 855.408196 102.745775 
L 855.408196 90.701763 
" style="fill:none;stroke:#4c72b0;stroke-linecap:round;stroke-width:1.8;"/>
   </g>
   <g id="line2d_37">
    <path clip-path="url(#p83f4232ac5)" d="M 855.408196 102.745775 
L 855.408196 102.745775 
" style="fill:none;stroke:#4c72b0;stroke-linecap:round;stroke-width:1.8;"/>
   </g>
   <g id="line2d_38">
    <path clip-path="url(#p83f4232ac5)" d="M 855.408196 90.701763 
L 855.408196 90.701763 
" style="fill:none;stroke:#4c72b0;stroke-linecap:round;stroke-width:1.8;"/>
   </g>
   <g id="PathCollection_2">
    <defs>
     <path d="M -3.383948 3.383948 
L 3.383948 -3.383948 
M -3.383948 -3.383948 
L 3.383948 3.383948 
" id="m8c8081c156" style="stroke:#dd8452;stroke-width:2.025;"/>
    </defs>
    <g clip-path="url(#p83f4232ac5)">
     <use style="fill:#dd8452;stroke:#dd8452;stroke-width:2.025;" x="557.790173" xlink:href="#m8c8081c156" y="43.917836"/>
     <use style="fill:#dd8452;stroke:#dd8452;stroke-width:2.025;" x="656.99618" xlink:href="#m8c8081c156" y="46.289109"/>
     <use style="fill:#dd8452;stroke:#dd8452;stroke-width:2.025;" x="756.202188" xlink:href="#m8c8081c156" y="61.03397"/>
     <use style="fill:#dd8452;stroke:#dd8452;stroke-width:2.025;" x="855.408196" xlink:href="#m8c8081c156" y="82.178221"/>
    </g>
   </g>
   <g id="line2d_39">
    <path clip-path="url(#p83f4232ac5)" d="M 557.790173 47.271415 
L 557.790173 40.564257 
" style="fill:none;stroke:#dd8452;stroke-linecap:round;stroke-width:1.8;"/>
   </g>
   <g id="line2d_40">
    <path clip-path="url(#p83f4232ac5)" d="M 557.790173 47.271415 
L 557.790173 47.271415 
" style="fill:none;stroke:#dd8452;stroke-linecap:round;stroke-width:1.8;"/>
   </g>
   <g id="line2d_41">
    <path clip-path="url(#p83f4232ac5)" d="M 557.790173 40.564257 
L 557.790173 40.564257 
" style="fill:none;stroke:#dd8452;stroke-linecap:round;stroke-width:1.8;"/>
   </g>
   <g id="line2d_42">
    <path clip-path="url(#p83f4232ac5)" d="M 656.99618 49.716864 
L 656.99618 42.861354 
" style="fill:none;stroke:#dd8452;stroke-linecap:round;stroke-width:1.8;"/>
   </g>
   <g id="line2d_43">
    <path clip-path="url(#p83f4232ac5)" d="M 656.99618 49.716864 
L 656.99618 49.716864 
" style="fill:none;stroke:#dd8452;stroke-linecap:round;stroke-width:1.8;"/>
   </g>
   <g id="line2d_44">
    <path clip-path="url(#p83f4232ac5)" d="M 656.99618 42.861354 
L 656.99618 42.861354 
" style="fill:none;stroke:#dd8452;stroke-linecap:round;stroke-width:1.8;"/>
   </g>
   <g id="line2d_45">
    <path clip-path="url(#p83f4232ac5)" d="M 756.202188 64.805858 
L 756.202188 57.262083 
" style="fill:none;stroke:#dd8452;stroke-linecap:round;stroke-width:1.8;"/>
   </g>
   <g id="line2d_46">
    <path clip-path="url(#p83f4232ac5)" d="M 756.202188 64.805858 
L 756.202188 64.805858 
" style="fill:none;stroke:#dd8452;stroke-linecap:round;stroke-width:1.8;"/>
   </g>
   <g id="line2d_47">
    <path clip-path="url(#p83f4232ac5)" d="M 756.202188 57.262083 
L 756.202188 57.262083 
" style="fill:none;stroke:#dd8452;stroke-linecap:round;stroke-width:1.8;"/>
   </g>
   <g id="line2d_48">
    <path clip-path="url(#p83f4232ac5)" d="M 855.408196 87.731708 
L 855.408196 76.624735 
" style="fill:none;stroke:#dd8452;stroke-linecap:round;stroke-width:1.8;"/>
   </g>
   <g id="line2d_49">
    <path clip-path="url(#p83f4232ac5)" d="M 855.408196 87.731708 
L 855.408196 87.731708 
" style="fill:none;stroke:#dd8452;stroke-linecap:round;stroke-width:1.8;"/>
   </g>
   <g id="line2d_50">
    <path clip-path="url(#p83f4232ac5)" d="M 855.408196 76.624735 
L 855.408196 76.624735 
" style="fill:none;stroke:#dd8452;stroke-linecap:round;stroke-width:1.8;"/>
   </g>
   <g id="patch_9">
    <path d="M 508.187169 149.4712 
L 508.187169 22.0888 
" style="fill:none;stroke:#cccccc;stroke-linecap:square;stroke-linejoin:miter;"/>
   </g>
   <g id="patch_10">
    <path d="M 905.0112 149.4712 
L 905.0112 22.0888 
" style="fill:none;stroke:#cccccc;stroke-linecap:square;stroke-linejoin:miter;"/>
   </g>
   <g id="patch_11">
    <path d="M 508.187169 149.4712 
L 905.0112 149.4712 
" style="fill:none;stroke:#cccccc;stroke-linecap:square;stroke-linejoin:miter;"/>
   </g>
   <g id="patch_12">
    <path d="M 508.187169 22.0888 
L 905.0112 22.0888 
" style="fill:none;stroke:#cccccc;stroke-linecap:square;stroke-linejoin:miter;"/>
   </g>
   <g id="PathCollection_3">
    <defs>
     <path d="M -0 4.785625 
L 4.785625 0 
L 0 -4.785625 
L -4.785625 -0 
z
" id="mf48796dc5d" style="stroke:#55a868;stroke-width:2.025;"/>
    </defs>
    <g clip-path="url(#p83f4232ac5)">
     <use style="fill:#55a868;stroke:#55a868;stroke-width:2.025;" x="557.790173" xlink:href="#mf48796dc5d" y="130.797318"/>
     <use style="fill:#55a868;stroke:#55a868;stroke-width:2.025;" x="656.99618" xlink:href="#mf48796dc5d" y="130.413725"/>
     <use style="fill:#55a868;stroke:#55a868;stroke-width:2.025;" x="756.202188" xlink:href="#mf48796dc5d" y="123.404776"/>
     <use style="fill:#55a868;stroke:#55a868;stroke-width:2.025;" x="855.408196" xlink:href="#mf48796dc5d" y="124.666888"/>
    </g>
   </g>
   <g id="line2d_51">
    <path clip-path="url(#p83f4232ac5)" d="M 557.790173 139.865308 
L 557.790173 121.729328 
" style="fill:none;stroke:#55a868;stroke-linecap:round;stroke-width:1.8;"/>
   </g>
   <g id="line2d_52">
    <path clip-path="url(#p83f4232ac5)" d="M 557.790173 139.865308 
L 557.790173 139.865308 
" style="fill:none;stroke:#55a868;stroke-linecap:round;stroke-width:1.8;"/>
   </g>
   <g id="line2d_53">
    <path clip-path="url(#p83f4232ac5)" d="M 557.790173 121.729328 
L 557.790173 121.729328 
" style="fill:none;stroke:#55a868;stroke-linecap:round;stroke-width:1.8;"/>
   </g>
   <g id="line2d_54">
    <path clip-path="url(#p83f4232ac5)" d="M 656.99618 140.672214 
L 656.99618 120.155236 
" style="fill:none;stroke:#55a868;stroke-linecap:round;stroke-width:1.8;"/>
   </g>
   <g id="line2d_55">
    <path clip-path="url(#p83f4232ac5)" d="M 656.99618 140.672214 
L 656.99618 140.672214 
" style="fill:none;stroke:#55a868;stroke-linecap:round;stroke-width:1.8;"/>
   </g>
   <g id="line2d_56">
    <path clip-path="url(#p83f4232ac5)" d="M 656.99618 120.155236 
L 656.99618 120.155236 
" style="fill:none;stroke:#55a868;stroke-linecap:round;stroke-width:1.8;"/>
   </g>
   <g id="line2d_57">
    <path clip-path="url(#p83f4232ac5)" d="M 756.202188 127.394989 
L 756.202188 119.414562 
" style="fill:none;stroke:#55a868;stroke-linecap:round;stroke-width:1.8;"/>
   </g>
   <g id="line2d_58">
    <path clip-path="url(#p83f4232ac5)" d="M 756.202188 127.394989 
L 756.202188 127.394989 
" style="fill:none;stroke:#55a868;stroke-linecap:round;stroke-width:1.8;"/>
   </g>
   <g id="line2d_59">
    <path clip-path="url(#p83f4232ac5)" d="M 756.202188 119.414562 
L 756.202188 119.414562 
" style="fill:none;stroke:#55a868;stroke-linecap:round;stroke-width:1.8;"/>
   </g>
   <g id="line2d_60">
    <path clip-path="url(#p83f4232ac5)" d="M 855.408196 131.382402 
L 855.408196 117.951375 
" style="fill:none;stroke:#55a868;stroke-linecap:round;stroke-width:1.8;"/>
   </g>
   <g id="line2d_61">
    <path clip-path="url(#p83f4232ac5)" d="M 855.408196 131.382402 
L 855.408196 131.382402 
" style="fill:none;stroke:#55a868;stroke-linecap:round;stroke-width:1.8;"/>
   </g>
   <g id="line2d_62">
    <path clip-path="url(#p83f4232ac5)" d="M 855.408196 117.951375 
L 855.408196 117.951375 
" style="fill:none;stroke:#55a868;stroke-linecap:round;stroke-width:1.8;"/>
   </g>
   <g id="legend_2">
    <g id="patch_13">
     <path d="M 518.043169 142.4312 
L 621.385969 142.4312 
Q 624.201969 142.4312 624.201969 139.6152 
L 624.201969 57.1172 
Q 624.201969 54.3012 621.385969 54.3012 
L 518.043169 54.3012 
Q 515.227169 54.3012 515.227169 57.1172 
L 515.227169 139.6152 
Q 515.227169 142.4312 518.043169 142.4312 
z
" style="fill:#ffffff;opacity:0.8;stroke:#cccccc;stroke-linejoin:miter;stroke-width:0.8;"/>
    </g>
    <g id="text_23">
     <!-- Model -->
     <g style="fill:#262626;" transform="translate(546.654169 71.6044)scale(0.1536 -0.1536)">
      <use xlink:href="#DejaVuSans-4d"/>
      <use x="86.279297" xlink:href="#DejaVuSans-6f"/>
      <use x="147.460938" xlink:href="#DejaVuSans-64"/>
      <use x="210.9375" xlink:href="#DejaVuSans-65"/>
      <use x="272.460938" xlink:href="#DejaVuSans-6c"/>
     </g>
    </g>
    <g id="PathCollection_4">
     <g>
      <use style="fill:#4c72b0;stroke:#4c72b0;stroke-width:2.025;" x="534.939169" xlink:href="#m8d57691868" y="88.8414"/>
     </g>
    </g>
    <g id="text_24">
     <!-- A2C -->
     <g style="fill:#262626;" transform="translate(560.283169 92.5374)scale(0.1408 -0.1408)">
      <use xlink:href="#DejaVuSans-41"/>
      <use x="68.408203" xlink:href="#DejaVuSans-32"/>
      <use x="132.03125" xlink:href="#DejaVuSans-43"/>
     </g>
    </g>
    <g id="PathCollection_5">
     <g>
      <use style="fill:#dd8452;stroke:#dd8452;stroke-width:2.025;" x="534.939169" xlink:href="#m8c8081c156" y="109.5082"/>
     </g>
    </g>
    <g id="text_25">
     <!-- PPO -->
     <g style="fill:#262626;" transform="translate(560.283169 113.2042)scale(0.1408 -0.1408)">
      <use xlink:href="#DejaVuSans-50"/>
      <use x="60.302734" xlink:href="#DejaVuSans-50"/>
      <use x="120.605469" xlink:href="#DejaVuSans-4f"/>
     </g>
    </g>
    <g id="PathCollection_6">
     <g>
      <use style="fill:#55a868;stroke:#55a868;stroke-width:2.025;" x="534.939169" xlink:href="#mf48796dc5d" y="130.175"/>
     </g>
    </g>
    <g id="text_26">
     <!-- Random -->
     <g style="fill:#262626;" transform="translate(560.283169 133.871)scale(0.1408 -0.1408)">
      <use xlink:href="#DejaVuSans-52"/>
      <use x="67.232422" xlink:href="#DejaVuSans-61"/>
      <use x="128.511719" xlink:href="#DejaVuSans-6e"/>
      <use x="191.890625" xlink:href="#DejaVuSans-64"/>
      <use x="255.367188" xlink:href="#DejaVuSans-6f"/>
      <use x="316.548828" xlink:href="#DejaVuSans-6d"/>
     </g>
    </g>
   </g>
  </g>
 </g>
 <defs>
  <clipPath id="p29c8bd4c74">
   <rect height="127.3824" width="396.824031" x="66.2638" y="22.0888"/>
  </clipPath>
  <clipPath id="p83f4232ac5">
   <rect height="127.3824" width="396.824031" x="508.187169" y="22.0888"/>
  </clipPath>
 </defs>
</svg>
